<?xml version="1.0" standalone="no"?>
<!DOCTYPE svg PUBLIC "-//W3C//DTD SVG 1.1//EN" "http://www.w3.org/Graphics/SVG/1.1/DTD/svg11.dtd">
<svg xmlns="http://www.w3.org/2000/svg">
<metadata>Copyright (C) 2017 by original authors @ fontello.com</metadata>
<defs>
<font id="medialogfont" horiz-adv-x="1000" >
<font-face font-family="medialogfont" font-weight="400" font-stretch="normal" units-per-em="1000" ascent="850" descent="-150" />
<missing-glyph horiz-adv-x="1000" />
<glyph glyph-name="play-thin" unicode="&#xe800;" d="M20625 850c5715 0 10809-2361 14537-6088 3727-3728 6088-8822 6088-14537 0-5715-2361-10809-6088-14537-3728-3727-8822-6088-14537-6088-5715 0-10809 2361-14537 6088-3727 3728-6088 8822-6088 14537 0 5715 2361 10809 6088 14537 3728 3727 8822 6088 14537 6088z m13543-7082c-3479 3479-8325 5591-13543 5591-5343 0-10064-2112-13543-5591-3479-3479-5591-8200-5591-13543 0-5218 2112-10064 5591-13543 3479-3355 8200-5591 13543-5591 5218 0 10064 2236 13543 5591 3355 3479 5591 8325 5591 13543 0 5343-2236 10064-5591 13543z m-5467-14661l-5715-3231-5591-3230c-994-621-1988-497-1988 1118l0 6461 0 6585c0 1367 745 1864 1863 1118l5716-3230 5715-3231c994-621 1118-1739 0-2360z" horiz-adv-x="1000" />

<glyph glyph-name="toolbox_2" unicode="&#xe801;" d="M863 191h-344a35 35 0 0 0-36 35v161a35 35 0 0 0 36 35h344a35 35 0 0 0 35-35v-161a35 35 0 0 0-35-35z m-309 71h274v89h-274z m364 311h-454a35 35 0 0 0-35 35v207a35 35 0 0 0 35 35h454a35 35 0 0 0 35-35v-207a35 35 0 0 0-35-35z m-418 70h383v136h-384z m758 19h-1134a124 124 0 0 1-124-123v-565a124 124 0 0 1 124-124h1134a124 124 0 0 1 124 124v565a124 124 0 0 1-124 123m32-653a60 60 0 0 0-60-60h-1078a60 60 0 0 0-60 60v495a60 60 0 0 0 60 59h1078a60 60 0 0 0 60-60z m-771 342h-478a35 35 0 0 0 0 71h478a35 35 0 1 0 0-71z m806 0h-467a35 35 0 0 0 0 71h467a35 35 0 0 0 0-71z" horiz-adv-x="1382" />

<glyph glyph-name="facebook" unicode="&#xe802;" d="M500 850c-276 0-500-224-500-500 0-276 224-500 500-500s500 224 500 500c0 276-224 500-500 500z m-72-778h115v278h77l10 96h-87l0 48c0 25 2 38 38 38h48v96h-77c-92 0-124-46-124-124v-58h-58v-96h58v-278z" horiz-adv-x="1000" />

<glyph glyph-name="instagram" unicode="&#xe803;" d="M500 850c-276 0-500-224-500-500 0-276 224-500 500-500s500 224 500 500c0 276-224 500-500 500z m189-248h-378c-36 0-63-27-63-63v-378c0-36 27-63 63-63h378c36 0 63 27 63 63v378c0 36-27 63-63 63z m-189-153c56 0 102-44 102-98 0-54-46-98-102-98-56 0-101 44-101 98 0 54 45 98 101 98z m189-273c0-11-4-15-15-15h-347c-11 0-16 4-16 15v221l39-8c-4-14-6-29-6-44 0-84 70-152 156-152 87 0 157 68 157 152 0 15-2 30-6 44l38 8v-221z m0 284c0-8-7-15-15-15h-64c-8 0-15 7-15 15v63c0 9 7 16 15 16h64c8 0 15-7 15-16v-63z" horiz-adv-x="1000" />

<glyph glyph-name="linked" unicode="&#xe804;" d="M500 850c-276 0-500-224-500-500 0-276 224-500 500-500s500 224 500 500c0 276-224 500-500 500z m259-717v192c0 103-55 150-128 150-59 0-85-32-100-55v48h-111c1-32 0-335 0-335h111v187c0 10 1 20 4 27 8 20 26 41 57 41 40 0 56-31 56-76v-179l111 0 0 0z m-456 380c38 0 63 26 63 58-1 33-25 58-63 58s-62-25-62-58c0-32 24-58 61-58h1z m55-380v335h-111v-335h111z" horiz-adv-x="1000" />

<glyph glyph-name="vimeo" unicode="&#xe805;" d="M500 850c-276 0-500-224-500-500 0-276 224-500 500-500s500 224 500 500c0 276-224 500-500 500z m-261-449c0 0 48 38 64 19 16-19 76-245 96-286 18-37 66-85 120-51 53 35 230 186 262 365 32 178-213 141-239-15 65 39 99-16 66-78-33-62-63-102-79-102-16 0-28 41-46 114-19 75-19 210-97 194-73-14-170-129-170-129l23-31z" horiz-adv-x="1000" />

<glyph glyph-name="play-circled2" unicode="&#xe806;" d="M661 350q0-21-18-31l-304-178q-8-5-18-5-8 0-17 4-18 11-18 31v358q0 20 18 31 18 10 35-1l304-178q18-10 18-31z m71 0q0 83-41 152t-110 111-152 41-153-41-110-111-41-152 41-152 110-111 153-41 152 41 110 111 41 152z m125 0q0-117-57-215t-156-156-215-58-216 58-155 156-58 215 58 215 155 156 216 58 215-58 156-156 57-215z" horiz-adv-x="857.1" />

<glyph glyph-name="play-circled2-1" unicode="&#xe807;" d="M0 350q0 207 147 354t353 146 354-146 146-354-146-354-354-146-353 146-147 354z m115 0q0-158 114-271t271-114 271 114 114 271-114 272-271 113-271-113-114-272z m260-250l0 500 375-250z" horiz-adv-x="1000" />

<glyph glyph-name="right-circle" unicode="&#xe808;" d="M1000 349q0-136-67-251t-182-182-251-67-251 67-182 182-67 251 67 251 182 182 251 67 251-67 182-182 67-251z m-547-232l233 232-233 232-71-71 161-161-161-161z" horiz-adv-x="1000" />

<glyph glyph-name="people" unicode="&#xe809;" d="M848 233c-16-7-33-11-52-11-18 0-35 4-51 11-8-3-15-8-23-13 24-48 38-103 40-163h187c-4 82-45 150-101 176z m-102 28c6-3 11-6 17-8 11-3 22-5 33-5 12 0 23 2 33 5 6 2 12 5 17 8 30 17 51 50 51 87 0 55-45 100-101 100-55 0-100-45-100-100 0-37 20-70 50-87z m-592 0c5-3 11-6 17-8 10-3 21-5 33-5 11 0 22 2 33 5 6 2 11 5 17 8 30 17 50 50 50 87 0 55-45 100-100 100-56 0-101-45-101-100 0-37 21-70 51-87z m101-28c-16-7-33-11-51-11-19 0-36 4-51 11-57-26-98-94-102-176h187c2 60 16 115 40 163-7 5-15 10-23 13z m436-25c-2 4-4 8-7 12-26 48-64 85-108 106-23-11-49-17-76-17s-53 6-76 17c-44-21-81-58-108-106-2-4-5-8-7-12-2-4-4-8-5-12-19-40-30-86-32-135h456c-2 49-13 95-31 135-2 4-4 8-6 12z m-265 155c7-5 14-8 22-11 16-6 33-9 52-9 0 0 0 0 0 0s0 0 1 0c18 0 35 3 51 9 8 3 15 6 23 11 45 25 75 74 75 130 0 83-67 150-150 150s-150-67-150-150c0-56 30-105 76-130z" horiz-adv-x="1000" />

<glyph glyph-name="service" unicode="&#xe80a;" d="M685 148m219 60l-192-54 0-1c5-19 2-40-8-57-10-19-27-32-48-38-20-6-42-3-61 7l-111 62 10 19 111-62c14-8 29-9 44-5 15 4 27 14 35 28 4 7 6 15 7 23 3 19-6 39-23 48l-269 150c0 0-28 19-66 8 0 0 0 0-1 0-7-1-296-84-308-87l-1 0 61-209 193 55c20-12 167-103 185-114 33-19 73-9 82-6 1 0 394 112 394 112 27 8 50 44 39 81-9 31-42 49-73 40z m17 343h-35c-5 21-13 40-24 58l28 28c2 2 3 5 3 8 0 3-1 6-3 8l-39 39c-4 4-11 4-15 0l-29-29c-16 10-34 17-52 22v37c0 6-5 11-11 11h-54c-6 0-11-5-11-11v-36c-20-4-38-12-54-22l-31 31c-4 4-11 4-15 0l-39-39c-2-2-3-5-3-8 0-3 1-6 3-8l30-30c-12-18-20-37-25-59h-35c-6 0-11-5-11-11v-54c0-6 5-11 11-11h35c4-19 12-37 22-53l-28-28c-2-2-3-5-3-8s1-6 3-8l39-39c2-2 5-3 8-3 3 0 6 1 8 3l27 27c18-12 38-20 60-25v-31c0-6 5-11 11-11h54c6 0 11 5 11 11v32c21 5 40 13 57 24l23-23c2-2 5-3 8-3s6 1 8 3l38 38c2 2 3 5 3 8s-1 6-3 8l-24 24c10 16 17 34 22 54h35c6 0 11 5 11 11v54c-4 6-8 11-14 11z m-206-145c-59 0-107 48-107 107s48 107 107 107 107-48 107-107-48-107-107-107z" horiz-adv-x="1000" />

<glyph glyph-name="headphones" unicode="&#xe80b;" d="M1000 291c0 21-3 98-6 120-28 254-235 439-491 439-267 0-483-205-498-478 0-6-3-48-3-73l0-13c-1-6-2-13-2-19v-209c0-46 37-83 83-83h84c46 0 83 37 83 83v209c0 46-37 83-83 83h-84c-6 0-11-1-17-2 1 10 1 18 1 21 13 239 203 419 436 419 224 0 404-162 429-384 1-9 3-32 4-56-6 1-13 2-19 2h-83c-46 0-83-37-83-83v-208c0-32 17-59 43-73l-200-79v5c0 18-14 32-31 32h-94c-17 0-31-14-31-32v-31c0-17 14-31 31-31h94c0 0 1 0 1 0l56 0 321 127c5 1 8 4 11 7 28 13 48 42 48 75v208c0 5 0 10-1 15 0 3 1 6 1 9z" horiz-adv-x="1000" />

<glyph glyph-name="3rd_party_hardware_2" unicode="&#xe80c;" d="M456-150a28 28 0 0 0-12 2l-428 198a28 28 0 0 0-16 25v550a28 28 0 0 0 40 26l428-198a28 28 0 0 0 16-25v-550a28 28 0 0 0-28-28z m-400 243l372-172v490l-372 171z m400-243a28 28 0 0 0-28 28v550a28 28 0 0 0 16 25l428 198a28 28 0 0 0 40-26v-550a28 28 0 0 0-17-26l-427-197a28 28 0 0 0-12-2z m28 561v-490l372 171v490z m-242-156a28 28 0 0 0-28 28v250a28 28 0 0 0 16 25l428 197a28 28 0 1 0 23-51l-411-189v-232a28 28 0 0 0-28-28z m214 145a28 28 0 0 0-12 2l-428 197a28 28 0 0 0 0 52l428 197a28 28 0 0 0 24 0l427-197a28 28 0 0 0 0-52l-427-197a28 28 0 0 0-12-2z m-360 225l360-166 360 166-360 166z" horiz-adv-x="912" />

<glyph glyph-name="eye" unicode="&#xe81b;" d="M500 630q92 0 177-25t141-62 99-77 63-71 20-45-20-44-63-71-99-78-141-62-177-25-177 25-141 62-99 78-63 71-20 44 20 45 63 71 99 77 141 62 177 25z m0-494q92 0 157 63t65 151q0 90-65 153t-157 63-157-63-65-153q0-88 65-151t157-63z m0 214q8-8 37-2t50 11 25-9q0-44-33-75t-79-31-78 31-32 75q0 46 32 77t78 31q14 0 10-23t-12-47 2-38z" horiz-adv-x="1000" />

<glyph glyph-name="pulse-target" unicode="&#xe824;" d="M500 374c24 0 44 19 44 44 0 24-20 44-44 44s-44-20-44-44c0-25 20-44 44-44z m1 135c51 0 92-42 92-92 0-51-41-93-92-93s-92 42-92 93c0 50 41 92 92 92m201-106v27c0 5 0 8-5 8h-65c-10 55-53 101-107 110v64c0 5-7 3-12 3h-27c-5 0-2 2-2-3v-65c-55-10-104-54-114-109h-67c-5 0-11-3-11-8v-27c0-5 6-6 11-6h67c10-55 59-101 114-111v-66c0-5-3-14 2-14h27c5 0 12 9 12 14v66c54 8 97 56 107 111h65c5 0 5 1 5 6z m-202 366c189 0 341-153 341-341 0-173-128-316-295-338l-46-109-46 109c-167 22-295 165-295 338 0 188 153 341 341 341" horiz-adv-x="1000" />

<glyph glyph-name="workout" unicode="&#xe825;" d="M609 326h71l-172-157-171 157h20c18 0 34 10 42 25l16 30 45-126c6-17 21-29 38-32 2 0 5 0 7 0 15 0 29 6 38 18l66 85m-280 96h-69c-13 43-1 91 36 126 24 21 55 33 86 33h7c31 0 62-12 86-33l33-31 34 31c24 21 55 33 86 33h6c31 0 62-12 86-33 37-35 49-83 37-126h-172c-15 0-29-7-38-19l-26-34-51 145c-7 18-23 30-42 32-19 1-36-9-45-25l-54-99m177-164c-1 0-2 0-3 0-5 1-8 4-10 9l-71 189-54-94c-3-4-7-8-12-8l-145 1c-7 1-13 6-13 13v1c0 7 6 12 13 12l137 1 65 112c2 5 7 8 13 7 5 0 10-3 11-8l73-195 68 81c3 3 6 3 10 3l201-1c7 0 13-4 13-11v0c1-8-6-13-13-13l-194-1-79-93c-3-3-6-5-10-5" horiz-adv-x="1000" />

<glyph glyph-name="summary" unicode="&#xe827;" d="M605 526c0-26-21-47-47-47-27 0-48 21-48 47 0 27 21 48 48 48 26 0 47-21 47-48m3-323c0-15-13-27-28-27h-40c-15 0-28 12-28 27v205c0 15 13 27 28 27h40c15 0 28-12 28-27v-205" horiz-adv-x="1000" />

<glyph glyph-name="spin-plan" unicode="&#xe828;" d="M416 447c0-9-7-17-16-17h-8c-9 0-16 8-16 17s7 16 16 16h8c9 0 16-7 16-16z m0-72c0-9-7-16-16-16h-8c-9 0-16 7-16 16s7 16 16 16h8c9 0 16-7 16-16z m0-72c0-9-7-16-16-16h-8c-9 0-16 7-16 16s7 17 16 17h8c9 0 16-8 16-17z m204 144c0-9-7-17-16-17h-134c-9 0-16 8-16 17s7 16 16 16h134c9 0 16-7 16-16z m0-72c0-9-7-16-16-16h-134c-9 0-16 7-16 16s7 16 16 16h134c9 0 16-7 16-16z m0-72c0-9-7-16-16-16h-134c-9 0-16 7-16 16s7 17 16 17h134c9 0 16-8 16-17z m71-58v260c0 12-11 23-24 23h-334c-13 0-24-11-24-23v-260c0-12 11-23 24-23h334c13 0 24 11 24 23z m-13 321c27 0 48-21 48-47v-288c0-26-21-47-47-47h-358c-26 0-47 22-47 48v286c0 27 21 48 48 48h356" horiz-adv-x="1000" />

<glyph glyph-name="segment-time" unicode="&#xe829;" d="M231 367c0 127 103 231 230 231 42 0 81-9 115-28l-26-45c-27 15-57 23-89 23-99 0-179-80-179-179s80-180 179-180c99 0 179 78 179 177 0 1 0 1 0 1h51c0-150-103-230-230-230s-230 103-230 230z m409 0c0 0 0 0 0 0v0m129 41h-225l113 205c68-40 112-108 112-193v-12" horiz-adv-x="1000" />

<glyph glyph-name="gradientup" unicode="&#xe82a;" d="M669 235c0-15-11-31-26-31h-298c-15 0-19 10-8 21l313 315c11 11 19 8 19-7v-298" horiz-adv-x="1000" />

<glyph glyph-name="gradient-flat" unicode="&#xe82b;" d="M671 262v-27c0-15-13-28-28-28h-286c-15 0-28 13-28 28v27c0 15 13 27 28 27h286c15 0 28-12 28-27m-132 281l96-102-96-101 2 72h-171v55h171" horiz-adv-x="1000" />

<glyph glyph-name="previous-part" unicode="&#xe82c;" d="M329 507c0 25 18 33 43 33s43-8 43-33v-264c0-25-18-33-43-33s-43 8-43 33z m100-132c0 7 7 13 7 13l207 130c15 10 28 2 28-17v-252c0-19-13-26-28-16l-207 129c0 0-7 6-7 13" horiz-adv-x="1000" />

<glyph glyph-name="pause" unicode="&#xe82d;" d="M387 546c32 0 58-10 58-42v-258c0-30-24-41-54-42h-8c-31 1-54 12-54 42v258c0 32 26 42 58 42z m226 0c32 0 58-10 58-42v-258c0-30-23-41-54-42h-8c-30 1-54 12-54 42v258c0 32 26 42 58 42" horiz-adv-x="1000" />

<glyph glyph-name="skip-part" unicode="&#xe82e;" d="M628 540c25 0 43-8 43-33v-264c0-25-18-33-43-33s-43 8-43 33v264c0 25 18 33 43 33z m-64-152c0 0 8-6 8-13s-8-13-8-13l-207-129c-15-10-27-3-28 15v254c1 18 13 26 28 16l207-130" horiz-adv-x="1000" />

<glyph glyph-name="search" unicode="&#xe82f;" d="M537 304c61 0 116 54 116 115 0 62-50 111-111 111-62 0-116-54-116-115 0-62 49-111 111-111z m5 276c88 0 160-72 160-161 0-88-77-165-165-165-30 0-57 8-81 22l-99-98c-9-10-25-10-34 0l-25 24c-9 10-6 22 4 31l98 98c-15 25-24 53-24 84 0 88 77 165 166 165" horiz-adv-x="1000" />

<glyph glyph-name="position" unicode="&#xe830;" d="M782 520c-10-20-35-28-55-18-20 11-28 35-18 55 11 21 35 29 55 18 21-10 29-35 18-55m-70-99l-21-42c-4-7-4-18-1-25l33-71c3-7 2-18-1-24l-38-77c-4-6-12-9-18-5l-12 7c-6 4-9 13-5 19l28 53c3 7 3 18 0 24l-40 77c-3 6-3 17 0 24l47 92c4 7 12 11 20 10l22-5c8-2 18-7 23-13l67-70c5-5 6-15 2-21s-13-7-19-3l-70 54c-6 4-13 2-17-4m-441 113c0-25-21-45-46-45s-45 20-45 45c0 25 20 46 45 46s46-21 46-46m-74-86c0 11 9 20 20 20h15c11 0 28-2 38-5l86-22c10-3 15-11 13-19-1-7-9-11-20-9l-78 13c-11 2-19-5-19-16v-53c0-11 8-20 19-20h66c11 0 19-9 19-19v-128c0-11-8-20-19-20h-7c-11 0-20 9-20 20v82c0 10-9 19-19 19h-74c-11 0-20 9-20 20v137" horiz-adv-x="1000" />

<glyph glyph-name="tempo-1" unicode="&#xe831;" d="M86 482l162-93c13-8 13-20 0-28l-162-93c-13-7-23-1-23 14v186c0 15 10 22 23 14m258-133h191v54h-191z m277 117c0 15 10 21 23 13l90-56c13-8 24-13 24-11v54c0 15 10 21 22 13l148-91c13-8 12-21 0-29l-148-91c-12-7-22-2-22 13v54c0 2-11-3-24-10l-91-57c-13-7-22-2-22 13v185" horiz-adv-x="1000" />

<glyph glyph-name="altitude" unicode="&#xe836;" d="M285 197v60c0 0 15-28 60-28 44 0 58 28 58 28s14-28 58-28c36 0 49 19 55 26 0 0 19-26 56-26 44 0 54 28 54 28s5-28 50-28c31 0 38 15 39 23v-55c0 0 4-28-40-28s-41 28-41 28c0 0-14-28-58-28-39 0-55 21-59 26-3-5-18-26-56-26-44 0-58 28-58 28s-14-28-59-28c-44 0-59 28-59 28z m430 60c0 0 0-2 0-5z m-273 196h-57l131 128 128-128h-52v-176c-68 16-75 48-75 48s-7-33-75-48v176" horiz-adv-x="1000" />

<glyph glyph-name="temp" unicode="&#xe837;" d="M468 348c-29-12-48-40-48-73 0-44 36-80 80-80s76 36 76 80c0 34-26 63-53 74v180c0 14-13 29-28 29-14 0-28-7-28-21v-8h27v-14h-27v-27h27v-14h-27v-27h27v-13h-27v-28h27v-13h-27v-28h27v-13z m73 15c36-17 59-50 59-88 0-56-44-101-100-101-55 0-100 45-100 101 0 38 23 71 50 88v180c2 13 16 33 47 33 22 0 41-15 44-37v-176m15-72c2-5 2-11 2-16 0-33-26-59-58-59-33 0-59 26-59 59 0 5 1 11 2 16h113" horiz-adv-x="1000" />

<glyph glyph-name="feed3" unicode="&#xe840;" d="M375 375c0-69 56-125 125-125s125 56 125 125c0 69-56 125-125 125s-125-56-125-125z m274 275c97-53 164-156 164-275s-67-222-164-275c43 69 70 166 70 275s-27 206-70 275z m-368-275c0-109 27-206 70-275-97 53-163 156-163 275s66 222 163 275c-43-69-70-166-70-275z m-187 0c0-168 53-318 137-422-139 89-231 245-231 422s92 333 231 422c-84-103-137-254-137-422z m675 422c139-89 231-245 231-422s-92-333-231-422c84 104 137 254 137 422s-53 319-137 422z" horiz-adv-x="1000" />

<glyph glyph-name="flashlight" unicode="&#xe841;" d="M856 731c-84 84-189 114-223 81l-134-135c-21-21-39-89-31-158l-408-408c-24-24-4-83 44-132 49-48 108-68 132-44l408 409c69-9 137 9 158 30l135 134c33 34 3 139-81 223z m-449-408c-19 19-12 55 14 81s62 32 80 13c19-18 13-54-13-80-26-27-62-33-81-14z m338 297c-65 64-82 150-76 156s88-14 153-79c65-65 85-147 79-153-6-5-92 11-156 76z" horiz-adv-x="1000" />

<glyph glyph-name="folder-open3" unicode="&#xe842;" d="M813-63l187 501h-812l-188-501z m-688 563l-125-563v813h281l125-125h407v-125z" horiz-adv-x="1000" />

<glyph glyph-name="folder-video" unicode="&#xe843;" d="M920 735c-5 22-33 40-60 40h-720c-27 0-55-18-60-40l-10-60h860l-10 60z m51-110h-942c-17 0-30-15-28-32l46-583c2-20 18-35 38-35h830c20 0 36 15 38 35l47 583c1 17-12 32-29 32z m-571-450v250l219-125-219-125z" horiz-adv-x="1000" />

<glyph glyph-name="image" unicode="&#xe844;" d="M813 563h-125l-63 125h-250l-62-125h-125c-38 0-63-25-63-63v-375c0-31 25-62 63-62h625c31 0 62 25 62 62v375c0 38-25 63-62 63z m-313-438c-106 0-187 81-187 188s81 187 187 187 188-81 188-187-82-188-188-188z m0 313c-69 0-125-57-125-125s56-125 125-125 125 56 125 125-56 125-125 125z" horiz-adv-x="1000" />

<glyph glyph-name="circle" unicode="&#xe845;" d="M500 738c97 0 188-37 257-106s106-160 106-257-37-188-106-257-160-106-257-106-188 38-257 106-106 160-106 257 38 188 106 257 160 106 257 106m0 28c-216 0-391-175-391-391s175-391 391-391 391 175 391 391-175 391-391 391v0z" horiz-adv-x="1000" />

<glyph glyph-name="kegel-1" unicode="&#xe846;" d="M500 875c276 0 500-224 500-500s-224-500-500-500-500 224-500 500 224 500 500 500z m-48-320c135 0 245-110 245-245s-110-245-245-245-245 110-245 245 109 245 245 245z m40-440c-136 0-245 110-245 245 0 46 13 90 35 126-46-44-75-107-75-176 0-135 109-245 245-245 89 0 167 48 210 119-44-43-104-69-170-69z m186 100c1 13 2 27 2 42 0 69-15 118-47 179-11 19-18 40-22 61-23 19-50 34-79 44 1-36-7-72-26-105-30-54-46-116-46-179 0-62 16-124 46-179h1c1-2 4-3 7-5 74 20 134 73 164 142z m-186-100h-3c5-12 11-25 17-37h1c1-2 4-3 7-5h1l8 3 6 2 8 2 6 3 21 9 6 4 7 3 12 8c2 2 5 3 7 5l5 4c3 2 5 4 8 6l3 3c4 3 8 7 11 10l2 2c3 3 6 6 8 9l4 3c2 3 4 5 6 8l3 4c2 3 4 5 6 8l3 4c2 3 4 6 5 8l1 2c-44-42-103-68-169-68z m218 142c0 69-15 118-47 179-24 43-32 92-23 140l16 80c0 4 1 6 1 11 0 32-26 58-58 58-31 0-57-26-57-58 0-4 0-7 1-11l16-80c8-47 1-97-23-140-30-54-46-116-46-179 0-62 16-124 46-179h1c6-7 32-13 63-13 33 0 61 7 63 15 33 60 47 109 47 177z m-283 213c0 14-11 25-25 25s-25-11-25-25 11-25 25-25 25 11 25 25z m65 15c-14 0-25-11-25-25s11-25 25-25 25 11 25 25-11 25-25 25z m-50-60c-14 0-25-11-25-25s11-25 25-25 25 11 25 25-11 25-25 25z m125-347h-1c-30 55-46 117-46 179 0 63 16 125 46 179 24 43 31 93 23 140l-16 80c0 4-1 6-1 11 0 27 18 49 42 56-4 1-10 2-15 2-31 0-56-26-56-58 0-6 0-7 0-11l16-80c8-47 1-97-23-140-30-54-46-116-46-179 0-62 16-124 46-179h1c6-7 32-13 63-13 5 0 10 0 15 1-24 1-43 6-48 12z m76 407c-3 13-5 27-6 40h-75c-1-13-3-27-6-40h87z m-86 100l2-9c2-10 3-20 3-31h75c0 10 1 20 3 31l2 9h-85z m2-9c2-10 3-20 3-31h30c0 11-1 21-3 31l-2 9h-30l2-9z m3-51c-1-13-3-27-6-40h30c3 13 5 27 6 40h-30z m-166-35c14 0 25-12 25-25 0-6-2-12-6-16 7 5 12 12 12 21 0 14-11 25-25 25-8 0-15-4-20-9 4 2 9 4 14 4z m46-65c-8 0-15-4-20-9 4 2 9 4 14 4 14 0 25-12 25-25 0-6-2-12-6-16 7 5 12 12 12 21 0 14-11 25-25 25z m50 60c-8 0-15-4-20-9 4 2 9 4 14 4 14 0 25-12 25-25 0-6-2-12-6-16 7 5 12 12 12 21 0 14-11 25-25 25z" horiz-adv-x="1000" />

<glyph glyph-name="kegel" unicode="&#xe847;" d="M447 16c-6-10-9-16-9-16h-125c0 0-63 94-63 220 0 81 27 149 45 186v0h160c7-14 16-34 24-57-62-35-104-101-104-177 0-62 28-118 72-156v0 0z m-134 422v62h125v-62h-125z m-3 93c-8 43-29 71-29 110 0 34 32 78 94 78 63 0 94-44 94-78 0-39-21-67-29-110h-130z m268-531c95 0 172 77 172 172s-77 172-172 172c-95 0-172-77-172-172s77-172 172-172v0z m0 250c9 0 16 7 16 16 0 8-7 15-16 15-8 0-15-7-15-15 0-9 7-16 15-16v0z m-31-62c9 0 16 7 16 15 0 9-7 16-16 16s-16-7-16-16c0-8 7-15 16-15v0z m62 0c9 0 16 7 16 15 0 9-7 16-16 16-8 0-15-7-15-16 0-8 7-15 15-15v0z" horiz-adv-x="1000" />

<glyph glyph-name="8ball" unicode="&#xe848;" d="M500 875c-276 0-500-224-500-500s224-500 500-500 500 224 500 500c0 276-224 500-500 500z m69-730c-117-12-222 72-234 188-12 117 73 221 191 233 117 12 222-72 235-188 12-117-74-221-192-233z m31 210c-5 4-10 7-15 11-2 1-12 7-13 6 8 6 17 13 23 22 4 7 6 17 6 24 1 15-7 29-18 38-12 11-32 14-48 13-13-2-25-8-35-15-16-12-24-32-22-51 1-25 22-45 45-54-4-1-10-5-13-7-5-4-10-9-14-14-20-23-12-54 9-73 5-5 11-8 18-10 23-8 53-3 73 11 19 13 28 37 26 59-2 16-11 30-22 40z m-86 48c-4 5-6 10-7 16 0 8 2 16 7 23 6 6 13 10 22 11s17-2 24-7c6-6 10-15 11-27 1-9 1-16-1-23-1-4-4-9-8-14l-3-4c-15 6-25 10-29 12-7 4-13 9-16 13z m69-133c-6-7-14-10-25-12-10-1-19 2-27 9s-12 18-14 31c-1 13 2 24 8 34 5 6 8 10 10 10 1 0 8-2 20-8 13-6 21-12 26-18 5-5 7-12 8-21 1-10-1-18-6-25z" horiz-adv-x="1000" />

<glyph glyph-name="arrow_right" unicode="&#xe849;" d="M643 7l350 350c9 10 9 26 0 36l-350 350c-10 9-26 9-36 0s-9-27 0-36l308-309h-890c-14 0-25-9-25-23s11-23 25-23h890l-308-309c-5-4-7-11-7-18s2-13 7-17c10-10 26-11 36-1z" horiz-adv-x="1000" />

<glyph glyph-name="admin" unicode="&#xe86b;" d="M1425 850h-1285a140 140 0 0 1-140-140v-720a140 140 0 0 1 140-140h1285a140 140 0 0 1 140 140v720a140 140 0 0 1-140 140m36-820a68 68 0 0 0-68-68h-1221a68 68 0 0 0-68 68v640a68 68 0 0 0 68 68h1221a68 68 0 0 0 69-68z m-797 194a180 180 0 0 1-191 163h-6a180 180 0 0 1-191-163c0-10 0-28 0-40v-114a19 19 0 0 1 18-20h354a19 19 0 0 1 18 20v115c-1 11-2 28-2 39z" horiz-adv-x="1565" />

<glyph glyph-name="centre_owners" unicode="&#xe86c;" d="M1130 561a34 34 0 0 1 0 16 120 120 0 0 1-120 101h-890a120 120 0 0 1-118-103 34 34 0 0 1 0-16s0-2 0-3v-586a120 120 0 0 1 120-120h888a120 120 0 0 1 120 120v587s0 3 0 4z m-69-591a50 50 0 0 0-49-49h-892a50 50 0 0 0-49 49v463l37-64a199 199 0 0 1 157-91h195v71h-195a127 127 0 0 0-96 54l-96 168a50 50 0 0 0 47 34h890a50 50 0 0 0 47-34l-95-168a127 127 0 0 0-97-56h-187v-70h187a198 198 0 0 1 158 92l36 64z" horiz-adv-x="1130" />

<glyph glyph-name="cinematic_cycling" unicode="&#xe86d;" d="M1255 380a24 24 0 0 1-20 2l-227-86c-8-3-8-10-8-18v-219c0-8 0-15 7-18l230-86a13 13 0 0 1 5 0 33 33 0 0 1 14 3c5 4 12 10 12 16v390c0 7-7 13-13 16z m-500 18a188 188 0 0 0-182 140h-127a191 191 0 0 0-182-142 187 187 0 0 0-142 67 85 85 0 0 1 0-15v-508a90 90 0 0 1 92-90h623a86 86 0 0 1 87 90v508a97 97 0 0 1-9 41 187 187 0 0 0-160-91z m-491-76a264 264 0 1 0 265 264 264 264 0 0 0-265-264z m0 452a188 188 0 1 1 188-188 188 188 0 0 1-188 188z m491-452a264 264 0 1 0 264 264 264 264 0 0 0-264-264z m0 452a188 188 0 1 1 188-188 188 188 0 0 1-188 188z" horiz-adv-x="1267" />

<glyph glyph-name="class_metrics" unicode="&#xe86e;" d="M1214 850h-1070a144 144 0 0 1-144-143v-714a144 144 0 0 1 144-143h1070a144 144 0 0 1 144 143v714a144 144 0 0 1-144 143m-942-530l59-13 45 70-86 22a39 39 0 1 1-19-78m779-11l-194-176-231 177a39 39 0 0 1-15 7l-31 8-45-71 49-12 249-194a39 39 0 0 1 51 0l221 198a39 39 0 0 1-54 59m-429 195l214-137a39 39 0 0 1 54 11l221 320a39 39 0 0 1-66 45l-198-287-215 138a39 39 0 0 1-56-13l-328-515a39 39 0 0 1 67-42z" horiz-adv-x="1357" />

<glyph glyph-name="films" unicode="&#xe86f;" d="M1529 174v85a104 104 0 0 0 0 207v85a103 103 0 0 0-104 104 103 103 0 0 0 104 104v91h-1529v-91a103 103 0 0 0 104-104 103 103 0 0 0-104-104v-85a103 103 0 0 0 104-104 103 103 0 0 0-104-103v-85a103 103 0 0 0 104-104 103 103 0 0 0-104-104v-116h1529v116a104 104 0 0 0 0 207z m-174-250h-1171v838h1171z" horiz-adv-x="1529" />

<glyph glyph-name="instructors" unicode="&#xe871;" d="M429 837a45 45 0 0 1-41 13 469 469 0 0 1-367-363 45 45 0 0 1 89-19 378 378 0 0 0 296 293 45 45 0 0 1 23 76z m13-180a45 45 0 0 1-40 13 256 256 0 0 1-201-199 45 45 0 1 1 88-18 166 166 0 0 0 131 128 45 45 0 0 1 23 76z m311-326h-129s-66 95-78 116a64 64 0 0 1-57 29c-23 0-55-22-90-48-43-31-76-58-97-74a89 89 0 0 1-32-69c0-37 42-61 72-80l83-51-20-157s0-34 29-38a37 37 0 0 1 37 28s27 142 31 169 11 43-19 65-82 50-82 50 99 76 106 80 13 12 21 2l58-77a40 40 0 0 1 28-8h140a32 32 0 0 1 0 64z" horiz-adv-x="884" />

<glyph glyph-name="members" unicode="&#xe872;" d="M622 128s-19 260-305 260h-9c-285 0-306-260-306-260 0-17-2-46-2-63v-183a32 32 0 0 1 29-32h567a32 32 0 0 1 29 32v183c0 17-1 46-3 63z m425 58s-20 260-306 260h-9a337 337 0 0 1-151-32c141-69 153-228 153-228 0-17 3-46 3-63v-215h284a32 32 0 0 1 29 32v182c-1 19-2 48-3 64z" horiz-adv-x="1049" />

<glyph glyph-name="play_movie" unicode="&#xe873;" d="M500 773a423 423 0 1 1 423-423 423 423 0 0 1-423 423z m202-436l-311-192c-23-15-42-4-42 24v373c0 29 19 40 42 25l311-193a27 27 0 0 0 11-18 27 27 0 0 0-11-19z" horiz-adv-x="1000" />

<glyph glyph-name="quality_films" unicode="&#xe874;" d="M867 278l-314 536-525-827c273 62 549-38 652-75 291-108 543 75 543 75l-318 506-243-431" horiz-adv-x="1250" />

<glyph glyph-name="real_time_data" unicode="&#xe875;" d="M172 680a244 244 0 0 0 36 20c2 22 5 47 7 71a307 307 0 0 1-78-38c-150-99-180-302-74-462 7-10 13-20 21-29a32 32 0 0 1 49 40c-6 8-12 16-17 24-86 131-62 295 56 374m214 95c6-25 11-51 16-72a298 298 0 0 0 138-113c5-9 10-17 15-26a32 32 0 0 1 45-14l0 3a32 32 0 0 1 10 41c-6 11-12 21-19 30a356 356 0 0 1-207 150m-96-346l5 422 86-413 0-5a45 45 0 0 0-90-9z m532 164h-108c-28 0-40-22-40-49v-693h197v693a49 49 0 0 1-49 49m-296-320h-109c-27 0-39-23-39-50v-372h197v372a50 50 0 0 1-49 50m-296-165h-108c-27 0-40-22-40-50v-207h197v207a50 50 0 0 1-49 50" horiz-adv-x="870" />

<glyph glyph-name="senses" unicode="&#xe876;" d="M977 145s-20 277-324 277h-10c-304 0-324-277-324-277 0-18-2-48-2-67v-193a33 33 0 0 1 29-34h603a33 33 0 0 1 29 34v193c2 19 1 49-1 67z m-810 51a53 53 0 0 1 14 74 446 446 0 0 0-3 491 53 53 0 0 1-89 58 553 553 0 0 1 4-608 53 53 0 0 1 73-14z m161 139a53 53 0 0 1 15 73 196 196 0 0 0 0 216 53 53 0 1 1-88 59 302 302 0 0 1 2-333 53 53 0 0 1 73-15z m822-148a53 53 0 0 1 44 24 553 553 0 0 1 5 608 53 53 0 0 1-89-59 446 446 0 0 0-3-491 53 53 0 0 1 44-82z m-161 138a53 53 0 0 1 44 24 302 302 0 0 1 2 333 53 53 0 1 1-88-59 196 196 0 0 0 0-215 53 53 0 0 1 45-83z" horiz-adv-x="1287" />

<glyph glyph-name="toolbox" unicode="&#xe878;" d="M1258 662h-1134a124 124 0 0 1-124-123v-565a124 124 0 0 1 124-124h1134a124 124 0 0 1 124 124v565a124 124 0 0 1-124 123m32-653a60 60 0 0 0-60-60h-1078a60 60 0 0 0-60 60v495a60 60 0 0 0 60 59h1078a60 60 0 0 0 60-60z" horiz-adv-x="1382" />

<glyph glyph-name="wifi" unicode="&#xe879;" d="M592-150l-22 10a121 121 0 0 0-69 136 115 115 0 0 0 227-10 121 121 0 0 0-79-130l-16-6h-41z m638 653a250 250 0 0 0-24-43c-18-21-39-41-59-62-29-30-48-28-71 6a565 565 0 0 1-270 216 553 553 0 0 1-654-214 161 161 0 0 0-12-17 34 34 0 0 0-50-3c-26 27-52 54-76 80a57 57 0 0 0-2 72 721 721 0 0 0 478 301c296 47 535-60 720-296a233 233 0 0 0 20-40z m-242-252a235 235 0 0 0-23-42c-20-23-42-45-64-68a36 36 0 0 0-63 4 273 273 0 0 1-161 110 269 269 0 0 1-277-94c-7-7-12-15-18-22a34 34 0 0 0-53-2c-25 25-49 49-72 75a56 56 0 0 0 0 78 453 453 0 0 0 387 168 450 450 0 0 0 328-171 169 169 0 0 0 16-36z" horiz-adv-x="1230" />

<glyph glyph-name="home" unicode="&#xe900;" d="M1000 298l-500 389-500-389v159l500 388 500-388z m-125 15v-376h-250v251h-250v-251h-250v376l375 281z" horiz-adv-x="1000" />

<glyph glyph-name="home2" unicode="&#xe901;" d="M500 844l-500-500 94-94 94 94v-407h250v188h125v-188h250v407l93-94 94 94-500 500z m0-406c-34 0-62 28-62 62s28 63 62 63c35 0 63-28 63-63s-28-62-63-62z" horiz-adv-x="1000" />

<glyph glyph-name="home4" unicode="&#xe902;" d="M1000 298l-500 389-500-389v159l500 388 500-388z m-125 15v-376h-250v251h-250v-251h-250v376l375 281z" horiz-adv-x="1000" />

<glyph glyph-name="home22" unicode="&#xe903;" d="M500 844l-500-500 94-94 94 94v-407h250v188h125v-188h250v407l93-94 94 94-500 500z m0-406c-34 0-62 28-62 62s28 63 62 63c35 0 63-28 63-63s-28-62-63-62z" horiz-adv-x="1000" />

<glyph glyph-name="home3" unicode="&#xe904;" d="M1000 281l-187 188v281h-125v-156l-188 187-500-500v-31h125v-313h313v188h125v-188h312v313h125z" horiz-adv-x="1000" />

<glyph glyph-name="Heart_rate_belt" unicode="&#xe90a;" d="M907 144l-32 32c-118 104-195 174-195 260 0 1 0 1 0 2 0 68 55 123 123 123 1 0 1 0 1 0 41-1 78-19 103-48 24 29 61 47 102 48 0 0 0 0 1 0 68 0 123-55 123-123 0-1 0-1 0-2 0-86-77-156-195-260z m0-269c199 0 372 117 452 287l412 3c23 0 42 19 42 42v333c0 23-19 42-42 42h-409c-81 174-254 293-456 293s-374-119-454-290l-410-3c-23 0-42-19-42-42v-333c0-23 19-42 42-42h411c81-173 253-290 453-290 0 0 1 0 1 0z m-441 497c0 242 196 438 438 438s437-196 437-438c0-241-196-437-437-437-242 0-438 196-438 437z" horiz-adv-x="1812.5" />

<glyph glyph-name="droplet" unicode="&#xe90b;" d="M844 413c-64 179-200 340-344 462-144-122-280-283-344-462-40-111-44-231 12-337 64-123 194-201 332-201s268 78 332 201c56 106 52 226 12 337z m-123-279c-42-81-129-134-221-134-54 0-106 18-148 50 12-2 26-3 39-3 114 0 223 66 276 167 44 83 40 170 24 239 14-28 26-55 36-82 22-62 39-153-6-237z" horiz-adv-x="1000" />

<glyph glyph-name="droplet2" unicode="&#xe90c;" d="M844 413c-64 179-200 340-344 462-144-122-280-283-344-462-40-111-44-231 12-337 64-123 194-201 332-201s268 78 332 201c56 106 52 226 12 337z m-123-279c-42-81-129-134-221-134-54 0-106 18-148 50 12-2 26-3 39-3 114 0 223 66 276 167 44 83 40 170 24 239 14-28 26-55 36-82 22-62 39-153-6-237z" horiz-adv-x="1000" />

<glyph glyph-name="Target" unicode="&#xe90d;" d="M612 379c0-59-49-108-108-108s-108 49-108 108c0 60 48 108 108 108s108-48 108-108z m373 53h-159c-25 136-131 241-266 264l-2 157c0 0 0 0 0 0 0 12-10 22-22 22 0 0 0 0 0 0h-66c-12 0-22-10-22-22v-158c-133-26-235-130-260-261l-166-2c-12 0-22-10-22-23v-66c0-12 10-22 22-22h165c24-133 127-237 257-263l3-161c0-13 9-22 22-22h66c12 0 22 9 22 22v159c137 23 243 129 267 263l160 2c12 0 22 10 22 22v66c0 0 0 1 0 1 0 11-9 21-21 22z m-253-55c0-125-101-226-226-226s-225 101-225 226c0 124 101 225 225 225 125 0 226-101 226-226 0 0 0 0 0 0z" horiz-adv-x="1006.8" />

<glyph glyph-name="Watt_bike" unicode="&#xe90e;" d="M879-44c13 0 23-10 23-23s-10-23-23-23c-13 0-23 10-23 23s10 23 23 23z m-475 168c-4 3 64 146 61 152s-74 29-78 40c-2 6 45 116 60 152 27-6 50-14 72-23 1-3-50-102-48-107s76-29 79-40-142-177-146-174z m-345-214c-13 0-23 10-23 23s10 23 23 23c13 0 23-10 23-23s-10-23-23-23z m781 852c13 3 24 9 34 16l72 59c4 4 8 10 8 17 0 5-2 10-6 14-4 4-10 7-16 7-5 0-10-2-13-5-23-19-68-56-72-58-4-4-9-6-14-7l-188-51 29-121-6-1-425-106-53 189c13 8 32 16 81 16 1 0 2 0 3 0 13 0 24 11 25 24 0 7-3 13-8 17-5 4-12 7-19 7 0 0 0 0 0 0h-191c0 0-1 0-2 0-13 0-23-11-23-24 0 0 0 0 0 0v-6c0 0 0 0 0 0 0-4 2-8 5-10 6-4 59-39 84-39l54-196c-21-16-38-38-47-62l-107-352c-2-7-4-15-4-23 0-13 4-26 11-36 5-7 12-13 19-16l-9-24h-4c0 0 0 0-1 0-32 0-59-26-59-59s27-59 59-59c33 0 59 27 59 59 0 15-6 29-15 39l14 35h718l10-28c-14-10-23-27-23-46 0-33 26-59 59-59s59 26 59 59c0 30-23 55-53 58l-11 30c5 3 8 6 11 10 9 11 13 25 13 40 0 7-1 13-2 20l-133 487c-6 20-19 36-36 46l-23 103 100 27z" horiz-adv-x="953.1" />

<glyph glyph-name="camera" unicode="&#xe90f;" d="M297 281c0-112 91-203 203-203s203 91 203 203-91 203-203 203-203-91-203-203z m641 344h-219c-16 63-31 125-94 125h-250c-62 0-78-62-94-125h-218c-35 0-63-28-63-62v-563c0-34 28-63 63-63h875c34 0 62 29 62 63v563c0 34-28 62-62 62z m-438-621c-153 0-277 124-277 277 0 153 124 278 277 278 153 0 277-125 277-278 0-153-124-277-277-277z m438 434h-125v62h125v-62z" horiz-adv-x="1000" />

<glyph glyph-name="camera2" unicode="&#xe910;" d="M297 281c0-112 91-203 203-203s203 91 203 203-91 203-203 203-203-91-203-203z m641 344h-219c-16 63-31 125-94 125h-250c-62 0-78-62-94-125h-218c-35 0-63-28-63-62v-563c0-34 28-63 63-63h875c34 0 62 29 62 63v563c0 34-28 62-62 62z m-438-621c-153 0-277 124-277 277 0 153 124 278 277 278 153 0 277-125 277-278 0-153-124-277-277-277z m438 434h-125v62h125v-62z" horiz-adv-x="1000" />

<glyph glyph-name="music" unicode="&#xe911;" d="M938 875h62v-719c0-86-98-156-219-156s-218 70-218 156c0 87 97 157 218 157 62 0 117-18 157-47v359l-500-111v-483c0-86-98-156-219-156s-219 70-219 156c0 87 98 157 219 157 61 0 116-18 156-47v609l563 125z" horiz-adv-x="1000" />

<glyph glyph-name="music2" unicode="&#xe912;" d="M938 875h62v-719c0-86-98-156-219-156s-218 70-218 156c0 87 97 157 218 157 62 0 117-18 157-47v359l-500-111v-483c0-86-98-156-219-156s-219 70-219 156c0 87 98 157 219 157 61 0 116-18 156-47v609l563 125z" horiz-adv-x="1000" />

<glyph glyph-name="film" unicode="&#xe913;" d="M0 750v-750h1000v750h-1000z m188-687h-125v125h125v-125z m0 250h-125v125h125v-125z m0 250h-125v125h125v-125z m562-500h-500v625h500v-625z m188 0h-125v125h125v-125z m0 250h-125v125h125v-125z m0 250h-125v125h125v-125z m-563 0v-375l250 187z" horiz-adv-x="1000" />

<glyph glyph-name="video-camera" unicode="&#xe914;" d="M375 594c0 86 70 156 156 156s157-70 157-156c0-86-70-156-157-156s-156 70-156 156z m-375 0c0 86 70 156 156 156s157-70 157-156c0-86-70-156-157-156s-156 70-156 156z m750-313v94c0 34-28 63-62 63h-625c-35 0-63-29-63-63v-312c0-35 28-63 63-63h625c34 0 62 28 62 63v93l250-156v438l-250-157z m-125-156h-500v188h500v-188z" horiz-adv-x="1000" />

<glyph glyph-name="video-camera2" unicode="&#xe915;" d="M375 594c0 86 70 156 156 156s157-70 157-156c0-86-70-156-157-156s-156 70-156 156z m-375 0c0 86 70 156 156 156s157-70 157-156c0-86-70-156-157-156s-156 70-156 156z m750-313v94c0 34-28 63-62 63h-625c-35 0-63-29-63-63v-312c0-35 28-63 63-63h625c34 0 62 28 62 63v93l250-156v438l-250-157z m-125-156h-500v188h500v-188z" horiz-adv-x="1000" />

<glyph glyph-name="film2" unicode="&#xe916;" d="M0 750v-750h1000v750h-1000z m188-687h-125v125h125v-125z m0 250h-125v125h125v-125z m0 250h-125v125h125v-125z m562-500h-500v625h500v-625z m188 0h-125v125h125v-125z m0 250h-125v125h125v-125z m0 250h-125v125h125v-125z m-563 0v-375l250 187z" horiz-adv-x="1000" />

<glyph glyph-name="spades" unicode="&#xe917;" d="M798 535c-189 141-254 253-298 340v0c0 0 0 0 0 0v0c-44-87-109-199-298-340-323-239-19-574 247-390-17-114-76-197-136-233v-37h375v37c-61 36-120 119-137 233 266-184 570 151 247 390z" horiz-adv-x="1000" />

<glyph glyph-name="clubs" unicode="&#xe918;" d="M768 491c-57 0-109-24-146-63-16-16-43-36-72-53 14 52 57 119 88 148 38 37 62 89 62 148 0 112-89 203-200 204-111-1-200-92-200-204 0-59 24-111 63-148 30-29 73-96 87-148-29 17-56 37-72 53-37 39-89 63-146 63-112 0-203-91-203-204 0-113 91-204 203-204 57 0 109 24 146 64 16 17 45 39 76 57-2-144-71-250-141-292v-37h375v37c-71 42-139 148-142 292 31-18 60-40 76-57 37-40 89-64 146-64 112 0 203 91 203 204 0 113-91 204-203 204z" horiz-adv-x="1000" />

<glyph glyph-name="diamonds" unicode="&#xe919;" d="M500 875l-312-500 312-500 313 500z" horiz-adv-x="1000" />

<glyph glyph-name="bullhorn" unicode="&#xe91a;" d="M1000 456c0 196-57 355-128 357 0 0 0 0 1 0h-81c0 0-191-143-465-199-8-45-13-97-13-158s5-114 13-158c274-56 465-199 465-199h81c-1 0-1 0-1 0 71 1 128 161 128 357z m-155-303c-10 0-19 10-25 15-12 14-24 35-34 62-23 60-35 140-35 226 0 86 12 166 35 226 10 26 22 48 34 61 6 6 15 16 25 16 9 0 19-10 24-16 12-13 24-35 34-61 23-60 35-140 35-226 0-86-12-166-35-226-10-27-22-48-34-62-5-5-15-15-24-15z m-599 303c0 51 4 100 11 145-47-6-87-10-137-10-66 0-66 0-66 0l-54-92v-86l54-93c0 0 0 0 66 0 50 0 90-3 137-10-7 46-11 95-11 146z m114-208l-125 24 79-314c5-16 21-25 36-18l116 46c16 6 22 23 14 38l-120 224z m485 91c-4 0-8 4-10 6-4 5-9 14-13 24-9 23-14 54-14 87s5 64 14 87c4 10 9 18 13 24 2 2 6 6 10 6 3 0 7-4 9-6 5-6 9-14 13-24 9-23 14-54 14-87 0-33-5-64-14-87-4-10-8-19-13-24-2-2-6-6-9-6z" horiz-adv-x="1000" />

<glyph glyph-name="connection" unicode="&#xe91b;" d="M625 313c103 0 197-43 265-110l-88-89c-46 46-108 74-177 74s-131-28-177-74l-88 89c68 67 162 110 265 110z m-442 66c118 119 275 184 442 184s324-65 442-184l-88-88c-95 95-220 147-354 147-134 0-259-52-354-147l-88 88z m783 365c104-44 197-107 278-188v0l-89-88c-141 142-330 220-530 220-200 0-389-78-530-220l-89 88c81 81 174 144 278 188 108 45 223 69 341 69s233-24 341-69z m-403-744c0 35 28 63 62 63s63-28 63-63c0-35-28-63-63-63s-62 28-62 63z" horiz-adv-x="1250" />

<glyph glyph-name="podcast" unicode="&#xe91c;" d="M1000 375c0 276-224 500-500 500s-500-224-500-500c0-215 136-398 326-469l-13-31h375l-14 31c190 71 326 254 326 469z m-525-120c-22 10-37 32-37 58 0 34 28 62 62 62s63-28 63-62c0-26-16-48-38-58l-25 58-25-58z m51-2c56 12 99 62 99 122 0 69-56 125-125 125-69 0-125-56-125-125 0-60 43-110 99-122l-72-170c-90 38-152 126-152 230 0 138 112 261 250 261s250-123 250-261c0-104-62-192-151-230l-73 170z m146-343l-72 169c124 42 213 158 213 296 0 173-140 313-313 313-173 0-312-140-312-313 0-138 88-254 212-296l-72-169c-156 67-265 222-265 403 0 241 196 449 437 449s437-208 437-449c0-181-109-336-265-403z" horiz-adv-x="1000" />

<glyph glyph-name="feed" unicode="&#xe91d;" d="M375 375c0 69 56 125 125 125s125-56 125-125c0-69-56-125-125-125s-125 56-125 125z m274 275c97-53 164-156 164-275s-67-222-164-275c43 69 70 166 70 275s-27 206-70 275z m-368-275c0-109 27-206 70-275-97 53-163 156-163 275s66 222 163 275c-43-69-70-166-70-275z m-187 0c0-168 53-318 137-422-139 89-231 245-231 422s92 333 231 422c-84-103-137-254-137-422z m675 422c139-89 231-245 231-422s-92-333-231-422c84 104 137 254 137 422s-53 319-137 422z" horiz-adv-x="1000" />

<glyph glyph-name="spades2" unicode="&#xe91e;" d="M798 535c-189 141-254 253-298 340v0c0 0 0 0 0 0v0c-44-87-109-199-298-340-323-239-19-574 247-390-17-114-76-197-136-233v-37h375v37c-61 36-120 119-137 233 266-184 570 151 247 390z" horiz-adv-x="1000" />

<glyph glyph-name="clubs2" unicode="&#xe91f;" d="M768 491c-57 0-109-24-146-63-16-16-43-36-72-53 14 52 57 119 88 148 38 37 62 89 62 148 0 112-89 203-200 204-111-1-200-92-200-204 0-59 24-111 63-148 30-29 73-96 87-148-29 17-56 37-72 53-37 39-89 63-146 63-112 0-203-91-203-204 0-113 91-204 203-204 57 0 109 24 146 64 16 17 45 39 76 57-2-144-71-250-141-292v-37h375v37c-71 42-139 148-142 292 31-18 60-40 76-57 37-40 89-64 146-64 112 0 203 91 203 204 0 113-91 204-203 204z" horiz-adv-x="1000" />

<glyph glyph-name="diamonds2" unicode="&#xe920;" d="M500 875l-312-500 312-500 313 500z" horiz-adv-x="1000" />

<glyph glyph-name="bullhorn2" unicode="&#xe921;" d="M1000 456c0 196-57 355-128 357 0 0 0 0 1 0h-81c0 0-191-143-465-199-8-45-13-97-13-158s5-114 13-158c274-56 465-199 465-199h81c-1 0-1 0-1 0 71 1 128 161 128 357z m-155-303c-10 0-19 10-25 15-12 14-24 35-34 62-23 60-35 140-35 226 0 86 12 166 35 226 10 26 22 48 34 61 6 6 15 16 25 16 9 0 19-10 24-16 12-13 24-35 34-61 23-60 35-140 35-226 0-86-12-166-35-226-10-27-22-48-34-62-5-5-15-15-24-15z m-599 303c0 51 4 100 11 145-47-6-87-10-137-10-66 0-66 0-66 0l-54-92v-86l54-93c0 0 0 0 66 0 50 0 90-3 137-10-7 46-11 95-11 146z m114-208l-125 24 79-314c5-16 21-25 36-18l116 46c16 6 22 23 14 38l-120 224z m485 91c-4 0-8 4-10 6-4 5-9 14-13 24-9 23-14 54-14 87s5 64 14 87c4 10 9 18 13 24 2 2 6 6 10 6 3 0 7-4 9-6 5-6 9-14 13-24 9-23 14-54 14-87 0-33-5-64-14-87-4-10-8-19-13-24-2-2-6-6-9-6z" horiz-adv-x="1000" />

<glyph glyph-name="connection2" unicode="&#xe922;" d="M625 313c103 0 197-43 265-110l-88-89c-46 46-108 74-177 74s-131-28-177-74l-88 89c68 67 162 110 265 110z m-442 66c118 119 275 184 442 184s324-65 442-184l-88-88c-95 95-220 147-354 147-134 0-259-52-354-147l-88 88z m783 365c104-44 197-107 278-188v0l-89-88c-141 142-330 220-530 220-200 0-389-78-530-220l-89 88c81 81 174 144 278 188 108 45 223 69 341 69s233-24 341-69z m-403-744c0 35 28 63 62 63s63-28 63-63c0-35-28-63-63-63s-62 28-62 63z" horiz-adv-x="1250" />

<glyph glyph-name="podcast2" unicode="&#xe923;" d="M1000 375c0 276-224 500-500 500s-500-224-500-500c0-215 136-398 326-469l-13-31h375l-14 31c190 71 326 254 326 469z m-525-120c-22 10-37 32-37 58 0 34 28 62 62 62s63-28 63-62c0-26-16-48-38-58l-25 58-25-58z m51-2c56 12 99 62 99 122 0 69-56 125-125 125-69 0-125-56-125-125 0-60 43-110 99-122l-72-170c-90 38-152 126-152 230 0 138 112 261 250 261s250-123 250-261c0-104-62-192-151-230l-73 170z m146-343l-72 169c124 42 213 158 213 296 0 173-140 313-313 313-173 0-312-140-312-313 0-138 88-254 212-296l-72-169c-156 67-265 222-265 403 0 241 196 449 437 449s437-208 437-449c0-181-109-336-265-403z" horiz-adv-x="1000" />

<glyph glyph-name="feed2" unicode="&#xe924;" d="M375 375c0 69 56 125 125 125s125-56 125-125c0-69-56-125-125-125s-125 56-125 125z m274 275c97-53 164-156 164-275s-67-222-164-275c43 69 70 166 70 275s-27 206-70 275z m-368-275c0-109 27-206 70-275-97 53-163 156-163 275s66 222 163 275c-43-69-70-166-70-275z m-187 0c0-168 53-318 137-422-139 89-231 245-231 422s92 333 231 422c-84-103-137-254-137-422z m675 422c139-89 231-245 231-422s-92-333-231-422c84 104 137 254 137 422s-53 319-137 422z" horiz-adv-x="1000" />

<glyph glyph-name="Bike_console" unicode="&#xe925;" d="M1135 232h-898v577h898z m151 643h-1205l-81-933 61-67 39 438-27 5 4 69h93v-222h1032v222h90l4-70-27-4 39-439c21 21 41 43 60 65z" horiz-adv-x="1368.2" />

<glyph glyph-name="bodybike" unicode="&#xe926;" d="M1063-101l-53 69c1 2 2 4 3 6 0 3 67 329-132 681-3 5-7 8-13 8 0 0-1 0-1 0-19 0-38-1-56-4 2 1 2 2 2 2l-26 59c53 8 100 20 145 37 42 17 80 52 102 96 2 3 2 5 2 7 0 8-6 15-15 15-6 0-11-4-13-8-20-38-52-67-91-83-37-14-79-26-123-33l10 31 116 23c7 1 12 7 12 15 0 8-7 15-15 15-1 0-2 0-3-1l-123-24c-5-1-9-4-11-8l-28-62c-1-2-2-4-2-6 0 0 0-1 0-1 0 0 0-1 0-1 0-2 1-4 2-6l30-71c-82-13-218-49-377-148-6-4-13-7-21-7-4 0-8 1-11 2-35 10-66 69-76 90-2 6-7 9-14 9-2 0-4 0-6-1l-10-5-35 104c-2 6-8 10-15 10 0 0 0 0 0 0h-10l-7 21 45 2c42 4 78 26 102 57l8 12c2 2 3 5 3 9 0 7-6 14-14 15l-277 20c-1 0-1 0-1 0-9 0-15-6-15-15 0 0 0 0 0 0 0-67 30-101 89-101h29l6-20h-98c-8 0-15-7-15-15s7-15 15-15h130l32-97-38-17c-4-2-7-6-8-11-1-6-28-148-12-257 2-11 3-23 5-35 7-52 15-110 35-149 6-9 14-17 23-23-67-27-124-62-175-105l1 1c-1-1-2-1-2-2l-65-85c-2-2-3-6-3-9 0-9 7-15 15-15 5 0 9 2 12 6l60 79c61 3 508 26 889 3l63-82c2-4 7-6 12-6 8 0 15 7 15 15 0 3-2 7-3 9z m-923 860c-32 0-55 10-59 55l233-17c-18-19-43-32-70-35l-65-3z m-13-767c59 42 121 71 159 80 7 2 12 8 12 15 0 5-3 10-7 12-3 2-7 4-10 6-11 5-28 13-33 23-18 33-26 89-32 138-2 13-4 25-5 36-14 90 5 208 10 239l55 26c14-26 46-81 89-94 5-2 12-3 18-3 15 0 28 5 38 12 221 136 398 150 438 151 167-300 136-578 126-640-335 21-724 5-858-1z m762 488l-156 82c-2 2-5 2-7 2-2 0-4 0-6-1l-212-83c-4-1-7-4-9-7l-66-141c-21-1-39-8-54-20l0 0 0 0c-23-18-38-46-38-78 0-55 44-99 98-99 20 0 39 6 54 16l416-116c1-1 3-1 4-1 7 0 12 4 14 10 42 126-27 414-30 426-1 4-4 8-8 10z m-355-218c-7 22-20 40-38 53l80 22z m-149-70c-9 12-15 26-15 42 0 38 31 69 69 69s69-31 69-69c0-22-10-42-27-55-11-9-26-14-42-14-22 0-42 11-54 27z m518-124l-384 107c1 2 3 4 4 6 0 0 0 1 0 1l1 0c1 2 2 4 3 6l88 158 46-4q1 0 2 0c8 0 15 6 15 15 0 7-6 14-14 15l-56 4c0 0 0 0 0 0s-1 0-1 0c-2 0-3 0-4 0 0 0 0 0 0 0l-134-38 55 117 201 78 144-77c10-42 61-275 34-388z" horiz-adv-x="1065.4" />

<glyph glyph-name="keiser" unicode="&#xe927;" d="M1100 872c-103 16-132-31-158-73-8-14-17-26-27-38-20-22-61-20-101-18-37 2-73 3-92-17-2-2-4-6-4-9 0-8 6-14 14-14 4 0 7 1 10 4 11 11 41 9 71 8 8-1 17-1 27-1 15 0 30 1 45 3-103-136-316-399-407-417-31 11-109 61-155 199q-1 4-3 8c-2 8-4 16-6 23l0 0-42 130 44 3c39 3 74 23 96 54l8 11c1 2 2 5 2 8 0 7-5 13-13 14l-263 19c0 0-1 0-1 0-8 0-14-6-14-14 0 0 0 0 0 0 0-63 29-96 85-96h27l44-137q4-17 9-32c19-60 47-155 46-207-36 42-89 69-149 69-106 0-193-86-193-193s87-194 193-194c73 0 136 40 170 100l22-9c10-11 21-21 34-28l29-75h-270c-5 0-9-3-12-6l-33-50c-1-3-2-5-2-8 0-8 6-14 14-14 5 0 9 2 12 6l29 44h657l35-45c3-3 7-5 11-5 8 0 14 6 14 14 0 3-1 6-3 9l-82 105c-3 4-7 6-11 6-8 0-14-6-14-14 0-4 1-7 3-9l26-33h-271l-22 59c25 6 46 19 64 36l41-36c2-2 4-3 7-4l82-16c1 0 2 0 3 0 0 0 0 0 0 0 0 0 0 0 0 0 4 0 9 2 11 6 5 6 8 14 8 23 0 4-1 7-2 10-7 29-46 47-50 49-2 1-4 2-6 2-8 0-14-6-14-14 0-6 3-11 8-13 10-4 32-18 35-31 0-1 1-2 1-2l-67 13-39 34c17 23 28 52 28 84 0 38-15 72-38 97s356 520 365 534c25 41 45 74 130 60 11-2 37-7 37-21 1-23-50-68-136-88-6-2-11-7-11-14 0-8 6-14 14-14 1 0 2 0 3 0 92 22 160 72 158 117 0 14-9 40-61 48z m-884-185c-31 0-53 10-56 53l222-16c-18-19-41-31-68-34l-61-3z m223-399c-19-7-34-18-48-31l-25-10-1 3c9 25 5 66-5 114 21-30 48-55 78-75z m-245-295c0 0 0 0-1 0-91 0-165 75-165 166s74 166 165 166c64 0 119-36 147-88l-152-65c-5-2-8-7-8-13 0-6 3-10 8-13l150-69c-29-50-83-84-144-84z m155 110l-121 55 123 52q2-6 3-12c-4-13-7-29-7-45 0-14 2-27 6-40-1-3-3-6-4-10z m171-148l-43-2-22 60c11-4 24-6 38-6h0c2 0 5 1 7 1z m70 132l-88 77c-2 2-6 3-9 3-8 0-14-6-14-14 0-4 2-8 5-10l88-77c-21-18-48-30-78-30-64 0-117 52-117 117s53 116 117 116c64 0 117-52 117-116 0-25-8-48-21-66z m-10 182c-14 11-31 20-49 25 52 32 116 95 177 163z" horiz-adv-x="1161.1" />

<glyph glyph-name="stages" unicode="&#xe928;" d="M1067 205c0 105-78 192-179 205-8 34-14 64-19 91l120 51c5 2 9 7 9 13l4 68 64 64c3 2 4 6 4 10 0 9-7 16-15 16 0 0 0 0 0 0h-53v73h29c9 0 16 7 16 15s-7 16-16 16h-213v33c0 8-7 15-16 15s-15-7-15-15v-49c0-8 7-15 15-15h84c-10-73-94-82-132-82-8 0-15-6-15-15s7-15 15-15c62 0 108 17 136 48v-62c-23-21-45-40-68-58-32-24-65-49-89-66-210-141-398-173-445-179l-97 260h132c9 0 15 7 15 15s-6 15-15 15h-43l-23 72 47 2c43 4 80 26 104 58l9 12c1 3 3 6 3 9 0 8-7 15-15 16l-285 21c0 0 0 0-1 0-8 0-15-7-15-15 0 0 0 0 0 0 0-69 31-104 92-104h29l23-71h-215c-8 0-15-7-15-15s7-15 15-15h48l101-303c-72-93-127-310-139-361-3-1-6-3-7-6l-34-59c-1-2-2-5-2-8 0-8 7-15 15-15h113c0 0 0 0 0 0 7 0 12 4 14 10l20 60c1 1 1 3 1 5 0 6-4 11-9 13 14 45 45 89 85 131 8-8 14-14 17-17 22-21 77-70 116-70 22 2 41 6 60 11l5-32c2-6 7-11 12-12l89-18c1 0 2 0 3 0 0 0 0 0 0 0 0 0 0 0 0 0 6 0 10 3 13 7 5 7 8 16 8 25 0 4 0 8-1 12-5 18-23 33-37 42 52 15 110 32 163 48 38-56 101-93 172-93 4 0 7 0 11 0l11-33c-7-1-12-7-12-14 0-2 0-4 1-5l19-60c2-6 8-10 15-10 0 0 0 0 0 0h112c9 0 16 7 16 15 0 3-1 6-2 8l-34 59c-3 5-7 8-13 8q-7 30-15 63c60 37 99 102 99 177z m-871 553c-33 0-56 11-61 57l240-18c-19-20-44-33-73-35l-66-4z m840-553c0-60-29-113-75-145-25 106-49 221-68 319 82-17 143-88 143-174z m-307 301c14 9 41 28 95 68 16-87 74-392 128-609h-39z m-27-17l18-54c-41-19-103-48-173-86-40 9-76 17-105 21 99 32 185 72 265 122z m28-83l11-31c-23-16-42-35-56-58l-1-1q-49 12-91 22c55 29 103 52 137 68z m21-62l17-48c-17 3-34 8-52 12 10 14 22 26 35 36z m164 308c3 3 5 7 5 12v132h52v-89c0-8 7-15 15-15h31l-42-42c-3-2-4-6-5-10l-3-64-105-44c-6 30-10 52-12 64 22 17 43 36 64 56z m-798-746h-75l16 28h68z m5 59h-47c16 63 70 267 136 346 2 2 3 6 3 9 0 2 0 4-1 5l-99 302h45l104-282c3-6 8-10 15-10 0 0 0 0 1 0 2 0 11 1 25 3-57-45-121-119-121-156 0-18 18-44 36-65-50-52-83-103-97-152z m250 73c-44 0-158 118-158 144 0 28 98 140 156 160 5 2 10 2 16 2 1 0 2 0 3 0 54 0 187-33 288-58 36-9 71-17 103-25l34-101c-120-37-270-81-361-105l-6 23c44 18 75 60 75 110 0 65-53 118-118 118s-118-53-118-118c0-65 53-118 118-118 5 0 9 0 14 1l5-24c-15-4-32-7-49-9z m45 165c-2 7-8 12-15 12-8 0-15-7-15-15 0-2 0-3 0-4l23-95c-2 0-4 0-6 0 0 0 0 0 0 0-48 0-87 39-87 87s39 87 87 87c48 0 87-39 87-87 0-35-21-65-51-79z m76-178c11-5 34-20 38-34 0 0 0-1 0-2l-66 14-5 22q12 3 26 7c1-3 4-6 7-7z m225 74c42 13 79 24 106 32l35-103c-57 0-109 28-141 70z m197-193l-10 28h69l16-28z" horiz-adv-x="1070.3" />

<glyph glyph-name="wattbike" unicode="&#xe929;" d="M874 356c-14 0-27-1-40-4l-48 173c-2 6-7 10-14 10-1 0-2 0-3 0l-17-4-44 178h114c42 0 62-12 67-23 1-2 1-4 1-6 0-5-2-9-5-12-15-16-62-22-88-23-8 0-14-6-14-14s6-14 14-14v0c8 0 80 1 109 32 8 8 13 19 13 31 0 6-1 12-4 17-6 13-17 24-31 29 48 18 99 53 171 124 2 3 3 6 3 10 0 8-6 14-14 14-4 0-7-1-9-3-135-133-190-133-282-133h-63c0 0 0 0 0 0-8 0-14-6-14-14 0-2 0-3 0-4l48-196-17-4c-4-1-7-3-9-6-1-2-111-166-241-166-126 0-174 105-178 114l-21 64c-2 5-8 9-14 9-1 0-3 0-4 0l-23-8-47 149 44 2c40 3 75 24 97 54l8 11c2 3 3 6 3 9 0 7-6 13-14 14l-266 20c0 0 0 0-1 0-8 0-14-6-14-14 0 0 0 0 0 0 0-65 29-97 86-97h27l50-157-23-7c-6-2-10-7-10-14 0-1 0-3 1-4 49-153 48-319 48-374v-1c0-1 0-1 0-1s0 0 0 0v-7c0 0 0-1 0-1 0-3 0-7 1-10 0 0 0-2 0-3l-202-183c-3-2-5-6-5-10 0-8 6-15 14-15 0 0 0 0 0 0h106c3 0 6 1 9 3l149 118 6 4c3-1 7-2 10-3 10-3 21-6 32-9l26-97c1-6 5-10 11-11l89-18c1 0 2 0 3 0 0 0 0 0 0 0 0 0 0 0 0 0 5 0 9 2 12 6 5 7 8 16 8 25 0 4-1 8-2 11-8 30-49 51-54 53-2 1-4 1-6 1-8 0-15-6-15-14 0-6 4-11 9-13 11-5 35-21 38-35 1-1 1-2 1-3 0 0 0 0 0 0l-69 13-18 76c34-5 73-8 113-8 2 0 5 0 7 0 67 0 132 5 196 13 34-74 111-122 199-122 132 0 239 107 239 239s-107 239-239 239c0 0 0 0 0 0z m-761 347c-31 0-53 10-57 53l224-17c-18-18-41-30-68-33l-61-3z m530-468c-27 3-57 6-87 8 79 65 159 127 176 132 6-3 15-27 17-54 0 0 0 0 0-1-35-21-63-51-83-86z m-454 253l46 15 17-51c0 0 0-1 0-1 1-1 57-131 205-131 134 0 242 144 262 173l43 11 46-158c-4-1-7-2-10-3l-22-4c-4 26-16 66-45 65-26-2-144-97-216-158-94 6-190 3-249-32-13-6-23-14-32-24-2 76-12 189-45 298z m140-367c-1 7-7 12-14 12-8 0-14-7-14-15 0-1 0-2 0-3l19-78c-2 0-3 0-5 0 0 0 0 0 0 0-45 0-81 36-81 80s36 81 81 81c44 0 80-36 80-81 0-32-19-60-47-73z m-214-204h-63l165 150c4-8 10-15 16-21 6-8 13-14 21-19z m254 105c33 19 55 55 55 95 0 43-24 79-60 97 23 4 50 6 78 6 1 0 2 0 4 0 70-2 137-6 203-15 31-3 67-7 94-8v-159c-66-11-144-18-223-22-14 0-28-1-41-1-39 0-77 3-114 8z m505-115c-73 0-138 38-176 95 27 4 49 8 61 10 7 1 12 7 12 14 0 0 0 0 0 0v40c20-38 58-64 103-64 63 0 115 52 115 115s-52 115-115 115c-45 0-83-26-102-63l-1 43c0 4-1 7-4 10-2 3-6 4-10 4 0 0 0 0 0 0-22 0-42 1-63 4 41 58 106 97 180 97 116 0 210-94 210-210s-94-210-210-210c0 0 0 0 0 0z m-86 210c0 48 38 86 86 86s86-38 86-86c0-48-38-86-86-86-48 0-86 38-86 86z" horiz-adv-x="1112.3" />

<glyph glyph-name="bluetooth" unicode="&#xe92a;" d="M580 375l198-198c17-17 17-45 0-62l-226-226c-28-28-73-11-73 28v357l-156-156c-45-45-97 21-63 56l202 201-202 201c-34 35 18 101 63 56l156-156v357c0 39 45 56 73 28l226-226c17-17 17-45 0-62z m-17-358l128 129-128 128v-257z m0 716v-257l128 128z" horiz-adv-x="1000" />

<glyph glyph-name="Video" unicode="&#xe92b;" d="M852 596c-65 0-254 0-254 0s265 76 294 91c30 15 34 28 30 42-15 45-60 111-60 111-15 30-39 26-58 21-13-3-689-193-689-193-21-4-41-28-41-72v-641c0 0 0-72 67-72 64 0 713 0 713 0s64 0 64 64c0 65 0 584 0 584s-2 65-66 65z m-153-114l18 37c7 15 21 28 37 28h35c16 0 24-11 16-25l-17-41c-8-14-17-31-33-31h-49c-16 0-14 17-7 32z m-90 65c17 0 27-11 20-25l-18-41c-7-14-17-30-33-30h-39c-16 0-24 16-16 31l17 37c8 15 20 28 36 28h33z m93 227l28 8c16 4 38-3 48-15l27-30c10-12 6-26-9-30l-29-8c-16-4-37 3-48 15l-26 30c-11 13-7 26 9 30z m-171-45l28 7c16 5 38-2 48-14l27-31c10-12 6-25-9-29l-29-8c-15-4-37 3-48 15l-26 30c-11 12-7 26 9 30z m-171-46l29 8c15 4 37-2 48-15l26-30c11-12 6-26-9-30l-29-7c-15-4-37 2-48 14l-26 31c-11 12-7 25 9 29z m-14-201l18 37c7 15 18 28 34 28h34c16 0 27-11 20-25l-18-41c-7-14-19-30-36-30h-37c-16 0-22 16-15 31z m-134 114c22 0 40-18 40-40 0-23-18-41-40-41-23 0-41 18-41 41 0 22 18 40 41 40z m624-616h-682v438l682 0 0-438z" horiz-adv-x="1000" />

<glyph glyph-name="glyph" unicode="&#xe92c;" d="M500 875c-276 0-500-224-500-500 0-276 224-500 500-500s500 224 500 500c0 276-224 500-500 500z" horiz-adv-x="1000" />

<glyph glyph-name="glyph-1" unicode="&#xe92d;" d="M239 426c0 0 48 38 64 19 16-19 76-245 96-286 18-37 66-85 120-51s230 186 262 365c32 178-213 141-239-15 65 39 99-16 66-78-33-62-63-102-79-102-16 0-28 41-46 114-19 75-19 210-97 194-73-14-170-129-170-129l23-31z" horiz-adv-x="1000" />

<glyph glyph-name="glyph-2" unicode="&#xe92e;" d="M500 875c-276 0-500-224-500-500 0-276 224-500 500-500s500 224 500 500c0 276-224 500-500 500z" horiz-adv-x="1000" />

<glyph glyph-name="folder" unicode="&#xe92f;" d="M438 750l125-125h437v-688h-1000v813z" horiz-adv-x="1000" />

<glyph glyph-name="folder-open" unicode="&#xe930;" d="M813-63l187 501h-812l-188-501z m-688 563l-125-563v813h281l125-125h407v-125z" horiz-adv-x="1000" />

<glyph glyph-name="folder2" unicode="&#xe931;" d="M438 750l125-125h437v-688h-1000v813z" horiz-adv-x="1000" />

<glyph glyph-name="folder-open2" unicode="&#xe932;" d="M813-63l187 501h-812l-188-501z m-688 563l-125-563v813h281l125-125h407v-125z" horiz-adv-x="1000" />

<glyph glyph-name="folder-download" unicode="&#xe933;" d="M563 625l-125 125h-438v-813h1000v688h-437z m-63-594l-219 219h157v250h125v-250h156l-219-219z" horiz-adv-x="1000" />

<glyph glyph-name="folder-upload" unicode="&#xe934;" d="M563 625l-125 125h-438v-813h1000v688h-437z m-63-219l219-218h-156v-251h-125v251h-157l219 218z" horiz-adv-x="1000" />

<glyph glyph-name="folder-download2" unicode="&#xe935;" d="M563 625l-125 125h-438v-813h1000v688h-437z m-63-594l-219 219h157v250h125v-250h156l-219-219z" horiz-adv-x="1000" />

<glyph glyph-name="folder-upload2" unicode="&#xe936;" d="M563 625l-125 125h-438v-813h1000v688h-437z m-63-219l219-218h-156v-251h-125v251h-157l219 218z" horiz-adv-x="1000" />

<glyph glyph-name="glyph-3" unicode="&#xe937;" d="M428 97h115v278h77l10 96h-87l0 48c0 25 2 38 38 38h48v96h-77c-92 0-124-46-124-124v-58h-58v-96h58v-278z" horiz-adv-x="1000" />

<glyph glyph-name="glyph-4" unicode="&#xe938;" d="M500 875c-276 0-500-224-500-500 0-276 224-500 500-500s500 224 500 500c0 276-224 500-500 500z" horiz-adv-x="1000" />

<glyph glyph-name="ticket" unicode="&#xe939;" d="M563 563l125-125-250-250-125 125z m415 22l-72 71-31-31c-16-16-38-26-62-26-49 0-89 40-89 89 0 24 10 46 26 62l31 31-71 72c-30 29-78 29-107 0l-581-581c-29-29-29-77 0-106l72-72 31 31c16 16 38 26 63 26 48 0 88-40 88-88 0-25-10-47-26-63l-31-31 72-72c29-29 77-29 106 0l581 581c29 29 29 77 0 107z m-540-522l-250 250 375 375 250-250-375-375z" horiz-adv-x="1000" />

<glyph glyph-name="ticket2" unicode="&#xe93a;" d="M563 563l125-125-250-250-125 125z m415 22l-72 71-31-31c-16-16-38-26-62-26-49 0-89 40-89 89 0 24 10 46 26 62l31 31-71 72c-30 29-78 29-107 0l-581-581c-29-29-29-77 0-106l72-72 31 31c16 16 38 26 63 26 48 0 88-40 88-88 0-25-10-47-26-63l-31-31 72-72c29-29 77-29 106 0l581 581c29 29 29 77 0 107z m-540-522l-250 250 375 375 250-250-375-375z" horiz-adv-x="1000" />

<glyph glyph-name="glyph-5" unicode="&#xe93b;" d="M759 158v192c0 103-55 150-128 150-59 0-85-32-100-55v48h-111c1-32 0-335 0-335h111v187c0 10 1 20 4 27 8 20 26 41 57 41 40 0 56-31 56-76v-179l111 0z m-456 380c38 0 63 26 63 58-1 33-25 58-63 58s-62-25-62-58c0-32 24-58 61-58h1z m55-380v335h-111v-335h111z" horiz-adv-x="1000" />

<glyph glyph-name="glyph-6" unicode="&#xe93c;" d="M500 875c-276 0-500-224-500-500 0-276 224-500 500-500s500 224 500 500c0 276-224 500-500 500z" horiz-adv-x="1000" />

<glyph glyph-name="glyph-7" unicode="&#xe93d;" d="M689 627h-378c-36 0-63-27-63-63v-378c0-36 27-63 63-63h378c36 0 63 27 63 63v378c0 36-27 63-63 63z m-189-153c56 0 102-44 102-98s-46-98-102-98c-56 0-101 44-101 98 0 54 45 98 101 98z m189-273c0-11-4-15-15-15h-347c-11 0-16 4-16 15v221l39-8c-4-14-6-29-6-44 0-84 70-152 156-152 87 0 157 68 157 152 0 15-2 30-6 44l38 8v-221z m0 284c0-8-7-15-15-15h-64c-8 0-15 7-15 15v63c0 9 7 16 15 16h64c8 0 15-7 15-16v-63z" horiz-adv-x="1000" />

<glyph glyph-name="smartphone" unicode="&#xe93e;" d="M292 750c0 83 83 83 83 83h292c0 0 83 0 83-83v-751c0-84-83-84-83-84h-292c0 0-83 0-83 84v751z m41-21v-666h375v666h-375z m188-779c23 0 42 19 42 42s-19 41-42 41c-23 0-42-18-42-41s19-42 42-42v0z m-57 842c-3 0-6-4-6-9v-3c0-5 3-9 6-9h114c3 0 5 4 5 9v3c0 5-2 9-5 9h-114z" horiz-adv-x="1000" />

<glyph glyph-name="video" unicode="&#xe93f;" d="M500 875c139 0 262-57 352-148s148-213 148-352c0-139-57-262-148-352s-213-148-352-148c-139 0-262 57-352 148s-148 213-148 352c0 139 57 262 148 352s213 148 352 148z m328-172c-84 85-201 136-328 136-129 0-244-51-328-136s-136-198-136-328c0-126 51-244 136-328 84-82 199-136 328-136 127 0 244 54 328 136 82 84 136 202 136 328 0 130-54 244-136 328z m-132-355l-139-78-135-79c-24-15-48-12-48 27v317c0 33 18 45 45 27l277-157c24-15 27-42 0-57z" horiz-adv-x="1000" />

<glyph glyph-name="Scenery_stroke" unicode="&#xe940;" d="M973 768c0-60-48-108-108-108s-107 48-107 108c0 59 48 107 107 107s108-48 108-107z m-943-893c-16 0-30 13-30 30 0 6 2 12 5 16l524 827c6 8 15 14 26 14s20-6 26-14l251-436c2-4 4-10 4-16 0-16-13-30-30-30-11 0-21 7-26 16l-227 392-498-785c-5-9-14-14-25-14z m1194 0c0 0 0 0 0 0-11 0-20 6-26 14l-290 463-217-386c-5-9-15-15-26-15-17 0-30 13-30 30 0 6 1 11 4 15l241 428c6 9 15 16 26 16 0 0 0 0 1 0 10 0 20-6 25-14l317-505c3-5 5-10 5-16 0-17-14-30-30-30 0 0 0 0 0 0z m-851 573l99-72 83 111 79-111 83 74-162 282-182-284z m436-210l98-97 98 97-98 172-98-172z" horiz-adv-x="1253.9" />

<glyph glyph-name="lifebuoy" unicode="&#xe941;" d="M500 875c-276 0-500-224-500-500s224-500 500-500 500 224 500 500-224 500-500 500z m-187-500c0 104 83 188 187 188s188-84 188-188-84-187-188-187-187 83-187 187z m591-167v0l-173 71c12 30 19 62 19 96s-7 66-19 96l173 72c22-52 34-109 34-168s-12-116-34-167v0z m-236 571v0 0l-72-173c-30 12-62 19-96 19s-66-7-96-19l-71 173c51 22 108 34 167 34 59 0 116-12 168-34z m-572-236l173-72c-12-30-19-62-19-96s7-66 19-96l-173-71c-22 51-33 108-33 167s11 116 33 168z m237-572l71 173c30-12 62-19 96-19s66 7 96 19l72-173c-52-22-109-34-168-34-59 0-116 12-167 34z" horiz-adv-x="1000" />

<glyph glyph-name="phone" unicode="&#xe942;" d="M688 250c-63-62-63-125-125-125s-125 63-188 125-125 125-125 188 63 62 125 125-125 250-187 250-188-188-188-188c0-125 128-378 250-500s375-250 500-250c0 0 188 125 188 188s-188 250-250 187z" horiz-adv-x="1000" />

<glyph glyph-name="lifebuoy2" unicode="&#xe943;" d="M500 875c-276 0-500-224-500-500s224-500 500-500 500 224 500 500-224 500-500 500z m-187-500c0 104 83 188 187 188s188-84 188-188-84-187-188-187-187 83-187 187z m591-167v0l-173 71c12 30 19 62 19 96s-7 66-19 96l173 72c22-52 34-109 34-168s-12-116-34-167v0z m-236 571v0 0l-72-173c-30 12-62 19-96 19s-66-7-96-19l-71 173c51 22 108 34 167 34 59 0 116-12 168-34z m-572-236l173-72c-12-30-19-62-19-96s7-66 19-96l-173-71c-22 51-33 108-33 167s11 116 33 168z m237-572l71 173c30-12 62-19 96-19s66 7 96 19l72-173c-52-22-109-34-168-34-59 0-116 12-167 34z" horiz-adv-x="1000" />

<glyph glyph-name="phone2" unicode="&#xe944;" d="M688 250c-63-62-63-125-125-125s-125 63-188 125-125 125-125 188 63 62 125 125-125 250-187 250-188-188-188-188c0-125 128-378 250-500s375-250 500-250c0 0 188 125 188 188s-188 250-250 187z" horiz-adv-x="1000" />

<glyph glyph-name="Cinematic_Cycling" unicode="&#xe946;" d="M1255 405c-4 2-8 4-13 4-2 0-5-1-7-2l-227-86c-8-3-8-10-8-18v-219c0-8 0-15 7-18l230-86c0 0 1 0 2 0s2 0 3 0c5 0 10 1 15 4 4 3 11 9 11 15v390c0 7-7 13-13 16z m-500 18c0 0 0 0 0 0-87 0-160 59-181 139l-128 1c-22-81-95-140-181-142-58 1-108 27-142 67-1-2-1-4-1-7s0-5 0-8l0-508c0 0 0 0 0 0 0-50 41-90 91-90 0 0 1 0 2 0l622 0c0 0 1 0 1 0 47 0 86 38 86 86 0 1 0 3 0 4l0 508c0 15-4 29-9 41-33-55-93-91-160-91z m-491-76c-146 0-264 118-264 264s118 264 264 264c147 0 265-118 265-264s-118-264-265-264z m0 452c-103 0-188-85-188-188s85-188 188-188c104 0 188 84 188 188s-84 188-188 188z m491-452c-146 0-265 118-265 264s119 264 265 264c146 0 264-118 264-264s-118-264-264-264z m0 452c-104 0-188-85-188-188s84-188 188-188c104 0 188 84 188 188s-84 188-188 188z" horiz-adv-x="1267.6" />

<glyph glyph-name="location3" unicode="&#xe947;" d="M500 875c-173 0-312-140-312-312 0-313 312-688 312-688s313 375 313 688c0 172-140 312-313 312z m0-500c-104 0-187 84-187 188s83 187 187 187 188-84 188-187-84-188-188-188z" horiz-adv-x="1000" />

<glyph glyph-name="location2" unicode="&#xe948;" d="M500 875c-173 0-312-140-312-312 0-313 312-688 312-688s313 375 313 688c0 172-140 312-313 312z m0-504c-106 0-191 86-191 192s85 191 191 191 191-86 191-191-85-192-191-192z m-121 192c0 66 54 121 121 121s121-55 121-121c0-67-54-122-121-122s-121 55-121 122z" horiz-adv-x="1000" />

<glyph glyph-name="compass" unicode="&#xe949;" d="M531-125c-2 0-4 0-6 1-15 3-25 16-25 30v469h-469c-14 0-27 10-30 25-3 14 4 28 17 35l938 437c11 6 26 3 35-6 9-9 12-24 6-35l-437-938c-6-11-17-18-29-18z m-359 563h359c18 0 32-14 32-32v-359l341 732-732-341z" horiz-adv-x="1000" />

<glyph glyph-name="compass2" unicode="&#xe94a;" d="M531-125c-2 0-4 0-6 1-15 3-25 16-25 30v469h-469c-14 0-27 10-30 25-3 14 4 28 17 35l938 437c11 6 26 3 35-6 9-9 12-24 6-35l-437-938c-6-11-17-18-29-18z m-359 563h359c18 0 32-14 32-32v-359l341 732-732-341z" horiz-adv-x="1000" />

<glyph glyph-name="map" unicode="&#xe94b;" d="M0 688l313 125v-750l-313-126z m375 156l313-188v-719l-313 157z m375-188l250 188v-750l-250-188z" horiz-adv-x="1000" />

<glyph glyph-name="location22" unicode="&#xe94c;" d="M500 875c-173 0-312-140-312-312 0-313 312-688 312-688s313 375 313 688c0 172-140 312-313 312z m0-504c-106 0-191 86-191 192s85 191 191 191 191-86 191-191-85-192-191-192z m-121 192c0 66 54 121 121 121s121-55 121-121c0-67-54-122-121-122s-121 55-121 122z" horiz-adv-x="1000" />

<glyph glyph-name="location" unicode="&#xe94d;" d="M500 875c-173 0-312-140-312-312 0-313 312-688 312-688s313 375 313 688c0 172-140 312-313 312z m0-500c-104 0-187 84-187 188s83 187 187 187 188-84 188-187-84-188-188-188z" horiz-adv-x="1000" />

<glyph glyph-name="clock" unicode="&#xe94e;" d="M643 143l-205 206v276h125v-224l169-169z m-143 732c-276 0-500-224-500-500s224-500 500-500 500 224 500 500-224 500-500 500z m0-875c-207 0-375 168-375 375s168 375 375 375c207 0 375-168 375-375s-168-375-375-375z" horiz-adv-x="1000" />

<glyph glyph-name="clock2" unicode="&#xe94f;" d="M500 875c-276 0-500-224-500-500s224-500 500-500 500 224 500 500-224 500-500 500z m143-732l-205 206v276h125v-224l169-169-89-89z" horiz-adv-x="1000" />

<glyph glyph-name="clock22" unicode="&#xe950;" d="M500 875c-276 0-500-224-500-500s224-500 500-500 500 224 500 500-224 500-500 500z m143-732l-205 206v276h125v-224l169-169-89-89z" horiz-adv-x="1000" />

<glyph glyph-name="clock23" unicode="&#xe951;" d="M500 875c-276 0-500-224-500-500s224-500 500-500 500 224 500 500-224 500-500 500z m143-732l-205 206v276h125v-224l169-169-89-89z" horiz-adv-x="1000" />

<glyph glyph-name="clock3" unicode="&#xe952;" d="M643 143l-205 206v276h125v-224l169-169z m-143 732c-276 0-500-224-500-500s224-500 500-500 500 224 500 500-224 500-500 500z m0-875c-207 0-375 168-375 375s168 375 375 375c207 0 375-168 375-375s-168-375-375-375z" horiz-adv-x="1000" />

<glyph glyph-name="clock24" unicode="&#xe953;" d="M500 875c-276 0-500-224-500-500s224-500 500-500 500 224 500 500-224 500-500 500z m143-732l-205 206v276h125v-224l169-169-89-89z" horiz-adv-x="1000" />

<glyph glyph-name="map2" unicode="&#xe954;" d="M0 688l313 125v-750l-313-126z m375 156l313-188v-719l-313 157z m375-188l250 188v-750l-250-188z" horiz-adv-x="1000" />

<glyph glyph-name="WiFi2" unicode="&#xe956;" d="M592-125l-22 10c-43 19-71 61-71 110 0 9 1 18 3 27 10 52 56 92 112 92 59 0 108-45 114-103 1-5 1-10 1-16 0-52-33-96-79-113l-17-7h-41z m638 653c-8-16-15-30-25-43-17-21-38-41-58-62-29-30-48-28-71 6-66 97-158 172-266 215-61 23-128 35-197 35-192 0-361-97-460-246-5-8-9-14-13-19-7-8-16-12-27-12-9 0-17 3-23 9-26 27-52 54-76 80-9 10-14 23-14 37 0 13 4 25 12 35 110 157 279 268 474 301 300 47 539-60 724-296 7-12 14-25 19-38z m-242-252c-7-16-15-30-24-42-19-23-41-45-63-68-7-10-18-16-30-16-15 0-27 8-33 20-38 54-94 94-159 109-22 6-45 9-68 9-86 0-162-40-211-102-7-7-12-15-18-22-6-8-16-14-27-14-11 0-20 5-26 12-25 25-49 49-72 75-10 10-16 24-16 39s6 29 16 39c84 103 211 169 353 169 12 0 24-1 36-1 131-8 248-73 325-170 7-11 13-23 17-36z" horiz-adv-x="1229.5" />

<glyph glyph-name="WiFi" unicode="&#xe957;" d="M592-125l-22 10c-43 19-71 61-71 110 0 9 1 18 3 27 10 52 56 92 112 92 59 0 108-45 114-103 1-5 1-10 1-16 0-52-33-96-79-113l-17-7h-41z m638 653c-8-16-15-30-25-43-17-21-38-41-58-62-29-30-48-28-71 6-66 97-158 172-266 215-61 23-128 35-197 35-192 0-361-97-460-246-5-8-9-14-13-19-7-8-16-12-27-12-9 0-17 3-23 9-26 27-52 54-76 80-9 10-14 23-14 37 0 13 4 25 12 35 110 157 279 268 474 301 300 47 539-60 724-296 7-12 14-25 19-38z m-242-252c-7-16-15-30-24-42-19-23-41-45-63-68-7-10-18-16-30-16-15 0-27 8-33 20-38 54-94 94-159 109-22 6-45 9-68 9-86 0-162-40-211-102-7-7-12-15-18-22-6-8-16-14-27-14-11 0-20 5-26 12-25 25-49 49-72 75-10 10-16 24-16 39s6 29 16 39c84 103 211 169 353 169 12 0 24-1 36-1 131-8 248-73 325-170 7-11 13-23 17-36z" horiz-adv-x="1229.5" />

<glyph glyph-name="Special_effects" unicode="&#xe959;" d="M526 46l-325-171 62 362-263 256 363 53 163 329 162-329 363-53-263-256 62-362-324 171z" horiz-adv-x="1051.8" />

<glyph glyph-name="glyph-8" unicode="&#xe95a;" d="M815 708c0-93-75-168-167-168s-168 75-168 168c0 92 75 167 168 167s167-75 167-167z" horiz-adv-x="1287.1" />

<glyph glyph-name="glyph-9" unicode="&#xe95b;" d="M977 170s-20 277-324 277h-10c-304 0-324-277-324-277 0-18-2-48-2-67v-193c0 0 0-1 0-2 0-16 12-30 29-32l603 0c17 2 29 16 29 32 0 1 0 2 0 2l0 193c2 19 1 49-1 67z" horiz-adv-x="1287.1" />

<glyph glyph-name="glyph-10" unicode="&#xe95c;" d="M167 221c14 10 23 26 23 44 0 11-3 21-9 30-47 69-75 155-75 247 0 91 27 175 73 245 5 7 8 17 8 28 0 29-24 53-53 53-19 0-35-9-45-24-56-85-89-189-89-301 0-115 35-221 94-309 8-12 25-21 43-21 11 0 21 3 30 9z" horiz-adv-x="1287.1" />

<glyph glyph-name="glyph-11" unicode="&#xe95d;" d="M328 360c14 9 24 25 24 44 0 11-4 21-9 29-21 31-33 68-33 108s12 78 33 109c8 8 13 21 13 34 0 30-24 54-53 54-21 0-39-13-48-30-31-47-49-104-49-166 0-62 19-120 51-168 9-14 26-23 44-23 11 0 21 4 30 9z" horiz-adv-x="1287.1" />

<glyph glyph-name="glyph-12" unicode="&#xe95e;" d="M1150 212c0 0 0 0 0 0 19 0 35 10 44 24 59 86 94 193 94 307 0 112-33 216-90 303-9 12-25 22-44 22-29 0-53-24-53-53 0-11 3-21 9-30 45-68 72-153 72-243 0-92-28-178-76-249-5-7-8-17-8-28 0-30 24-53 53-53z" horiz-adv-x="1287.1" />

<glyph glyph-name="glyph-13" unicode="&#xe95f;" d="M989 350c0 0 0 0 0 0 18 0 35 10 44 24 32 47 51 105 51 168 0 61-18 118-50 166-8 17-26 29-47 29-29 0-53-24-53-53 0-14 5-26 13-36 21-30 33-67 33-107s-12-78-33-109c-5-8-9-18-9-29 0-29 24-53 54-53z" horiz-adv-x="1287.1" />

<glyph glyph-name="Real_time_data" unicode="&#xe960;" d="M172 705c11 7 23 14 35 20 3 22 6 47 8 71-30-10-56-23-79-39-149-98-179-301-73-461 7-10 13-20 21-29 6-6 14-11 24-11 17 0 32 14 32 32 0 7-3 14-7 19-6 8-12 16-17 24-86 131-62 295 56 374z m214 95c6-25 11-51 16-72 57-24 104-63 137-112 6-10 11-18 16-27 5-11 16-18 29-18 6 0 11 2 16 4l0 3c8 5 14 15 14 26 0 6-2 11-4 16-6 10-12 20-19 29-48 73-120 127-204 150z m-98-347l5 422 86-413v-5c0 0 0-1 0-1 0-25-21-46-46-46-22 0-41 17-44 38z m532 164h-108c-28 0-40-22-40-49v-693h197v693c0 0 0 0 0 0 0 27-22 49-49 49 0 0 0 0 0 0z m-296-320h-109c-27 0-39-23-39-50v-372h197v372c0 27-22 50-49 50z m-296-165h-108c-27 0-40-22-40-50v-207h197v207c0 28-22 50-49 50z" horiz-adv-x="869.1" />

<glyph glyph-name="Members" unicode="&#xe965;" d="M894 718c0-88-70-158-157-158s-158 70-158 158c0 87 71 157 158 157s157-70 157-157z m-424-60c0-87-71-157-158-157s-157 70-157 157c0 87 70 158 157 158s158-71 158-158z m152-505s-19 260-305 260h-9c-285 0-306-260-306-260 0-17-2-46-2-63v-183c0 0 0 0 0 0 0-17 13-30 29-32l567 0c16 2 29 15 29 32 0 0 0 0 0 0v183c0 17-1 46-3 63z m425 58s-20 260-306 260h-9c-3 0-6 0-9 0-52 0-101-12-144-32 143-69 155-228 155-228 0-17 3-46 3-63v-215h284c16 2 29 15 29 32 0 0 0 0 0 0v182c-1 19-2 48-3 64z" horiz-adv-x="1048.8" />

<glyph glyph-name="Films" unicode="&#xe96d;" d="M1529 199v85c-57 0-104 46-104 104s47 103 104 103v85c0 0-1 0-1 0-57 0-103 46-103 103 0 0 0 1 0 1 0 0 0 1 0 1 0 57 46 103 103 103 0 0 1 0 1 0l0 91h-1529v-91c0 0 1 0 1 0 57 0 103-46 103-103 0 0 0-1 0-1 0 0 0-1 0-1 0-57-46-103-103-103 0 0-1 0-1 0l0-85c0 0 1 0 1 0 57 0 103-46 103-103 0 0 0 0 0-1 0 0 0 0 0-1 0-56-46-102-103-102 0 0-1 0-1 0l0-85c0 0 1 0 1 0 57 0 103-46 103-102 0-1 0-1 0-2 0 0 0-1 0-1 0-57-46-103-103-103 0 0-1 0-1 0l0-116h1529v116c-54 4-97 49-97 104s43 100 97 103z m-174-250h-1171v838h1171z m-587 258l-187-99 35 209-152 148 210 31 94 190 94-190 210-31-152-148 36-209-188 99z" horiz-adv-x="1529.3" />

<glyph glyph-name="glyph-14" unicode="&#xe96e;" d="M1214 875h-1070c-79 0-144-64-144-143v-714c0-79 65-143 144-143h1070c0 0 1 0 1 0 79 0 143 64 143 143v714c0 79-64 143-143 143 0 0-1 0-1 0z" horiz-adv-x="1357.4" />

<glyph glyph-name="glyph-15" unicode="&#xe96f;" d="M272 345l59-13 45 70-86 22c-3 1-6 1-9 1-22 0-40-18-40-40 0-19 12-34 30-39z m778-10l-194-176-231 177c-4 3-9 6-15 7l-31 8-45-71 49-12 249-194c7-6 16-10 26-10s18 4 25 10l221 198c8 8 13 18 13 30 0 22-18 40-40 40-10 0-20-4-27-11z m-429 191l214-137c6-4 14-7 22-7 14 0 25 7 32 18l221 320c4 6 7 14 7 22 0 22-18 40-40 40-13 0-25-7-33-17l-198-287-215 138c-7 4-14 7-22 7-15 0-27-8-34-19l-328-516c-4-6-6-13-6-21 0-22 18-40 39-40 14 0 27 8 34 19z" horiz-adv-x="1357.4" />

<glyph glyph-name="user-tie" unicode="&#xe976;" d="M313 688c0 103 83 187 187 187s188-84 188-187c0-104-84-188-188-188s-187 84-187 188z m437-250h-34l-195-395 73 363-94 94-94-94 73-363-194 395h-35c-125 0-125-84-125-188v-313h750v313c0 104 0 188-125 188z" horiz-adv-x="1000" />

<glyph glyph-name="quotes-left" unicode="&#xe977;" d="M220 438c121 0 219-98 219-219 0-121-98-219-219-219s-219 98-219 219l-1 31c0 242 196 438 438 438v-125c-84 0-162-33-221-92-12-11-22-23-32-36 12 2 23 3 35 3z m562 0c121 0 219-98 219-219 0-121-98-219-219-219s-218 98-218 219l-1 31c0 242 195 438 437 438v-125c-83 0-162-33-221-92-11-11-22-23-31-36 11 2 23 3 34 3z" horiz-adv-x="1000" />

<glyph glyph-name="quotes-right" unicode="&#xe978;" d="M781 250c-121 0-218 98-218 219 0 121 97 219 218 219s219-98 219-219l1-31c0-242-196-438-437-438v125c83 0 161 33 220 92 12 11 22 23 32 36-12-2-23-3-35-3z m-562 0c-121 0-219 98-219 219 0 121 98 219 219 219s219-98 219-219l1-31c0-242-196-438-438-438v125c83 0 162 33 221 92 11 11 22 23 31 36-11-2-23-3-34-3z" horiz-adv-x="1000" />

<glyph glyph-name="quotes-right2" unicode="&#xe979;" d="M781 250c-121 0-218 98-218 219 0 121 97 219 218 219s219-98 219-219l1-31c0-242-196-438-437-438v125c83 0 161 33 220 92 12 11 22 23 32 36-12-2-23-3-35-3z m-562 0c-121 0-219 98-219 219 0 121 98 219 219 219s219-98 219-219l1-31c0-242-196-438-438-438v125c83 0 162 33 221 92 11 11 22 23 31 36-11-2-23-3-34-3z" horiz-adv-x="1000" />

<glyph glyph-name="quotes-left2" unicode="&#xe97a;" d="M220 438c121 0 219-98 219-219 0-121-98-219-219-219s-219 98-219 219l-1 31c0 242 196 438 438 438v-125c-84 0-162-33-221-92-12-11-22-23-32-36 12 2 23 3 35 3z m562 0c121 0 219-98 219-219 0-121-98-219-219-219s-218 98-218 219l-1 31c0 242 195 438 437 438v-125c-83 0-162-33-221-92-11-11-22-23-31-36 11 2 23 3 34 3z" horiz-adv-x="1000" />

<glyph glyph-name="user-tie2" unicode="&#xe97b;" d="M313 688c0 103 83 187 187 187s188-84 188-187c0-104-84-188-188-188s-187 84-187 188z m437-250h-34l-195-395 73 363-94 94-94-94 73-363-194 395h-35c-125 0-125-84-125-188v-313h750v313c0 104 0 188-125 188z" horiz-adv-x="1000" />

<glyph glyph-name="enlarge" unicode="&#xe989;" d="M1000 875h-406l156-156-187-188 93-93 188 187 156-156z m0-1000v406l-156-156-188 188-93-94 187-188-156-156z m-1000 0h406l-156 156 188 188-94 94-188-188-156 156z m0 1000v-406l156 156 188-187 94 93-188 188 156 156z" horiz-adv-x="1000" />

<glyph glyph-name="shrink" unicode="&#xe98a;" d="M563 438h406l-156 156 187 187-94 94-187-187-156 156z m0-125v-407l156 157 187-188 94 94-187 187 156 157z m-125 0h-407l157-157-188-187 94-94 187 188 157-157z m0 125v406l-157-156-187 187-94-94 188-187-157-156z" horiz-adv-x="1000" />

<glyph glyph-name="enlarge2" unicode="&#xe98b;" d="M1000 875v-406l-156 156-188-187-93 93 187 188-156 156z m-562-656l-188-188 156-156h-406v406l156-156 188 188z" horiz-adv-x="1000" />

<glyph glyph-name="shrink2" unicode="&#xe98c;" d="M438 313v-407l-157 157-187-188-94 94 188 187-157 157z m562 468l-187-187 156-156h-406v406l156-156 187 187z" horiz-adv-x="1000" />

<glyph glyph-name="enlarge22" unicode="&#xe98d;" d="M1000 875v-406l-156 156-188-187-93 93 187 188-156 156z m-562-656l-188-188 156-156h-406v406l156-156 188 188z" horiz-adv-x="1000" />

<glyph glyph-name="shrink3" unicode="&#xe98e;" d="M563 438h406l-156 156 187 187-94 94-187-187-156 156z m0-125v-407l156 157 187-188 94 94-187 187 156 157z m-125 0h-407l157-157-188-187 94-94 187 188 157-157z m0 125v406l-157-156-187 187-94-94 188-187-157-156z" horiz-adv-x="1000" />

<glyph glyph-name="lock" unicode="&#xe98f;" d="M578 438h-15v187c0 103-85 188-188 188h-125c-103 0-187-85-187-188v-187h-16c-26 0-47-22-47-47v-469c0-26 21-47 47-47h531c26 0 47 21 47 47v469c0 25-21 47-47 47z m-390 187c0 35 28 63 62 63h125c35 0 63-28 63-63v-187h-250v187z" horiz-adv-x="1000" />

<glyph glyph-name="unlocked" unicode="&#xe990;" d="M750 813c103 0 188-85 188-188v-187h-125v187c0 35-28 63-63 63h-125c-34 0-62-28-62-63v-187h15c26 0 47-22 47-47v-469c0-26-21-47-47-47h-531c-26 0-47 21-47 47v469c0 25 21 47 47 47h391v187c0 103 84 188 187 188h125z" horiz-adv-x="1000" />

<glyph glyph-name="lock4" unicode="&#xe991;" d="M578 438h-15v187c0 103-85 188-188 188h-125c-103 0-187-85-187-188v-187h-16c-26 0-47-22-47-47v-469c0-26 21-47 47-47h531c26 0 47 21 47 47v469c0 25-21 47-47 47z m-390 187c0 35 28 63 62 63h125c35 0 63-28 63-63v-187h-250v187z" horiz-adv-x="1000" />

<glyph glyph-name="equalizer" unicode="&#xe992;" d="M438 750v16c0 25-22 47-47 47h-157c-25 0-46-22-46-47v-16h-188v-125h188v-16c0-25 21-46 46-46h157c25 0 47 21 47 46v16h562v125h-562z m-188-125v125h125v-125h-125z m563-172c0 26-22 47-47 47h-157c-25 0-46-21-46-47v-15h-563v-125h563v-16c0-26 21-47 46-47h157c25 0 47 21 47 47v16h187v125h-187v15z m-188-140v125h125v-125h-125z m-187-172c0 25-22 47-47 47h-157c-25 0-46-22-46-47v-16h-188v-125h188v-16c0-25 21-47 46-47h157c25 0 47 22 47 47v16h562v125h-562v16z m-188-141v125h125v-125h-125z" horiz-adv-x="1000" />

<glyph glyph-name="equalizer2" unicode="&#xe993;" d="M875 438h16c25 0 47 21 47 46v157c0 25-22 47-47 47h-16v187h-125v-187h-16c-25 0-46-22-46-47v-157c0-25 21-46 46-46h16v-563h125v563z m-125 187h125v-125h-125v125z m-172-562c26 0 47 21 47 46v157c0 25-21 47-47 47h-15v562h-125v-562h-16c-26 0-47-22-47-47v-157c0-25 21-46 47-46h16v-188h125v188h15z m-140 187h125v-125h-125v125z m-172 188c25 0 47 21 47 46v157c0 25-22 47-47 47h-16v187h-125v-187h-16c-25 0-46-22-46-47v-157c0-25 21-46 46-46h16v-563h125v563h16z m-141 187h125v-125h-125v125z" horiz-adv-x="1000" />

<glyph glyph-name="cog" unicode="&#xe994;" d="M912 279c-53 91-21 207 70 260l-98 171c-28-17-61-26-95-26-105 0-191 85-191 191h-196c0-33-8-66-25-96-53-91-170-122-261-69l-98-170c28-16 52-40 70-70 52-91 21-207-70-260l98-170c28 16 61 25 95 25 105 0 190-85 190-190h197c0 32 8 65 25 95 53 91 169 122 260 69l99 171c-28 16-53 39-70 69z m-412-106c-112 0-202 90-202 202 0 112 90 203 202 203 112 0 203-91 203-203 0-112-91-202-203-202z" horiz-adv-x="1000" />

<glyph glyph-name="equalizer22" unicode="&#xe995;" d="M875 438h16c25 0 47 21 47 46v157c0 25-22 47-47 47h-16v187h-125v-187h-16c-25 0-46-22-46-47v-157c0-25 21-46 46-46h16v-563h125v563z m-125 187h125v-125h-125v125z m-172-562c26 0 47 21 47 46v157c0 25-21 47-47 47h-15v562h-125v-562h-16c-26 0-47-22-47-47v-157c0-25 21-46 47-46h16v-188h125v188h15z m-140 187h125v-125h-125v125z m-172 188c25 0 47 21 47 46v157c0 25-22 47-47 47h-16v187h-125v-187h-16c-25 0-46-22-46-47v-157c0-25 21-46 46-46h16v-563h125v563h16z m-141 187h125v-125h-125v125z" horiz-adv-x="1000" />

<glyph glyph-name="unlocked4" unicode="&#xe996;" d="M750 813c103 0 188-85 188-188v-187h-125v187c0 35-28 63-63 63h-125c-34 0-62-28-62-63v-187h15c26 0 47-22 47-47v-469c0-26-21-47-47-47h-531c-26 0-47 21-47 47v469c0 25 21 47 47 47h391v187c0 103 84 188 187 188h125z" horiz-adv-x="1000" />

<glyph glyph-name="unlocked2" unicode="&#xe997;" d="M750 813c103 0 188-85 188-188v-187h-125v187c0 35-28 63-63 63h-125c-34 0-62-28-62-63v-187h15c26 0 47-22 47-47v-469c0-26-21-47-47-47h-531c-26 0-47 21-47 47v469c0 25 21 47 47 47h391v187c0 103 84 188 187 188h125z" horiz-adv-x="1000" />

<glyph glyph-name="cog2" unicode="&#xe998;" d="M912 279c-53 91-21 207 70 260l-98 171c-28-17-61-26-95-26-105 0-191 85-191 191h-196c0-33-8-66-25-96-53-91-170-122-261-69l-98-170c28-16 52-40 70-70 52-91 21-207-70-260l98-170c28 16 61 25 95 25 105 0 190-85 190-190h197c0 32 8 65 25 95 53 91 169 122 260 69l99 171c-28 16-53 39-70 69z m-412-106c-112 0-202 90-202 202 0 112 90 203 202 203 112 0 203-91 203-203 0-112-91-202-203-202z" horiz-adv-x="1000" />

<glyph glyph-name="cogs" unicode="&#xe999;" d="M355 170l41 56-45 45-56-41c-11 6-22 11-34 14l-11 69h-62l-12-69c-12-3-23-8-33-14l-57 41-44-45 40-56c-6-11-10-22-14-34l-68-11v-62l68-12c4-12 8-23 14-33l-40-57 44-44 57 40c10-6 21-10 33-14l12-68h62l11 68c12 4 23 8 34 14l56-40 45 44-41 57c6 10 11 21 14 33l69 12v62l-69 11c-3 12-8 23-14 34z m-136-139c-35 0-63 28-63 63s28 62 63 62 62-28 62-62-28-63-62-63z m781 469v63l-66 12c-1 7-3 15-4 23l56 36-24 58-65-14c-5 6-9 13-14 19l38 55-44 44-55-38c-6 5-13 9-19 14l14 65-58 24-36-56c-8 1-16 3-23 4l-12 66h-63l-12-66c-8-1-16-3-23-4l-36 56-58-24 14-65c-7-5-13-9-20-14l-55 38-44-44 38-55c-4-6-9-13-13-19l-65 14-24-58 56-36c-2-8-3-16-5-23l-65-12v-63l65-12c2-8 3-16 5-23l-56-36 24-58 65 14c4-7 9-13 13-20l-38-55 44-44 55 38c7-4 13-9 20-13l-14-65 58-24 36 56c7-2 15-3 23-5l12-65h63l12 65c7 2 15 3 23 5l36-56 58 24-14 65c6 4 13 9 19 13l55-38 44 44-38 55c5 7 9 13 14 20l65-14 24 58-56 36c1 7 3 15 4 23l66 12z m-344-105c-75 0-136 61-136 136s61 136 136 136 136-61 136-136c0-75-61-136-136-136z" horiz-adv-x="1000" />

<glyph glyph-name="magic-wand" unicode="&#xe99a;" d="M250 688l-125 125h-62v-63l125-125z m63 187h62v-125h-62z m250-312h125v-63h-125z m62 187v63h-62l-125-125 62-63z m-625-187h125v-63h-125z m313-250h62v-125h-62z m-250 0v-63h62l125 125-62 63z m923-299l-621 621c-18 18-48 18-66 0l-59-59c-18-18-18-48 0-66l621-621c19-19 48-19 67 0l58 58c19 19 19 48 0 67z m-517 330l-188 187 63 63 187-188-62-62z" horiz-adv-x="1000" />

<glyph glyph-name="aid-kit" unicode="&#xe99b;" d="M875 625h-187v125c0 34-29 63-63 63h-250c-34 0-62-29-62-63v-125h-188c-69 0-125-56-125-125v-500c0-69 56-125 125-125h750c69 0 125 56 125 125v500c0 69-56 125-125 125z m-500 125h250v-125h-250v125z m375-562h-187v-188h-125v188h-188v125h188v187h125v-187h187v-125z" horiz-adv-x="1000" />

<glyph glyph-name="pie-chart" unicode="&#xe99c;" d="M438 313v437c-242 0-438-196-438-437s196-438 438-438 437 196 437 438c0 70-17 136-46 195l-391-195z m453 320c-71 144-220 242-391 242v-437l391 195z" horiz-adv-x="1000" />

<glyph glyph-name="stats-bars2" unicode="&#xe99d;" d="M281 500h-187c-17 0-31-14-31-31v-563c0-17 14-31 31-31h187c17 0 32 14 32 31v563c0 17-15 31-32 31z m0-563h-187v251h187v-251z m313 688h-188c-17 0-31-14-31-31v-688c0-17 14-31 31-31h188c17 0 31 14 31 31v688c0 17-14 31-31 31z m0-688h-188v313h188v-313z m312 813h-187c-17 0-31-14-31-31v-813c0-17 14-31 31-31h187c17 0 32 14 32 31v813c0 17-15 31-32 31z m0-813h-187v376h187v-376z" horiz-adv-x="1000" />

<glyph glyph-name="trophy" unicode="&#xe99e;" d="M813 688v125h-625v-125h-188v-125c0-104 84-188 188-188 19 0 38 3 56 9 45-65 114-111 194-128v-193h-63c-69 0-125-56-125-126h500c0 70-56 126-125 126h-62v193c79 17 148 63 193 128 18-6 37-9 57-9 103 0 187 84 187 188v125h-187z m-625-239c-63 0-114 51-114 114v62h114v-62c0-40 7-77 20-112-7-1-13-2-20-2z m738 114c0-63-51-114-113-114-7 0-14 1-21 2 13 35 21 72 21 112v62h113v-62z" horiz-adv-x="1000" />

<glyph glyph-name="trophy4" unicode="&#xe99f;" d="M813 688v125h-625v-125h-188v-125c0-104 84-188 188-188 19 0 38 3 56 9 45-65 114-111 194-128v-193h-63c-69 0-125-56-125-126h500c0 70-56 126-125 126h-62v193c79 17 148 63 193 128 18-6 37-9 57-9 103 0 187 84 187 188v125h-187z m-625-239c-63 0-114 51-114 114v62h114v-62c0-40 7-77 20-112-7-1-13-2-20-2z m738 114c0-63-51-114-113-114-7 0-14 1-21 2 13 35 21 72 21 112v62h113v-62z" horiz-adv-x="1000" />

<glyph glyph-name="stats-dots" unicode="&#xe9a0;" d="M125 0h875v-125h-1000v1000h125z m156 63c-51 0-93 42-93 93s42 94 93 94c3 0 6 0 8 0l101 168c-9 14-15 32-15 51 0 52 42 94 94 94s94-42 94-94c0-19-6-37-16-51l101-168c3 0 6 0 8 0 2 0 4 0 7 0l166 291c-10 15-16 33-16 53 0 52 42 94 93 94s94-42 94-94c0-52-42-94-94-94-2 0-4 0-6 0l-166-291c10-15 16-33 16-53 0-51-42-93-94-93s-93 42-93 93c0 19 5 37 15 51l-101 168c-3 0-5 0-8 0s-6 0-8 0l-101-168c9-14 15-32 15-51 0-51-42-93-94-93z" horiz-adv-x="1000" />

<glyph glyph-name="stats-bars" unicode="&#xe9a1;" d="M0 63h1000v-126h-1000z m125 250h125v-188h-125z m188 250h125v-438h-125z m187-188h125v-250h-125z m188 375h125v-625h-125z" horiz-adv-x="1000" />

<glyph glyph-name="stats-bars22" unicode="&#xe9a2;" d="M281 500h-187c-17 0-31-14-31-31v-563c0-17 14-31 31-31h187c17 0 32 14 32 31v563c0 17-15 31-32 31z m0-563h-187v251h187v-251z m313 688h-188c-17 0-31-14-31-31v-688c0-17 14-31 31-31h188c17 0 31 14 31 31v688c0 17-14 31-31 31z m0-688h-188v313h188v-313z m312 813h-187c-17 0-31-14-31-31v-813c0-17 14-31 31-31h187c17 0 32 14 32 31v813c0 17-15 31-32 31z m0-813h-187v376h187v-376z" horiz-adv-x="1000" />

<glyph glyph-name="trophy2" unicode="&#xe9a3;" d="M813 688v125h-625v-125h-188v-125c0-104 84-188 188-188 19 0 38 3 56 9 45-65 114-111 194-128v-193h-63c-69 0-125-56-125-126h500c0 70-56 126-125 126h-62v193c79 17 148 63 193 128 18-6 37-9 57-9 103 0 187 84 187 188v125h-187z m-625-239c-63 0-114 51-114 114v62h114v-62c0-40 7-77 20-112-7-1-13-2-20-2z m738 114c0-63-51-114-113-114-7 0-14 1-21 2 13 35 21 72 21 112v62h113v-62z" horiz-adv-x="1000" />

<glyph glyph-name="lock2" unicode="&#xe9a4;" d="M578 438h-15v187c0 103-85 188-188 188h-125c-103 0-187-85-187-188v-187h-16c-26 0-47-22-47-47v-469c0-26 21-47 47-47h531c26 0 47 21 47 47v469c0 25-21 47-47 47z m-390 187c0 35 28 63 62 63h125c35 0 63-28 63-63v-187h-250v187z" horiz-adv-x="1000" />

<glyph glyph-name="lock3" unicode="&#xe9a5;" d="M578 438h-15v187c0 103-85 188-188 188h-125c-103 0-187-85-187-188v-187h-16c-26 0-47-22-47-47v-469c0-26 21-47 47-47h531c26 0 47 21 47 47v469c0 25-21 47-47 47z m-390 187c0 35 28 63 62 63h125c35 0 63-28 63-63v-187h-250v187z" horiz-adv-x="1000" />

<glyph glyph-name="meter" unicode="&#xe9a6;" d="M500 813c276 0 500-224 500-500 0-189-104-353-258-438h-484c-154 85-258 249-258 438 0 276 224 500 500 500z m283-784c76 76 117 177 117 284h-87v62h83c-7 44-21 86-42 125h-104v63h63c-9 11-19 22-30 33-45 45-99 78-158 97v-68h-62v83c-21 3-42 5-63 5s-42-2-62-5v-83h-63v68c-59-19-113-52-158-97-11-11-21-22-30-33h63v-63h-104c-21-39-35-81-41-125h83v-62h-88c0-107 41-208 117-284 10-10 21-20 33-29h188l35 500h54l36-500h187c12 9 23 19 33 29z" horiz-adv-x="1000" />

<glyph glyph-name="unlocked3" unicode="&#xe9a7;" d="M750 813c103 0 188-85 188-188v-187h-125v187c0 35-28 63-63 63h-125c-34 0-62-28-62-63v-187h15c26 0 47-22 47-47v-469c0-26-21-47-47-47h-531c-26 0-47 21-47 47v469c0 25 21 47 47 47h391v187c0 103 84 188 187 188h125z" horiz-adv-x="1000" />

<glyph glyph-name="equalizer23" unicode="&#xe9a8;" d="M875 438h16c25 0 47 21 47 46v157c0 25-22 47-47 47h-16v187h-125v-187h-16c-25 0-46-22-46-47v-157c0-25 21-46 46-46h16v-563h125v563z m-125 187h125v-125h-125v125z m-172-562c26 0 47 21 47 46v157c0 25-21 47-47 47h-15v562h-125v-562h-16c-26 0-47-22-47-47v-157c0-25 21-46 47-46h16v-188h125v188h15z m-140 187h125v-125h-125v125z m-172 188c25 0 47 21 47 46v157c0 25-22 47-47 47h-16v187h-125v-187h-16c-25 0-46-22-46-47v-157c0-25 21-46 46-46h16v-563h125v563h16z m-141 187h125v-125h-125v125z" horiz-adv-x="1000" />

<glyph glyph-name="fire" unicode="&#xe9a9;" d="M314-125c-67 139-32 218 20 293 56 82 70 163 70 163s44-57 27-147c78 87 92 225 80 278 177-123 252-389 150-587 540 305 135 762 64 813 24-51 28-138-20-180-80 305-279 367-279 367 24-157-85-329-190-458-4 63-8 106-41 166-7-114-94-206-118-321-31-154 24-267 237-387z" horiz-adv-x="1000" />

<glyph glyph-name="cog3" unicode="&#xe9aa;" d="M912 279c-53 91-21 207 70 260l-98 171c-28-17-61-26-95-26-105 0-191 85-191 191h-196c0-33-8-66-25-96-53-91-170-122-261-69l-98-170c28-16 52-40 70-70 52-91 21-207-70-260l98-170c28 16 61 25 95 25 105 0 190-85 190-190h197c0 32 8 65 25 95 53 91 169 122 260 69l99 171c-28 16-53 39-70 69z m-412-106c-112 0-202 90-202 202 0 112 90 203 202 203 112 0 203-91 203-203 0-112-91-202-203-202z" horiz-adv-x="1000" />

<glyph glyph-name="trophy3" unicode="&#xe9ab;" d="M813 688v125h-625v-125h-188v-125c0-104 84-188 188-188 19 0 38 3 56 9 45-65 114-111 194-128v-193h-63c-69 0-125-56-125-126h500c0 70-56 126-125 126h-62v193c79 17 148 63 193 128 18-6 37-9 57-9 103 0 187 84 187 188v125h-187z m-625-239c-63 0-114 51-114 114v62h114v-62c0-40 7-77 20-112-7-1-13-2-20-2z m738 114c0-63-51-114-113-114-7 0-14 1-21 2 13 35 21 72 21 112v62h113v-62z" horiz-adv-x="1000" />

<glyph glyph-name="bin" unicode="&#xe9ac;" d="M125 563v-626c0-34 28-62 63-62h562c34 0 63 28 63 62v626h-688z m188-563h-63v438h63v-438z m125 0h-63v438h63v-438z m125 0h-63v438h63v-438z m125 0h-63v438h63v-438z m140 750h-203v78c0 26-21 47-47 47h-219c-25 0-46-21-46-47v-78h-204c-25 0-46-21-46-47v-78h812v78c0 26-21 47-47 47z m-265 0h-188v62h188v-62z" horiz-adv-x="1000" />

<glyph glyph-name="meter2" unicode="&#xe9ad;" d="M500 813c276 0 500-224 500-500 0-189-104-353-258-438h-484c-154 85-258 249-258 438 0 276 224 500 500 500z m283-784c76 76 117 177 117 284h-87v62h83c-7 44-21 86-42 125h-104v63h63c-9 11-19 22-30 33-45 45-99 78-158 97v-68h-62v83c-21 3-42 5-63 5s-42-2-62-5v-83h-63v68c-59-19-113-52-158-97-11-11-21-22-30-33h63v-63h-104c-21-39-35-81-41-125h83v-62h-88c0-107 41-208 117-284 10-10 21-20 33-29h188l35 500h54l36-500h187c12 9 23 19 33 29z" horiz-adv-x="1000" />

<glyph glyph-name="briefcase" unicode="&#xe9ae;" d="M938 625h-250v63c0 34-29 62-63 62h-250c-34 0-62-28-62-62v-63h-250c-35 0-63-28-63-62v-563c0-34 28-63 63-63h875c34 0 62 29 62 63v563c0 34-28 62-62 62z m-563 62c0 0 0 1 0 1h250c0 0 0-1 0-1v-62h-250v62z m563-312h-125v-94c0-17-15-31-32-31h-62c-17 0-31 14-31 31v94h-375v-94c0-17-15-31-32-31h-62c-17 0-31 14-31 31v94h-125v63h875v-63z" horiz-adv-x="1000" />

<glyph glyph-name="briefcase2" unicode="&#xe9af;" d="M938 625h-250v63c0 34-29 62-63 62h-250c-34 0-62-28-62-62v-63h-250c-35 0-63-28-63-62v-563c0-34 28-63 63-63h875c34 0 62 29 62 63v563c0 34-28 62-62 62z m-563 62c0 0 0 1 0 1h250c0 0 0-1 0-1v-62h-250v62z m563-312h-125v-94c0-17-15-31-32-31h-62c-17 0-31 14-31 31v94h-375v-94c0-17-15-31-32-31h-62c-17 0-31 14-31 31v94h-125v63h875v-63z" horiz-adv-x="1000" />

<glyph glyph-name="bin2" unicode="&#xe9b0;" d="M125 563v-626c0-34 28-62 63-62h562c34 0 63 28 63 62v626h-688z m188-563h-63v438h63v-438z m125 0h-63v438h63v-438z m125 0h-63v438h63v-438z m125 0h-63v438h63v-438z m140 750h-203v78c0 26-21 47-47 47h-219c-25 0-46-21-46-47v-78h-204c-25 0-46-21-46-47v-78h812v78c0 26-21 47-47 47z m-265 0h-188v62h188v-62z" horiz-adv-x="1000" />

<glyph glyph-name="fire2" unicode="&#xe9b1;" d="M314-125c-67 139-32 218 20 293 56 82 70 163 70 163s44-57 27-147c78 87 92 225 80 278 177-123 252-389 150-587 540 305 135 762 64 813 24-51 28-138-20-180-80 305-279 367-279 367 24-157-85-329-190-458-4 63-8 106-41 166-7-114-94-206-118-321-31-154 24-267 237-387z" horiz-adv-x="1000" />

<glyph glyph-name="stats-dots2" unicode="&#xe9b2;" d="M125 0h875v-125h-1000v1000h125z m156 63c-51 0-93 42-93 93s42 94 93 94c3 0 6 0 8 0l101 168c-9 14-15 32-15 51 0 52 42 94 94 94s94-42 94-94c0-19-6-37-16-51l101-168c3 0 6 0 8 0 2 0 4 0 7 0l166 291c-10 15-16 33-16 53 0 52 42 94 93 94s94-42 94-94c0-52-42-94-94-94-2 0-4 0-6 0l-166-291c10-15 16-33 16-53 0-51-42-93-94-93s-93 42-93 93c0 19 5 37 15 51l-101 168c-3 0-5 0-8 0s-6 0-8 0l-101-168c9-14 15-32 15-51 0-51-42-93-94-93z" horiz-adv-x="1000" />

<glyph glyph-name="target" unicode="&#xe9b3;" d="M1000 438h-99c-27 174-164 311-338 338v99h-125v-99c-175-27-312-164-339-338h-99v-125h99c27-175 164-312 339-339v-99h125v99c174 27 311 164 338 339h99v125z m-226 0h-97c-19 53-61 95-114 114v97c105-24 187-106 211-211z m-274-125c-34 0-62 28-62 62s28 63 62 63c35 0 63-28 63-63s-28-62-63-62z m-62 336v-97c-54-19-96-61-115-114h-97c24 105 107 187 212 211z m-212-336h97c19-54 61-96 115-115v-97c-105 24-188 107-212 212z m337-212v97c53 19 95 61 114 115h97c-24-105-106-188-211-212z" horiz-adv-x="1000" />

<glyph glyph-name="shield" unicode="&#xe9b4;" d="M938 875l-438-125-437 125c0 0-5-50 0-125l437-137 438 137c4 75 0 125 0 125z m-867-190c23-245 110-657 429-810 319 153 406 565 430 810l-430-162-429 162z" horiz-adv-x="1000" />

<glyph glyph-name="power" unicode="&#xe9b5;" d="M375 875l-375-500h375l-250-500 875 625h-500l375 375z" horiz-adv-x="1000" />

<glyph glyph-name="power3" unicode="&#xe9b6;" d="M375 875l-375-500h375l-250-500 875 625h-500l375 375z" horiz-adv-x="1000" />

<glyph glyph-name="power2" unicode="&#xe9b7;" d="M375 875l-375-500h375l-250-500 875 625h-500l375 375z" horiz-adv-x="1000" />

<glyph glyph-name="target2" unicode="&#xe9b8;" d="M1000 438h-99c-27 174-164 311-338 338v99h-125v-99c-175-27-312-164-339-338h-99v-125h99c27-175 164-312 339-339v-99h125v99c174 27 311 164 338 339h99v125z m-226 0h-97c-19 53-61 95-114 114v97c105-24 187-106 211-211z m-274-125c-34 0-62 28-62 62s28 63 62 63c35 0 63-28 63-63s-28-62-63-62z m-62 336v-97c-54-19-96-61-115-114h-97c24 105 107 187 212 211z m-212-336h97c19-54 61-96 115-115v-97c-105 24-188 107-212 212z m337-212v97c53 19 95 61 114 115h97c-24-105-106-188-211-212z" horiz-adv-x="1000" />

<glyph glyph-name="power4" unicode="&#xe9b9;" d="M375 875l-375-500h375l-250-500 875 625h-500l375 375z" horiz-adv-x="1000" />

<glyph glyph-name="shield2" unicode="&#xe9ba;" d="M938 875l-438-125-437 125c0 0-5-50 0-125l437-137 438 137c4 75 0 125 0 125z m-867-190c23-245 110-657 429-810 319 153 406 565 430 810l-430-162-429 162z" horiz-adv-x="1000" />

<glyph glyph-name="pie-chart2" unicode="&#xe9bb;" d="M438 313v437c-242 0-438-196-438-437s196-438 438-438 437 196 437 438c0 70-17 136-46 195l-391-195z m453 320c-71 144-220 242-391 242v-437l391 195z" horiz-adv-x="1000" />

<glyph glyph-name="aid-kit2" unicode="&#xe9bc;" d="M875 625h-187v125c0 34-29 63-63 63h-250c-34 0-62-29-62-63v-125h-188c-69 0-125-56-125-125v-500c0-69 56-125 125-125h750c69 0 125 56 125 125v500c0 69-56 125-125 125z m-500 125h250v-125h-250v125z m375-562h-187v-188h-125v188h-188v125h188v187h125v-187h187v-125z" horiz-adv-x="1000" />

<glyph glyph-name="menu" unicode="&#xe9bd;" d="M63 688h875v-188h-875z m0-250h875v-188h-875z m0-250h875v-188h-875z" horiz-adv-x="1000" />

<glyph glyph-name="menu2" unicode="&#xe9be;" d="M0 688h875v-188h-875v188z m0-250h875v-188h-875v188z m0-250h875v-188h-875v188z m969 125l187-188 188 188z m375 62l-188 188-187-188z" horiz-adv-x="1375" />

<glyph glyph-name="menu3" unicode="&#xe9bf;" d="M0 688h875v-188h-875v188z m0-250h875v-188h-875v188z m0-250h875v-188h-875v188z m969 250l187-188 188 188z" horiz-adv-x="1375" />

<glyph glyph-name="menu4" unicode="&#xe9c0;" d="M0 688h875v-188h-875v188z m0-250h875v-188h-875v188z m0-250h875v-188h-875v188z m969 62l187 188 188-188z" horiz-adv-x="1375" />

<glyph glyph-name="menu5" unicode="&#xe9c1;" d="M63 688h875v-188h-875z m0-250h875v-188h-875z m0-250h875v-188h-875z" horiz-adv-x="1000" />

<glyph glyph-name="magic-wand2" unicode="&#xe9c2;" d="M250 688l-125 125h-62v-63l125-125z m63 187h62v-125h-62z m250-312h125v-63h-125z m62 187v63h-62l-125-125 62-63z m-625-187h125v-63h-125z m313-250h62v-125h-62z m-250 0v-63h62l125 125-62 63z m923-299l-621 621c-18 18-48 18-66 0l-59-59c-18-18-18-48 0-66l621-621c19-19 48-19 67 0l58 58c19 19 19 48 0 67z m-517 330l-188 187 63 63 187-188-62-62z" horiz-adv-x="1000" />

<glyph glyph-name="cogs2" unicode="&#xe9c3;" d="M355 170l41 56-45 45-56-41c-11 6-22 11-34 14l-11 69h-62l-12-69c-12-3-23-8-33-14l-57 41-44-45 40-56c-6-11-10-22-14-34l-68-11v-62l68-12c4-12 8-23 14-33l-40-57 44-44 57 40c10-6 21-10 33-14l12-68h62l11 68c12 4 23 8 34 14l56-40 45 44-41 57c6 10 11 21 14 33l69 12v62l-69 11c-3 12-8 23-14 34z m-136-139c-35 0-63 28-63 63s28 62 63 62 62-28 62-62-28-63-62-63z m781 469v63l-66 12c-1 7-3 15-4 23l56 36-24 58-65-14c-5 6-9 13-14 19l38 55-44 44-55-38c-6 5-13 9-19 14l14 65-58 24-36-56c-8 1-16 3-23 4l-12 66h-63l-12-66c-8-1-16-3-23-4l-36 56-58-24 14-65c-7-5-13-9-20-14l-55 38-44-44 38-55c-4-6-9-13-13-19l-65 14-24-58 56-36c-2-8-3-16-5-23l-65-12v-63l65-12c2-8 3-16 5-23l-56-36 24-58 65 14c4-7 9-13 13-20l-38-55 44-44 55 38c7-4 13-9 20-13l-14-65 58-24 36 56c7-2 15-3 23-5l12-65h63l12 65c7 2 15 3 23 5l36-56 58 24-14 65c6 4 13 9 19 13l55-38 44 44-38 55c5 7 9 13 14 20l65-14 24 58-56 36c1 7 3 15 4 23l66 12z m-344-105c-75 0-136 61-136 136s61 136 136 136 136-61 136-136c0-75-61-136-136-136z" horiz-adv-x="1000" />

<glyph glyph-name="cog4" unicode="&#xe9c4;" d="M912 279c-53 91-21 207 70 260l-98 171c-28-17-61-26-95-26-105 0-191 85-191 191h-196c0-33-8-66-25-96-53-91-170-122-261-69l-98-170c28-16 52-40 70-70 52-91 21-207-70-260l98-170c28 16 61 25 95 25 105 0 190-85 190-190h197c0 32 8 65 25 95 53 91 169 122 260 69l99 171c-28 16-53 39-70 69z m-412-106c-112 0-202 90-202 202 0 112 90 203 202 203 112 0 203-91 203-203 0-112-91-202-203-202z" horiz-adv-x="1000" />

<glyph glyph-name="equalizer24" unicode="&#xe9c5;" d="M875 438h16c25 0 47 21 47 46v157c0 25-22 47-47 47h-16v187h-125v-187h-16c-25 0-46-22-46-47v-157c0-25 21-46 46-46h16v-563h125v563z m-125 187h125v-125h-125v125z m-172-562c26 0 47 21 47 46v157c0 25-21 47-47 47h-15v562h-125v-562h-16c-26 0-47-22-47-47v-157c0-25 21-46 47-46h16v-188h125v188h15z m-140 187h125v-125h-125v125z m-172 188c25 0 47 21 47 46v157c0 25-22 47-47 47h-16v187h-125v-187h-16c-25 0-46-22-46-47v-157c0-25 21-46 46-46h16v-563h125v563h16z m-141 187h125v-125h-125v125z" horiz-adv-x="1000" />

<glyph glyph-name="equalizer3" unicode="&#xe9c6;" d="M438 750v16c0 25-22 47-47 47h-157c-25 0-46-22-46-47v-16h-188v-125h188v-16c0-25 21-46 46-46h157c25 0 47 21 47 46v16h562v125h-562z m-188-125v125h125v-125h-125z m563-172c0 26-22 47-47 47h-157c-25 0-46-21-46-47v-15h-563v-125h563v-16c0-26 21-47 46-47h157c25 0 47 21 47 47v16h187v125h-187v15z m-188-140v125h125v-125h-125z m-187-172c0 25-22 47-47 47h-157c-25 0-46-22-46-47v-16h-188v-125h188v-16c0-25 21-47 46-47h157c25 0 47 22 47 47v16h562v125h-562v16z m-188-141v125h125v-125h-125z" horiz-adv-x="1000" />

<glyph glyph-name="enlarge3" unicode="&#xe9c7;" d="M1000 875h-406l156-156-187-188 93-93 188 187 156-156z m0-1000v406l-156-156-188 188-93-94 187-188-156-156z m-1000 0h406l-156 156 188 188-94 94-188-188-156 156z m0 1000v-406l156 156 188-187 94 93-188 188 156 156z" horiz-adv-x="1000" />

<glyph glyph-name="menu32" unicode="&#xe9c8;" d="M0 688h875v-188h-875v188z m0-250h875v-188h-875v188z m0-250h875v-188h-875v188z m969 250l187-188 188 188z" horiz-adv-x="1375" />

<glyph glyph-name="sphere" unicode="&#xe9c9;" d="M469 813c-259 0-469-210-469-469 0-259 210-469 469-469 259 0 469 210 469 469 0 259-210 469-469 469z m265-625c8 39 14 81 15 125h125c-3-44-13-86-30-125h-110z m-530 312c-9-39-14-81-16-125h-124c3 43 13 85 30 125h110z m466 0c9-40 15-82 17-125h-187v125h170z m-170 63v182c14-4 28-11 42-20 26-19 51-47 72-82 15-24 27-51 38-80h-152z m-176 80c21 35 45 63 71 82 14 9 28 16 43 20v-182h-152c10 29 23 56 38 80z m114-143v-125h-187c2 43 7 85 17 125h170z m-344-312c-17 39-27 81-30 125h124c2-44 7-86 16-125h-110z m157 125h187v-125h-170c-10 40-15 81-17 125z m187-188v-183c-15 4-29 11-43 21-26 18-50 46-71 81-15 25-28 52-38 81h152z m176-81c-21-35-46-63-72-81-14-10-28-17-42-21v183h152c-11-29-23-56-38-81z m-114 144v125h187c-2-44-8-85-17-125h-170z m249 187c-1 44-7 86-15 125h110c17-40 27-82 30-125h-125z m62 188h-93c-19 57-44 107-74 147 42-19 79-46 112-79 21-21 39-44 55-68z m-629 68c32 33 70 60 112 79-31-40-56-90-74-147h-94c16 24 35 47 56 68z m-56-506h94c18-57 43-108 74-148-42 20-80 47-112 80-21 21-40 43-56 68z m630-68c-33-33-70-60-112-80 30 40 55 91 74 148h93c-16-25-34-47-55-68z" horiz-adv-x="1000" />

<glyph glyph-name="sphere2" unicode="&#xe9ca;" d="M469 813c-259 0-469-210-469-469 0-259 210-469 469-469 259 0 469 210 469 469 0 259-210 469-469 469z m265-625c8 39 14 81 15 125h125c-3-44-13-86-30-125h-110z m-530 312c-9-39-14-81-16-125h-124c3 43 13 85 30 125h110z m466 0c9-40 15-82 17-125h-187v125h170z m-170 63v182c14-4 28-11 42-20 26-19 51-47 72-82 15-24 27-51 38-80h-152z m-176 80c21 35 45 63 71 82 14 9 28 16 43 20v-182h-152c10 29 23 56 38 80z m114-143v-125h-187c2 43 7 85 17 125h170z m-344-312c-17 39-27 81-30 125h124c2-44 7-86 16-125h-110z m157 125h187v-125h-170c-10 40-15 81-17 125z m187-188v-183c-15 4-29 11-43 21-26 18-50 46-71 81-15 25-28 52-38 81h152z m176-81c-21-35-46-63-72-81-14-10-28-17-42-21v183h152c-11-29-23-56-38-81z m-114 144v125h187c-2-44-8-85-17-125h-170z m249 187c-1 44-7 86-15 125h110c17-40 27-82 30-125h-125z m62 188h-93c-19 57-44 107-74 147 42-19 79-46 112-79 21-21 39-44 55-68z m-629 68c32 33 70 60 112 79-31-40-56-90-74-147h-94c16 24 35 47 56 68z m-56-506h94c18-57 43-108 74-148-42 20-80 47-112 80-21 21-40 43-56 68z m630-68c-33-33-70-60-112-80 30 40 55 91 74 148h93c-16-25-34-47-55-68z" horiz-adv-x="1000" />

<glyph glyph-name="earth" unicode="&#xe9cb;" d="M500 875c-276 0-500-224-500-500s224-500 500-500 500 224 500 500-224 500-500 500z m0-938c-61 0-120 13-173 36l228 256c5 6 8 13 8 21v94c0 17-14 31-32 31-110 0-226 115-228 116-5 6-13 9-22 9h-125c-17 0-31-14-31-31v-188c0-12 7-22 17-28l108-54v-183c-113 79-187 210-187 359 0 67 15 131 42 188h114c8 0 16 3 22 9l125 125c6 6 9 14 9 22v75c40 12 82 19 125 19 69 0 134-16 192-45-4-3-8-7-12-10-35-36-55-83-55-133s20-97 55-133c36-35 83-54 132-54 4 0 7 0 10 0 13-51 38-183-8-364-1-2-1-3-1-5-80-81-190-132-313-132z" horiz-adv-x="1000" />

<glyph glyph-name="flag" unicode="&#xe9cc;" d="M0 875h125v-1000h-125v1000z m813-628c80 0 150 20 187 48v500c-37-28-107-48-187-48s-151 20-188 48v-500c37-28 107-48 188-48z m-219 596c-46 20-113 32-188 32-94 0-176-19-218-48v-500c42 29 124 48 218 48 75 0 142-12 188-32v500z" horiz-adv-x="1000" />

<glyph glyph-name="earth2" unicode="&#xe9cd;" d="M500 875c-276 0-500-224-500-500s224-500 500-500 500 224 500 500-224 500-500 500z m0-938c-61 0-120 13-173 36l228 256c5 6 8 13 8 21v94c0 17-14 31-32 31-110 0-226 115-228 116-5 6-13 9-22 9h-125c-17 0-31-14-31-31v-188c0-12 7-22 17-28l108-54v-183c-113 79-187 210-187 359 0 67 15 131 42 188h114c8 0 16 3 22 9l125 125c6 6 9 14 9 22v75c40 12 82 19 125 19 69 0 134-16 192-45-4-3-8-7-12-10-35-36-55-83-55-133s20-97 55-133c36-35 83-54 132-54 4 0 7 0 10 0 13-51 38-183-8-364-1-2-1-3-1-5-80-81-190-132-313-132z" horiz-adv-x="1000" />

<glyph glyph-name="eye-1" unicode="&#xe9ce;" d="M500 688c-218 0-407-127-500-313 93-185 282-312 500-312 218 0 407 127 500 312-93 186-282 313-500 313z m247-166c58-38 108-88 146-147-38-59-88-109-146-147-74-47-159-72-247-72-87 0-173 25-246 72-59 38-109 88-146 147 37 59 87 109 146 147 3 2 7 5 11 7-10-27-15-56-15-86 0-138 112-250 250-250 138 0 250 112 250 250 0 30-5 59-15 86 4-2 8-5 12-7v0z m-247-53c0-52-42-94-94-94s-93 42-93 94 42 94 93 94 94-42 94-94z" horiz-adv-x="1000" />

<glyph glyph-name="eye-plus" unicode="&#xe9cf;" d="M1000 750h-125v125h-125v-125h-125v-125h125v-125h125v125h125z m-156-311c18-20 34-41 49-64-38-59-88-109-146-147-74-47-159-72-247-72-87 0-173 25-246 72-59 38-109 88-146 147 37 59 87 109 146 147 3 2 7 5 11 7-10-27-15-56-15-86 0-138 112-250 250-250 138 0 250 112 250 250 0 1 0 2 0 2-107 28-186 124-187 239-21 2-42 4-63 4-218 0-407-127-500-313 93-185 282-312 500-312 218 0 407 127 500 312-17 34-38 67-61 97-29-17-61-28-95-33z m-438 124c52 0 94-42 94-94 0-52-42-94-94-94s-93 42-93 94 42 94 93 94z" horiz-adv-x="1000" />

<glyph glyph-name="eye-minus2" unicode="&#xe9d0;" d="M625 750h375v-125h-375v125z m225-187h-287v121c-21 2-42 4-63 4-218 0-407-127-500-313 93-185 282-312 500-312 218 0 407 127 500 312-36 73-88 137-150 188z m-444 0c52 0 94-42 94-94 0-52-42-94-94-94s-93 42-93 94 42 94 93 94z m341-335c-74-47-159-72-247-72-87 0-173 25-246 72-59 38-109 88-146 147 37 59 87 109 146 147 3 2 7 5 11 7-10-27-15-56-15-86 0-138 112-250 250-250 138 0 250 112 250 250 0 30-5 59-15 86 4-2 8-5 12-7 58-38 108-88 146-147-38-59-88-109-146-147z" horiz-adv-x="1000" />

<glyph glyph-name="eye-blocked2" unicode="&#xe9d1;" d="M924 861c-18 19-48 19-66 0l-198-197c-51 15-104 24-160 24-218 0-407-127-500-313 40-80 98-149 169-202l-155-155c-19-19-19-49 0-67 9-9 21-14 33-14s24 5 33 14l844 844c18 18 18 48 0 66z m-518-298c42 0 77-27 89-64l-119-119c-37 13-63 48-63 89 0 52 42 94 93 94z m-298-188c37 59 87 109 146 147 3 2 7 5 11 7-10-27-15-56-15-86 0-53 17-103 46-144l-60-59c-51 36-95 82-128 135z m642 68c0 27-4 52-12 76l-314-314c24-7 50-12 76-12 138 0 250 112 250 250z m61 149l-68-68c1-1 2-1 4-2 58-38 108-88 146-147-38-59-88-109-146-147-74-47-159-72-247-72-38 0-75 5-111 14l-75-75c58-21 121-32 186-32 218 0 407 127 500 312-44 88-109 163-189 217z" horiz-adv-x="1000" />

<glyph glyph-name="bookmark" unicode="&#xe9d2;" d="M188 875v-1000l312 313 313-313v1000z" horiz-adv-x="1000" />

<glyph glyph-name="bookmarks" unicode="&#xe9d3;" d="M250 750v-875l313 313 312-313v875z m500 125h-625v-875l63 63v750h562z" horiz-adv-x="1000" />

<glyph glyph-name="eye-minus" unicode="&#xe9d4;" d="M625 750h375v-125h-375v125z m225-187h-287v121c-21 2-42 4-63 4-218 0-407-127-500-313 93-185 282-312 500-312 218 0 407 127 500 312-36 73-88 137-150 188z m-444 0c52 0 94-42 94-94 0-52-42-94-94-94s-93 42-93 94 42 94 93 94z m341-335c-74-47-159-72-247-72-87 0-173 25-246 72-59 38-109 88-146 147 37 59 87 109 146 147 3 2 7 5 11 7-10-27-15-56-15-86 0-138 112-250 250-250 138 0 250 112 250 250 0 30-5 59-15 86 4-2 8-5 12-7 58-38 108-88 146-147-38-59-88-109-146-147z" horiz-adv-x="1000" />

<glyph glyph-name="eye-blocked" unicode="&#xe9d5;" d="M924 861c-18 19-48 19-66 0l-198-197c-51 15-104 24-160 24-218 0-407-127-500-313 40-80 98-149 169-202l-155-155c-19-19-19-49 0-67 9-9 21-14 33-14s24 5 33 14l844 844c18 18 18 48 0 66z m-518-298c42 0 77-27 89-64l-119-119c-37 13-63 48-63 89 0 52 42 94 93 94z m-298-188c37 59 87 109 146 147 3 2 7 5 11 7-10-27-15-56-15-86 0-53 17-103 46-144l-60-59c-51 36-95 82-128 135z m642 68c0 27-4 52-12 76l-314-314c24-7 50-12 76-12 138 0 250 112 250 250z m61 149l-68-68c1-1 2-1 4-2 58-38 108-88 146-147-38-59-88-109-146-147-74-47-159-72-247-72-38 0-75 5-111 14l-75-75c58-21 121-32 186-32 218 0 407 127 500 312-44 88-109 163-189 217z" horiz-adv-x="1000" />

<glyph glyph-name="bookmarks2" unicode="&#xe9d6;" d="M250 750v-875l313 313 312-313v875z m500 125h-625v-875l63 63v750h562z" horiz-adv-x="1000" />

<glyph glyph-name="star-empty" unicode="&#xe9d7;" d="M1000 487l-345 51-155 313-154-313-346-51 250-243-59-345 309 163 309-163-59 345 250 243z m-500-348l-218-115 42 243-177 173 244 35 109 221 109-221 244-35-176-173 41-243-218 115z" horiz-adv-x="1000" />

<glyph glyph-name="bookmark2" unicode="&#xe9d8;" d="M188 875v-1000l312 313 313-313v1000z" horiz-adv-x="1000" />

<glyph glyph-name="star-full" unicode="&#xe9d9;" d="M1000 487l-345 51-155 313-154-313-346-51 250-243-59-345 309 163 309-163-59 345 250 243z" horiz-adv-x="1000" />

<glyph glyph-name="heart" unicode="&#xe9da;" d="M738 813c-106 0-196-86-238-175-42 89-132 175-237 175-145 0-263-118-263-263 0-295 297-372 500-664 192 290 500 379 500 664 0 145-118 263-262 263z" horiz-adv-x="1000" />

<glyph glyph-name="eye2" unicode="&#xe9db;" d="M500 688c-218 0-407-127-500-313 93-185 282-312 500-312 218 0 407 127 500 312-93 186-282 313-500 313z m247-166c58-38 108-88 146-147-38-59-88-109-146-147-74-47-159-72-247-72-87 0-173 25-246 72-59 38-109 88-146 147 37 59 87 109 146 147 3 2 7 5 11 7-10-27-15-56-15-86 0-138 112-250 250-250 138 0 250 112 250 250 0 30-5 59-15 86 4-2 8-5 12-7v0z m-247-53c0-52-42-94-94-94s-93 42-93 94 42 94 93 94 94-42 94-94z" horiz-adv-x="1000" />

</font>
</defs>
</svg>
