<?xml version="1.0" standalone="no"?>
<!DOCTYPE svg PUBLIC "-//W3C//DTD SVG 1.1//EN" "http://www.w3.org/Graphics/SVG/1.1/DTD/svg11.dtd">
<svg xmlns="http://www.w3.org/2000/svg">
<metadata>Copyright (C) 2017 by original authors @ fontello.com</metadata>
<defs>
<font id="medialogfont" horiz-adv-x="1000" >
<font-face font-family="medialogfont" font-weight="400" font-stretch="normal" units-per-em="1000" ascent="850" descent="-150" />
<missing-glyph horiz-adv-x="1000" />
<glyph glyph-name="spade" unicode="&#xe800;" d="M833 850h-666c-25 0-42-17-42-42v-916c0-25 17-42 42-42h666c25 0 42 17 42 42v916c0 25-17 42-42 42z m-41-917h-584v834h584v-834z m-334 292v-83h84v83c83 0 125 46 125 125 0 92-84 125-167 250-83-125-167-158-167-250 0-79 42-125 125-125z" horiz-adv-x="1000" />

<glyph glyph-name="friends" unicode="&#xe801;" d="M372 848c-17-4-35-14-49-28-22-22-31-45-31-75 0-31 12-56 37-77 18-16 40-24 65-24 40 0 72 19 92 54 8 14 11 30 11 48 0 30-8 52-30 73-26 26-60 36-95 29z m221 0c-42-9-74-39-83-79-4-18-1-46 6-63 9-21 28-41 48-51 28-15 65-15 92-1 27 14 48 39 55 68 3 11 3 36 0 48-7 33-34 63-68 74-14 5-37 7-50 4z m81-209c-8-1-18-8-24-16-4-6-7-8-18-12-29-11-57-16-90-14-34 1-61 9-88 26-6 3-16 9-23 11-11 4-14 4-35 4-26 0-35-2-57-14-33-17-56-34-82-60-25-25-39-45-49-74-16-40-16-87-2-135 10-33 29-73 39-81 7-7 22-11 31-10 4 1 10 3 14 5 4 3 8 4 8 4 0 0 1-53 1-119l0-118-25-17c-28-18-49-32-59-39-17-10-26-26-26-42 0-30 25-52 55-47 10 2 14 4 32 16 11 7 21 13 21 13 1 0 2-8 2-18 0-15 1-19 5-25 7-16 25-27 42-27 16 0 34 11 42 26l4 8 1 50c1 27 1 50 2 51 0 0 9 6 20 13 55 36 64 42 70 49 10 13 9 7 10 133 1 87 2 116 3 119 2 4 2 30 2 113l0 108 11-2c6 0 26-1 44-1 31 0 36 0 56 5 56 11 97 33 108 57 8 17 5 36-8 49-3 4-9 8-12 9-7 3-18 4-25 2z m-385-221c0-54 0-54-3-48-5 10-10 38-10 53 0 15 5 38 10 45 1 3 3 5 3 5 0 0 0-25 0-55z m112-253c0-63 0-66-6-66-2 0-2 11-2 64l1 64 3 0 4 0 0-62z m186 473c-14-3-38-15-49-24l-5-5 6 0c27-1 49 2 74 10 12 3 16 6 20 9 2 3 4 6 4 7 0 4-35 5-50 3z m143-61c-1-2-2-4-2-5 0-3-8-16-15-22-8-8-20-16-37-24-41-19-87-28-138-27l-27 1 0-101c-2-235-1-505 1-512 5-23 22-36 46-36 9 0 13 1 19 4 10 5 19 13 24 24l4 8 0 170c0 168 1 170 4 170 3 0 3-2 3-171l1-172 4-7c15-31 55-36 78-10 12 14 11-1 11 214 0 106 1 192 1 192 1 0 6-3 10-5 15-8 33-6 46 6 10 9 30 51 39 83 6 24 8 34 9 57 3 56-16 103-58 147-18 19-21 21-23 16z m-5-119c2-5 4-15 5-24 2-13 2-17-1-32-2-18-10-43-12-41-2 1-2 111 0 113 1 1 4-5 8-16z" horiz-adv-x="1000" />

<glyph glyph-name="film" unicode="&#xe802;" d="M91 350c0 226 183 410 409 410 226 0 409-184 410-410v0c-1-224-180-406-403-410h-14c-223 4-402 186-402 410m479-49c23 0 42 19 42 42 0 24-19 43-42 43-24 0-43-19-43-43 0-23 19-42 43-42z m-107 106c23 0 42 19 42 43 0 23-19 42-42 42-24 0-43-19-43-42 0-24 19-43 43-43z m-25-64c0-13 11-25 25-25 14 0 25 12 25 25 0 14-11 25-25 25-14 0-25-11-25-25z m25-149c23 0 42 19 42 43 0 23-19 42-42 42-24 0-43-19-43-42 0-24 19-43 43-43z m-107 107c24 0 43 19 43 42 0 24-19 43-43 43-23 0-42-19-42-43 0-23 19-42 42-42z m383 259c2-7-3-15-10-16-30-8-50-23-60-43-13-27-7-59-2-74 10-26 16-54 16-84 0-121-99-220-220-220-122 0-220 99-220 220 0 122 98 221 220 221 70 0 132-33 172-84 2 11 4 22 10 33 13 28 39 47 77 57 7 2 15-2 17-10" horiz-adv-x="1000" />

<glyph glyph-name="heart" unicode="&#xe803;" d="M91 350c0 226 183 410 409 410 226 0 409-183 410-409v-2c-1-223-180-405-403-409h-14c-223 4-402 186-402 410m524-87h71l-171-158-172 158h21c17 0 33 9 42 25l16 29 45-126c5-17 20-29 37-31 3-1 5-1 8-1 14 0 28 7 37 19l66 85m-280 95h-69c-13 44 0 92 37 126 49 45 129 45 178 0l34-31 33 31c49 45 129 45 179 0 37-34 49-82 36-126h-172c-14 0-28-7-37-18l-27-35-51 145c-6 18-23 30-41 32-19 1-37-8-46-25l-54-99m177-163c-1 0-2 0-2 0-5 1-9 4-11 8l-71 190-54-95c-2-4-7-8-12-8l-144 2c-8 0-14 5-14 13 0 7 6 12 14 12l137 2 64 112c3 4 8 7 13 7 5-1 10-4 12-9l73-194 67 80c3 3 7 3 11 3l200-1h0c8 0 14-3 14-11 0-8-6-13-14-13l-194-1-79-93c-2-3-6-4-10-4" horiz-adv-x="1000" />

<glyph glyph-name="intro" unicode="&#xe804;" d="M991 350c0-271-220-491-491-491-271 0-491 220-491 491 0 271 220 491 491 491 271 0 491-220 491-491m-353-142c-11-10-20-6-20 9v46 55 56 54 46c0 15 9 19 20 9l127-119c11-10 11-27 0-37l-127-119m-189 103v69c0 15 12 27 27 27h7c15 0 27-12 27-27v-69c0-15-12-27-27-27h-7c-15 0-27 12-27 27m116 0v69c0 15 12 27 27 27h7c15 0 27-12 27-27v-69c0-15-12-27-27-27h-7c-15 0-27 12-27 27m22 0v69c0 15 12 27 27 27h7c15 0 28-12 28-27v-69c0-15-13-27-28-27h-7c-15 0-27 12-27 27m-10 0v69c0 15 12 27 27 27h7c15 0 27-12 27-27v-69c0-15-12-27-27-27h-7c-15 0-27 12-27 27m-244 0v69c0 15 12 27 27 27h7c15 0 27-12 27-27v-69c0-15-12-27-27-27h-7c-15 0-27 12-27 27m-116 0v69c0 15 12 27 27 27h7c15 0 27-12 27-27v-69c0-15-12-27-27-27h-7c-15 0-27 12-27 27" horiz-adv-x="1000" />

<glyph glyph-name="virtual-cycling" unicode="&#xe805;" d="M991 350c0-271-220-491-491-491-271 0-491 220-491 491 0 271 220 491 491 491 271 0 491-220 491-491m-492-50c32 0 57 25 57 55 0 14-48-10-57 0-10 12 17 55 0 55-31 0-57-24-57-55 0-30 26-55 57-55z m0 166c63 0 114-50 114-111 0-61-51-110-114-110-63 0-114 49-114 110 0 61 51 111 114 111m0 59c187 0 292-138 292-170 0-32-105-169-292-169-187 0-292 137-292 169 0 32 105 170 292 170z" horiz-adv-x="1000" />

<glyph glyph-name="scenery" unicode="&#xe806;" d="M991 350c0-271-220-491-491-491-271 0-491 220-491 491 0 271 218 490 488 491h6c270-1 488-220 488-491m-430 230c0 27 22 48 49 48 27 0 49-21 49-48 0-27-22-49-49-49-27 0-49 22-49 49m21-215l-114 198-238-375m543 0l-145 229-110-195m-132 212l82 129 74-128-37-33-37 50-37-50m153-63l44 78 45-78-44-44z" horiz-adv-x="1000" />

<glyph glyph-name="warm-up" unicode="&#xe807;" d="M991 350c0-271-220-491-491-491-271 0-491 220-491 491 0 271 220 491 491 491 271 0 491-220 491-491m-551 243c1 30 25 54 55 54 30 0 55-24 55-54m-204-399c0 59 40 109 81 136v270h27v-28-13h41v-28h-41v-27h41v-27h-41v-27h41v-28h-41v-27-27-28h41v-27l-41-6c-45-18-76-61-76-113 0-67 55-122 122-122 68 0 119 55 119 122 0 53-42 97-83 115v250 41h28v-270c54-27 89-77 89-136 0-85-67-154-153-154-85 0-154 69-154 154m64 0c0 9 1 17 4 25l173 0c2-8 3-16 3-25 0-49-40-90-90-90-50 0-90 41-90 90m44 174h41v27h-41z" horiz-adv-x="1000" />

<glyph glyph-name="hilly" unicode="&#xe808;" d="M991 350c0-271-220-491-491-491-271 0-491 220-491 491 0 271 220 491 491 491 271 0 491-220 491-491m-182-82c-61 66-93 250-154 241-52-8-103-232-188-234-55-1-86 77-131 75-45-2-78-44-125-86" horiz-adv-x="1000" />

<glyph glyph-name="climbing" unicode="&#xe809;" d="M991 350c0-271-220-491-491-491-271 0-491 220-491 491 0 271 220 491 491 491 271 0 491-220 491-491m-731-225l144 214c8 12 22 13 31 3l43-76c9-10 22-8 29 4l132 183m110 6c1-15-9-20-22-12l-6 4-45 30-11 8-46 30-6 4c-12 9-11 20 3 25l101 37c14 5 26-3 27-18l5-108" horiz-adv-x="1000" />

<glyph glyph-name="team-challenge" unicode="&#xe80a;" d="M991 350c0-271-220-491-491-491-271 0-491 220-491 491 0 271 220 491 491 491 271 0 491-220 491-491m-440-147c-70-74 76-65 76-117 0-4-60-8-121-8h0 0 0v0c-61 0-121 4-121 8 0 52 146 43 76 116m185 114c-57 38 114 114 114 209 0 49-41 60-65 60-14 0-34-5-45-12m-284-257c57 38-113 114-113 209 0 49 41 60 64 60 14 0 35-5 45-12m1 1h286c0-163-65-397-143-397-79 0-143 235-143 397m-16 15h318v-15c0-156-62-412-159-412-97 0-159 258-159 412z m115-151v21c9 0 16 1 20 1 6 2 11 4 14 8 3 3 5 7 6 11 1 3 1 5 1 7h25v-153h-30v105h-36" horiz-adv-x="1000" />

<glyph glyph-name="cinema-tour" unicode="&#xe80b;" d="M991 350c0-271-220-491-491-491-271 0-491 220-491 491 0 271 220 491 491 491 271 0 491-220 491-491m-468-40l53 16-46 32 1 56-44-34-53 18 18-52-33-45 55 1 32-45z m204 113l23-24-306-306-23 23c12 12 11 31 0 42-12 11-30 12-42 0l-17 17c12 12 12 30 0 42-11 11-29 11-41 0l-17 17c12 11 11 30 0 41-12 12-30 12-42 0l-18 19 306 306 18-19c-11-11-11-30 0-41 12-12 30-12 42 0l17-17c-12-12-11-30 0-42 11-11 30-12 42 0l17-17c-12-12-12-30 0-41 11-12 29-12 41 0" horiz-adv-x="1000" />

<glyph glyph-name="road-captain" unicode="&#xe80c;" d="M991 350c0-271-220-491-491-491-271 0-491 220-491 491 0 271 220 491 491 491 271 0 491-220 491-491m-497 131l-47-24 9 52-37 36 52 8 23 47 23-47 52-8-38-36 9-52m154-214l-198-135-198 135m396 128l-198-135-198 135" horiz-adv-x="1000" />

<glyph glyph-name="interval" unicode="&#xe80d;" d="M991 350c0-271-220-491-491-491-271 0-491 220-491 491 0 271 220 491 491 491 271 0 491-220 491-491m-759-155h55v187c0 19 15 34 34 34 19 0 34-15 34-34v-187h55v324c0 18 15 33 34 33 19 0 34-15 34-33v-324h55v187c0 19 15 34 34 34 18 0 34-15 34-34v-187h55v324c0 18 15 33 34 33 18 0 34-15 34-33v-324-28h-492v28m492-28h54v28h-54z" horiz-adv-x="1000" />

<glyph glyph-name="tempo" unicode="&#xe80e;" d="M991 350c0-271-220-491-491-491-271 0-491 220-491 491 0 271 220 491 491 491 271 0 491-220 491-491m-395-143c-11-10-20-6-20 9l0 46v55l0 56v54l0 46c0 15 9 19 20 9l127-119c11-10 11-27 0-37l-127-119m-117 0c-11-10-20-6-20 9v46 55 56 54 46c0 15 9 19 20 9l127-119c11-10 11-27 0-37l-127-119m-120 103v69c0 15 12 27 27 27h7c15 0 28-12 28-27v-69c0-15-13-27-28-27h-7c-15 0-27 12-27 27m-102 0v69c0 15 12 27 27 27h7c15 0 27-12 27-27v-69c0-15-12-27-27-27h-7c-15 0-27 12-27 27" horiz-adv-x="1000" />

<glyph glyph-name="pedal-strengt" unicode="&#xe80f;" d="M991 350c0-271-220-491-491-491-271 0-491 220-491 491 0 271 220 491 491 491 271 0 491-220 491-491m-488 45c26 0 46-21 46-46 0-21-14-39-34-44l-249-224c-8-8-21-8-28 0l-2 2c-8 8-8 21-1 29l224 248c5 20 23 35 44 35m0-71c-13 0-25 11-25 25 0 14 12 25 25 25 14 0 26-11 26-25 0-14-12-25-26-25m212 73l52-15v-75l-52-14c-5-21-16-41-27-59l25-47-52-52-46 25c-18-11-38-19-59-24l-16-50h-74l-14 50c-12 3-23 7-34 12l22 25c20-8 41-12 63-12 102 0 184 82 184 184 0 102-82 184-184 184-101 0-184-82-184-184 0-22 5-43 12-63l-23-23c-4 11-8 22-11 34l-48 14v75l48 15c6 21 12 41 23 59l-26 46 52 52 47-25c18 11 38 19 59 24l14 51h74l16-51c21-5 41-13 59-24l46 26 53-52-25-47c11-18 20-38 26-59" horiz-adv-x="1000" />

<glyph glyph-name="home" unicode="&#xe810;" d="M91 350c0 226 183 410 409 410 226 0 409-183 410-409v-2c-1-223-180-405-403-409h-14c-223 4-402 186-402 410m569-161c0-11-1-20-15-20h-99v150h-99v-150h-94c-19 0-20 9-20 20v201c0 15 12 26 12 26l134 134c10 11 26 11 36 0l134-134c0 0 11-9 11-26v-201" horiz-adv-x="1000" />

<glyph glyph-name="schedule" unicode="&#xe811;" d="M91 350c0 226 183 410 409 410 226 0 409-183 410-409v-2c-1-224-181-405-404-409h-12c-223 4-403 186-403 410m324 217v-51c0-7-7-13-14-13h-5c-7 0-13 6-13 13v51c0 7 6 13 13 13h5c7 0 14-6 14-13m204 0v-51c0-7-6-13-13-13h-5c-7 0-14 6-14 13v51c0 7 7 13 14 13h5c7 0 13-6 13-13m38-352v151c0 7-6 13-14 13h-286c-8 0-14-6-14-13v-151c0-7 6-13 14-13h286c8 0 14 6 14 13z m0 301h27c8 0 14-6 14-14v-327c0-8-6-14-14-14h-368c-8 0-14 6-14 14v327c0 8 6 14 14 14h27c8 0 14-6 14-14v-14c0-7 6-13 13-13h55c7 0 14 6 14 13v14c0 8 6 14 13 14h96c7 0 13-6 13-14v-14c0-7 7-13 14-13h55c7 0 13 6 13 13v14c0 8 7 14 14 14" horiz-adv-x="1000" />

<glyph glyph-name="settings" unicode="&#xe812;" d="M91 350c0 226 183 410 409 410 226 0 409-184 410-410v0c-1-224-180-406-403-410h-14c-223 4-402 186-402 410m442-78c43 18 63 67 45 110-18 44-67 64-110 46-44-18-64-67-46-110 18-44 67-64 111-46z m170 87l0-15c-1-8-7-16-13-20 0 0-29-14-38-37-10-22 4-51 4-51 3-7 1-18-4-23l-10-11c-6-5-16-6-23-3 0 0-36 15-59 6-22-10-37-46-37-46-3-7-11-13-19-13l-14 0c-8 0-16 6-19 13 0 0-11 30-34 39-22 10-52-3-52-3-6-3-17-2-22 3l-11 11c-5 5-6 15-3 22 0 0 15 36 6 59-10 22-44 34-44 34-7 2-13 10-14 17l0 15c1 8 7 17 13 20 0 0 29 14 38 37 10 22-3 52-3 52-3 6-2 17 3 22l11 11c5 5 15 6 22 3 0 0 36-15 59-5 22 9 37 45 37 45 3 7 11 13 19 13l14 0c8 0 16-6 19-13 0 0 11-30 34-39 22-10 53 1 53 1 7 2 17 0 23-5l10-11c5-5 7-15 3-22 0 0-16-32-6-55 9-22 43-33 43-33 7-3 13-11 14-18" horiz-adv-x="1000" />

<glyph glyph-name="sign-out" unicode="&#xe813;" d="M91 350c0 226 183 410 409 410 226 0 409-184 410-410v0c-1-224-180-406-403-410h-14c-223 4-402 186-402 410m241 85c5 5 10 3 10-4l0-38c0-7 6-14 13-14l67 0c7 0 14-6 14-13v-47c0-7-7-13-14-13h-67c-7 0-13-7-13-14l0-38c0-7-5-9-10-4l-82 83c-6 5-6 14 0 19l82 83m130 67c0 38 30 68 68 68 38 0 68-30 68-68 0-37-30-68-68-68-38 0-68 31-68 68m-75-270c0 8 6 14 13 14h73c7 0 14 6 14 14v121c0 7 6 14 13 14 0 0 13 1 32 1 135 0 145-112 145-112 0-7 1-20 1-27v-79c0-8-7-14-14-14h-264c-7 0-13 6-13 14l0 54" horiz-adv-x="1000" />

<glyph glyph-name="cinematic-cycling" unicode="&#xe814;" d="M91 350c0 226 183 410 409 410 226 0 409-183 410-409v-2c-1-223-180-405-403-409h-14c-223 4-402 186-402 410m643 25c2-1 5-3 5-5v-140c0-2-2-4-4-6-2 0-4-1-6-1 0 0-1 0-1 1l-82 31c-3 1-3 3-3 6v78c0 3 1 5 3 6l81 31c2 1 6 1 7-1m-178 7c24 0 45 13 57 32 2-4 3-9 3-14v-182c0-18-13-32-31-32h-223c-18 0-33 14-33 32v182c0 2 1 3 1 5 12-14 30-24 51-24 31 0 57 24 65 51h45c8-29 34-50 65-50m-175 134c-37 0-67-30-67-67 0-37 30-67 67-67 37 0 67 30 67 67 0 37-30 67-67 67z m0-161c-52 0-95 42-95 94 0 52 43 94 95 94 52 0 94-42 94-94 0-52-42-94-94-94m175 161c-37 0-67-30-67-67 0-37 30-67 67-67 37 0 67 30 67 67 0 37-30 67-67 67z m0-161c-52 0-95 42-95 94 0 52 43 94 95 94 52 0 94-42 94-94 0-52-42-94-94-94" horiz-adv-x="1000" />

<glyph glyph-name="music-workout" unicode="&#xe815;" d="M910 350c0-224-180-406-403-410h-14c-223 4-402 186-402 409v2c0 226 183 409 409 409 226 0 410-184 410-410m-281-95c0-22-6-46-35-57-34-12-61-2-70 23-9 25 2 56 36 69 15 5 41 6 41 4v165l-150-33v-211c0-23-14-46-42-57-34-13-59-2-68 23-9 25-2 56 32 68 15 6 24 7 37 4v240l219 47v-285" horiz-adv-x="1000" />

<glyph glyph-name="world-tour" unicode="&#xe816;" d="M910 350c0-224-180-406-403-410h-14c-223 4-402 186-402 410 0 226 183 410 409 410 226 0 410-184 410-410m-188 0c0-122-100-221-222-221-122 0-221 99-221 221 0 122 99 222 221 222 122 0 222-100 222-222z m-108 0c0-113-46-218-114-218-68 0-114 105-114 218 0 113 46 218 114 218 68 0 114-105 114-218z m46-133c-38 23-96 38-160 38-65 0-123-15-161-39m1 267c38-23 96-38 160-38 65 0 123 15 161 39m-369-134h416m-208 208v-416" horiz-adv-x="1000" />

<glyph glyph-name="fitnes-monitor" unicode="&#xe817;" d="M910 350c0-224-181-407-404-410h-11c-224 3-404 186-404 410 0 226 183 410 409 410 226 0 410-184 410-410m-545-151c-40 38-65 92-65 151 0 114 92 207 206 207 35 0 68-9 96-24m85-85c16-29 25-62 25-97 0-61-26-116-67-153m-164 187l172 110-116-170-3-3c-16-16-42-15-58 2-16 16-15 42 2 58l3 3" horiz-adv-x="1000" />

<glyph glyph-name="feedback" unicode="&#xe818;" d="M910 350c0-225-183-408-408-410h-4c-225 2-407 184-407 409v2c0 226 183 409 409 409 226 0 410-184 410-410m-452-46v118c162 0 173 126 202 126 8 0 17-25 17-185 0-161-8-186-16-186h-1c-30 0-39 127-202 127m0 118c162 0 173 126 202 126 8 0 17-25 17-185 0-161-8-186-16-186h-1c-30 0-39 127-202 127m-110 4c16-11 28-55 43-134 3-13 9-22 26-22h29c14 0 20 8 20 20 0 13-4 18-14 29-7 6-19 37-19 103m-65 131h103v-145h-103c-33 0-59 26-59 58v29c0 33 26 58 59 58z" horiz-adv-x="1000" />

<glyph glyph-name="support" unicode="&#xe819;" d="M91 350c0 226 183 410 409 410 226 0 409-183 410-409v-2c-1-223-180-405-403-409h-14c-223 4-402 186-402 410m490-81c-103-103-207-129-235-101-24 24-67 53-12 98 56 44 71 22 96-3 17-17 61 19 100 57 38 39 74 83 57 100-25 25-47 41-3 96 45 55 74 12 98-12 28-28 2-132-101-235" horiz-adv-x="1000" />

<glyph glyph-name="user-guide" unicode="&#xe81a;" d="M910 350c0-224-180-406-403-410h-14c-223 4-402 186-402 410 0 226 183 410 409 410 226 0 410-184 410-410m-256 140h39c8 0 15-7 15-15v-270c0-8-7-15-15-15h-153c0 0-13-24-40-24-27 0-40 24-40 24h-153c-8 0-15 7-15 15v270c0 8 7 15 15 15h39m175 0c0 0 28 48 133 48v-291c-105 0-133-33-133-33v276m-14 3l2 3c0 0 35 56 145 56h13v-319h-13c-102 0-123-28-123-28l-24-27v312z m-28-3v-276c0 0-29 33-133 33v291c105 0 133-48 133-48m-146 62h13c110 0 145-56 145-56l2-3v-3-312l-24 27c0 0-22 28-123 28h-13z" horiz-adv-x="1000" />

<glyph glyph-name="eye" unicode="&#xe81b;" d="M500 630q92 0 177-25t141-62 99-77 63-71 20-45-20-44-63-71-99-78-141-62-177-25-177 25-141 62-99 78-63 71-20 44 20 45 63 71 99 77 141 62 177 25z m0-494q92 0 157 63t65 151q0 90-65 153t-157 63-157-63-65-153q0-88 65-151t157-63z m0 214q8-8 37-2t50 11 25-9q0-44-33-75t-79-31-78 31-32 75q0 46 32 77t78 31q14 0 10-23t-12-47 2-38z" horiz-adv-x="1000" />

<glyph glyph-name="auto-mode" unicode="&#xe81c;" d="M91 350c0 226 183 410 409 410 226 0 409-184 410-410v0c-1-224-181-407-404-410h-12c-223 3-403 186-403 410m217-84c-10 25-16 53-16 81 0 116 94 209 209 209 29 0 56-6 81-16m111-111c11-25 16-53 16-82 0-115-93-208-208-208-29 0-56 6-81 16m267 260c-2-1-8 10-14 24l-12 29c-5 14 2 21 15 15l60-27c13-6 13-15 0-21l-35-14-14-6m-369-140c1 0 7-10 13-24l13-29c6-14 0-20-14-14l-59 26c-14 7-14 16 0 22l35 14 12 5m257-9l-74 186-74-182m27 51h95" horiz-adv-x="1000" />

<glyph glyph-name="spinning" unicode="&#xe81d;" d="M910 350c0-226-184-410-410-410-226 0-409 184-409 410 0 226 183 410 409 410 226 0 410-184 410-410m-266 172c0-22-18-40-40-40-22 0-40 18-40 40 0 22 18 40 40 40 22 0 40-18 40-40m90-261c0-53-44-97-98-97-53 0-97 44-97 97 0 54 44 98 97 98 54 0 98-44 98-98z m-292 0c0-53-44-97-98-97-53 0-97 44-97 97 0 54 44 98 97 98 54 0 98-44 98-98z m220 168c9 0 18-9 18-18 0-9-9-18-18-18h-77c-11 0-15 4-15 4l-32 43c-5 5-8 1-12-1-4-2-58-44-58-44 0 0 28-16 45-27 16-12 13-22 11-36l-17-93c0 0-5-17-21-15-17 2-16 21-16 21l10 86-45 29c-17 10-40 23-40 43 0 21 12 34 18 38l53 41c19 15 37 27 50 27 12 0 23-4 31-16l44-64h71" horiz-adv-x="1000" />

<glyph glyph-name="exit" unicode="&#xe81e;" d="M91 350c0 226 183 410 409 410 226 0 409-183 410-409v-2c-1-223-180-405-403-409h-14c-223 4-402 186-402 410m175-9c-5 5-5 13 0 18l73 68c5 5 10 3 10-4v-29-27-34-27-29c0-7-5-9-10-4l-73 68m243 9c0-14-12-25-27-25h-144c-15 0-27 11-27 25 0 14 12 25 27 25h144c15 0 27-11 27-25m-94 90v72h247v-323h-247v71" horiz-adv-x="1000" />

<glyph glyph-name="bar comparason" unicode="&#xe81f;" d="M500-60c-226 0-409 184-409 410 0 225 181 408 405 410h8c224-2 406-185 406-410v0c0-226-184-410-410-410m-16 592c25-23 25-61 0-84l-97-88-96 88c-26 23-26 61 0 84 22 21 58 21 81 0l15-14 15 14c23 21 59 21 82 0z m-74-255c12 0 22-10 22-23v-94h-90v94c0 13 6 23 18 23z m135 75c12 0 22-10 22-23v-169h-90v169c0 13 6 23 18 23z m135 146c12 0 22-11 22-23v-315h-90v315c0 12 6 23 18 23h50" horiz-adv-x="1000" />

<glyph glyph-name="pulse info" unicode="&#xe820;" d="M910 350c0-224-181-406-404-410h-12c-223 4-403 185-403 409v2c0 226 183 409 409 409 226 0 410-184 410-410m-294-22h-217v-35h217z m0-59h-217v-34h217z m0-59h-217v-34h217z m-173 259c-16-14-16-37 0-52l59-54 60 54c15 15 15 38 0 52-14 13-36 13-50 0l-10-9-9 9c-14 13-36 13-50 0z m186 59c17 0 30-13 30-30v-332c0-16-13-29-30-29h-243c-17 0-30 13-30 29v332c0 17 13 30 30 30h243" horiz-adv-x="1000" />

<glyph glyph-name="pulse curve" unicode="&#xe821;" d="M91 350c0 226 183 410 409 410 226 0 409-184 410-410v0c-1-225-182-408-407-410h-6c-225 2-406 185-406 410m490-67l114 154c19-39 12-86-23-118l-170-156-97 89 43 62 38-41c14-14 32-21 51-19 18 2 34 12 44 29m-238 26l-10 10c-45 41-45 107 0 148 39 36 103 36 142 0l27-25 27 25c28 25 67 33 102 23l-103-140-38 40c-13 14-31 21-50 20-18-2-35-12-46-28l-51-73m-13-107c-2 0-4 1-6 2-5 3-6 10-3 14l98 147c6 8 15 13 24 14 9 1 18-3 24-10l57-60c2-2 4-4 7-3 2 0 5 2 7 5 0 0 0 1 0 1l138 181c3 5 10 6 14 2 5-3 6-10 2-15l-137-180c-5-9-13-14-22-15-8-1-17 2-24 9l-57 61c-2 2-5 3-8 3-2 0-5-2-7-5l-99-146c-2-3-5-5-8-5" horiz-adv-x="1000" />

<glyph glyph-name="topography" unicode="&#xe822;" d="M500-60c-226 0-409 184-409 410 0 225 182 408 407 410h4c225-2 407-184 408-409v-2c-1-226-184-409-410-409m12 274h-223c-15 0-21 11-13 24l111 192c7 13 20 13 27 0l111-192c8-13 2-24-13-24z m-38 185l76 122c8 13 21 13 28 0l160-283c7-13 1-24-14-24h-146l-104 185" horiz-adv-x="1000" />

<glyph glyph-name="hertz curve" unicode="&#xe823;" d="M910 350c0-224-180-406-403-410h-14c-223 4-402 186-402 410 0 226 183 410 409 410 226 0 410-184 410-410m-464-190c-4 3 71 160 68 167-3 7-82 33-86 45-2 6 49 128 67 168 8 1 74-23 76-25 4-4-52-114-50-119 2-5 84-32 86-44 3-13-157-195-161-192" horiz-adv-x="1000" />

<glyph glyph-name="pulse-target" unicode="&#xe824;" d="M500 349c24 0 44 19 44 44 0 24-20 44-44 44-24 0-44-20-44-44 0-25 20-44 44-44z m1 135c51 0 92-42 92-92 0-51-41-93-92-93-51 0-92 42-92 93 0 50 41 92 92 92m201-106v27c0 5 0 8-5 8h-65c-10 55-53 101-107 110v64c0 5-7 3-12 3h-27c-5 0-2 2-2-3v-65c-55-10-104-54-114-109h-67c-5 0-11-3-11-8v-27c0-5 6-6 11-6h67c10-55 59-101 114-111v-66c0-5-3-14 2-14h27c5 0 12 9 12 14v66c54 8 97 56 107 111h65c5 0 5 1 5 6z m-202 366c189 0 341-153 341-341 0-173-128-316-295-338l-46-109-46 109c-167 22-295 165-295 338 0 188 153 341 341 341" horiz-adv-x="1000" />

<glyph glyph-name="workout" unicode="&#xe825;" d="M609 301h71l-172-157-171 157h20c18 0 34 10 42 25l16 30 45-126c6-17 21-29 38-32 2 0 5 0 7 0 15 0 29 6 38 18l66 85m-280 96h-69c-13 43-1 91 36 126 24 21 55 33 86 33h7c31 0 62-12 86-33l33-31 34 31c24 21 55 33 86 33h6c31 0 62-12 86-33 37-35 49-83 37-126h-172c-15 0-29-7-38-19l-26-34-51 145c-7 18-23 30-42 32-19 1-36-9-45-25l-54-99m177-164c-1 0-2 0-3 0-5 1-8 4-10 9l-71 189-54-94c-3-4-7-8-12-8l-145 1c-7 1-13 6-13 13v1c0 7 6 12 13 12l137 1 65 112c2 5 7 8 13 7 5 0 10-3 11-8l73-195 68 81c3 3 6 3 10 3l201-1h0c7 0 13-4 13-11v0c1-8-6-13-13-13l-194-1-79-93c-3-3-6-5-10-5" horiz-adv-x="1000" />

<glyph glyph-name="time" unicode="&#xe826;" d="M747 350c0-136-111-246-247-246-136 0-246 110-246 246 0 136 110 247 246 247 136 0 247-111 247-247z m-166-107l-90 93v150" horiz-adv-x="1000" />

<glyph glyph-name="summary" unicode="&#xe827;" d="M605 501c0-26-21-47-47-47-27 0-48 21-48 47 0 27 21 48 48 48 26 0 47-21 47-48m3-323c0-15-13-27-28-27h-40c-15 0-28 12-28 27v205c0 15 13 27 28 27h40c15 0 28-12 28-27v-205" horiz-adv-x="1000" />

<glyph glyph-name="spin-plan" unicode="&#xe828;" d="M416 422c0-9-7-17-16-17h-8c-9 0-16 8-16 17 0 9 7 16 16 16h8c9 0 16-7 16-16z m0-72c0-9-7-16-16-16h-8c-9 0-16 7-16 16 0 9 7 16 16 16h8c9 0 16-7 16-16z m0-72c0-9-7-16-16-16h-8c-9 0-16 7-16 16 0 9 7 17 16 17h8c9 0 16-8 16-17z m204 144c0-9-7-17-16-17h-134c-9 0-16 8-16 17 0 9 7 16 16 16h134c9 0 16-7 16-16z m0-72c0-9-7-16-16-16h-134c-9 0-16 7-16 16 0 9 7 16 16 16h134c9 0 16-7 16-16z m0-72c0-9-7-16-16-16h-134c-9 0-16 7-16 16 0 9 7 17 16 17h134c9 0 16-8 16-17z m71-58v260c0 12-11 23-24 23h-334c-13 0-24-11-24-23v-260c0-12 11-23 24-23h334c13 0 24 11 24 23z m-13 321c27 0 48-21 48-47v-288c0-26-21-47-47-47h-358c-26 0-47 22-47 48v286c0 27 21 48 48 48h356" horiz-adv-x="1000" />

<glyph glyph-name="segment-time" unicode="&#xe829;" d="M231 342c0 127 103 231 230 231 42 0 81-9 115-28l-26-45c-27 15-57 23-89 23-99 0-179-80-179-179 0-99 80-180 179-180 99 0 179 78 179 177 0 1 0 1 0 1h51c0-150-103-230-230-230-127 0-230 103-230 230z m409 0c0 0 0 0 0 0h0m129 41h-225l113 205c68-40 112-108 112-193v-12" horiz-adv-x="1000" />

<glyph glyph-name="gradient up" unicode="&#xe82a;" d="M669 210c0-15-11-31-26-31h-298c-15 0-19 10-8 21l313 315c11 11 19 8 19-7v-298" horiz-adv-x="1000" />

<glyph glyph-name="gradient-flat" unicode="&#xe82b;" d="M671 237v-27c0-15-13-28-28-28h-286c-15 0-28 13-28 28v27c0 15 13 27 28 27h286c15 0 28-12 28-27m-132 281l96-102-96-101 2 72h-171v55h171" horiz-adv-x="1000" />

<glyph glyph-name="previous-part" unicode="&#xe82c;" d="M329 482c0 25 18 33 43 33 25 0 43-8 43-33v-264c0-25-18-33-43-33-25 0-43 8-43 33z m100-132c0 7 7 13 7 13l207 130c15 10 28 2 28-17v-252c0-19-13-26-28-16l-207 129c0 0-7 6-7 13" horiz-adv-x="1000" />

<glyph glyph-name="pause" unicode="&#xe82d;" d="M387 521c32 0 58-10 58-42v-258c0-30-24-41-54-42h-8c-31 1-54 12-54 42v258c0 32 26 42 58 42z m226 0c32 0 58-10 58-42v-258c0-30-23-41-54-42h-8c-30 1-54 12-54 42v258c0 32 26 42 58 42" horiz-adv-x="1000" />

<glyph glyph-name="skip-part" unicode="&#xe82e;" d="M628 515c25 0 43-8 43-33v-264c0-25-18-33-43-33-25 0-43 8-43 33v264c0 25 18 33 43 33z m-64-152c0 0 8-6 8-13 0-7-8-13-8-13l-207-129c-15-10-27-3-28 15v254c1 18 13 26 28 16l207-130" horiz-adv-x="1000" />

<glyph glyph-name="search" unicode="&#xe82f;" d="M537 279c61 0 116 54 116 115 0 62-50 111-111 111-62 0-116-54-116-115 0-62 49-111 111-111z m5 276c88 0 160-72 160-161 0-88-77-165-165-165-30 0-57 8-81 22l-99-98c-9-10-25-10-34 0l-25 24c-9 10-6 22 4 31l98 98c-15 25-24 53-24 84 0 88 77 165 166 165" horiz-adv-x="1000" />

<glyph glyph-name="position" unicode="&#xe830;" d="M782 495c-10-20-35-28-55-18-20 11-28 35-18 55 11 21 35 29 55 18 21-10 29-35 18-55m-70-99l-21-42c-4-7-4-18-1-25l33-71c3-7 2-18-1-24l-38-77c-4-6-12-9-18-5l-12 7c-6 4-9 13-5 19l28 53c3 7 3 18 0 24l-40 77c-3 6-3 17 0 24l47 92c4 7 12 11 20 10l22-5c8-2 18-7 23-13l67-70c5-5 6-15 2-21-4-6-13-7-19-3l-70 54c-6 4-13 2-17-4m-441 113c0-25-21-45-46-45-25 0-45 20-45 45 0 25 20 46 45 46 25 0 46-21 46-46m-74-86c0 11 9 20 20 20h15c11 0 28-2 38-5l86-22c10-3 15-11 13-19-1-7-9-11-20-9l-78 13c-11 2-19-5-19-16v-53c0-11 8-20 19-20h66c11 0 19-9 19-19v-128c0-11-8-20-19-20h-7c-11 0-20 9-20 20v82c0 10-9 19-19 19h-20-39-15c-11 0-20 9-20 20v7 39 91" horiz-adv-x="1000" />

<glyph glyph-name="tempo-1" unicode="&#xe831;" d="M86 457l162-93c13-8 13-20 0-28l-162-93c-13-7-23-1-23 14v186c0 15 10 22 23 14m258-133h191v54h-191z m277 117c0 15 10 21 23 13l90-56c13-8 24-13 24-11v31 23c0 15 10 21 22 13l148-91c13-8 12-21 0-29l-148-91c-12-7-22-2-22 13v23 31c0 2-11-3-24-10l-91-57c-13-7-22-2-22 13v23 55 30 54 23" horiz-adv-x="1000" />

<glyph glyph-name="globeracer-logo" unicode="&#xe832;" d="M773 350c0-151-122-273-273-273-151 0-273 122-273 273 0 151 122 273 273 273 151 0 273-122 273-273m-190 13l73 50c13 9 20 4 17-11l-28-133c-4-15-19-25-34-25h-221c-15 0-30 10-33 25l-29 132c-3 15 5 20 17 11l68-48c12-9 28-5 35 9l42 86c7 13 17 13 23-1l36-85c6-14 21-18 34-10" horiz-adv-x="1000" />

<glyph glyph-name="arrow-down" unicode="&#xe833;" d="M773 350c0-151-122-273-273-273-151 0-273 122-273 273 0 151 122 273 273 273 151 0 273-122 273-273m-278-167l-135 154c-5 6-3 10 5 10h67c7 0 13 6 13 14v136c0 8 7 14 14 14h82c8 0 14-6 14-14v-136c0-8 6-14 13-14h75c8 0 10-4 5-10l-135-154c-5-6-13-6-18 0" horiz-adv-x="1000" />

<glyph glyph-name="arrow-down-neg" unicode="&#xe834;" d="M773 350c0-151-122-273-273-273-151 0-273 122-273 273 0 151 122 273 273 273 151 0 273-122 273-273m-278-167l-135 154c-5 6-3 10 5 10h67c7 0 13 6 13 14v136c0 8 7 14 14 14h82c8 0 14-6 14-14v-136c0-8 6-14 13-14h75c8 0 10-4 5-10l-135-154c-5-6-13-6-18 0" horiz-adv-x="1000" />

<glyph glyph-name="arrow-up-round" unicode="&#xe835;" d="M227 350c0 151 122 273 273 273 151 0 273-122 273-273 0-151-122-273-273-273-151 0-273 122-273 273m278 167l135-154c5-6 3-10-5-10h-67c-7 0-13-6-13-14v-136c0-8-6-14-14-14h-82c-7 0-14 6-14 14v136c0 8-6 14-13 14h-75c-8 0-10 4-5 10l135 154c5 6 13 6 18 0" horiz-adv-x="1000" />

<glyph glyph-name="altitude" unicode="&#xe836;" d="M285 172l0 60c0 0 15-28 60-28 44 0 58 28 58 28 0 0 14-28 58-28 36 0 49 19 55 26 0 0 19-26 56-26 44 0 54 28 54 28 0 0 5-28 50-28 31 0 38 15 39 23v-55c0 0 4-28-40-28-44 0-41 28-41 28 0 0-14-28-58-28-39 0-55 21-59 26-3-5-18-26-56-26-44 0-58 28-58 28 0 0-14-28-59-28-44 0-59 28-59 28z m430 60c0 0 0-2 0-5z m-273 196h-57l131 128 128-128h-52v-176c-68 16-75 48-75 48 0 0-7-33-75-48v176" horiz-adv-x="1000" />

<glyph glyph-name="temp" unicode="&#xe837;" d="M468 323c-29-12-48-40-48-73 0-44 36-80 80-80 44 0 76 36 76 80 0 34-26 63-53 74l0 180c0 14-13 29-28 29-14 0-28-7-28-21v-8h27v-14h-27v-27h27v-14h-27v-27h27v-13h-27v-28h27v-13h-27v-28h27v-13z m73 15c36-17 59-50 59-88 0-56-44-101-100-101-55 0-100 45-100 101 0 38 23 71 50 88l0 180c2 13 16 33 47 33 22 0 41-15 44-37l0-176m15-72c2-5 2-11 2-16 0-33-26-59-58-59-33 0-59 26-59 59 0 5 1 11 2 16h113" horiz-adv-x="1000" />

<glyph glyph-name="play" unicode="&#xe838;" d="M910 350c0-224-180-406-403-410l-14 0c-223 4-402 186-402 410 0 226 183 410 409 410 226 0 410-184 410-410m-456-149c-18-13-34-6-34 17l0 249c0 22 16 30 34 17l169-118c18-13 18-34 0-47l-169-118m8-12c-6-4-12-7-19-8-6-1-13 0-19 3-13 6-17 20-17 34l0 249c0 13 4 27 17 34 6 3 13 4 19 2 7-1 13-4 19-8l169-118c26-18 26-51 0-69l-169-119z" horiz-adv-x="1000" />

<glyph glyph-name="heart-neg" unicode="&#xe839;" d="M91 350c0 226 183 410 409 410 226 0 409-183 410-409l0-2c-1-223-180-405-403-409l-14 0c-223 4-402 186-402 410m564 108c39-36 39-94 0-130l-149-136-149 136c-39 36-39 94 0 130 34 32 90 32 125 0l24-22 23 22c35 32 91 32 126 0m4 5c42-38 42-101 0-140l-153-141-154 141c-42 39-42 102 0 140 37 34 97 34 135 0l19-17 19 17c37 34 97 34 134 0z" horiz-adv-x="1000" />

<glyph glyph-name="kcal-monitor" unicode="&#xe83a;" d="M910 350c0-224-181-407-405-410l-10 0c-224 3-404 186-404 410 0 226 183 410 409 410 226 0 410-184 410-410m-293 116c88-217 17-319-86-334 37 27 62 90 49 130-17 53-65 78-65 78 0 0 6-82-14-122-17 6-27 20-41 63-30-48-26-112-2-143-90 36-138 178-68 289 14-29 31-57 56-71 41 78 20 208 20 208 0 0 102-71 102-174 31 14 49 46 49 76" horiz-adv-x="1000" />

<glyph glyph-name="track-start" unicode="&#xe83b;" d="M729 508c5 7-2 12-10 9-266-106-158 180-364 29l-43-16 85-335 47 0-42 164c184 154 110-167 327 149z m-229 236c189 0 341-153 341-341 0-173-128-316-295-338l-46-109-46 109c-167 22-295 165-295 338 0 188 153 341 341 341" horiz-adv-x="1000" />

<glyph glyph-name="track-end" unicode="&#xe83c;" d="M471 503c-20 2-39-6-56-17l-8 48c12 8 25 15 39 17 5 1 11 1 17 1l8-49m122-23c-17-4-36-3-60 3l-8 48c20-5 38-6 54-3 2 0 3 1 5 1l9-49m-87-44c-8 4-16 6-24 6l-11 61c8 0 16-2 24-6 14-6 27-10 38-14l11-61c-11 3-24 8-38 14m-109-107c10 12 24 25 40 35l8-48c-15-9-29-21-40-33l-8 46m-22 122c10 12 24 25 40 35l11-61c-16-10-30-23-40-35l-11 61m310-133c4 4 6 10 5 17l-41 231c-3 17-20 18-28 11-16-14-31-22-46-24-23-4-50 1-85 17-15 7-32 9-49 6-44-8-81-47-97-69l-1-2c-1 0-2 0-3 0-7-1-12-8-10-14l54-307 27-10-11 63 8 11c12 17 45 52 81 59 12 2 23 1 34-4 40-18 71-24 99-19 22 4 42 14 63 34z m-185 426c189 0 341-153 341-341 0-173-128-316-295-338l-46-109-46 109c-167 22-295 165-295 338 0 188 153 341 341 341m44-322c24-6 43-7 60-3l10-61c-16-4-36-3-59 3l-11 61m-51-41c8 0 16-2 24-6 14-6 27-11 38-14l8-47c-9 3-19 7-30 11-10 5-21 7-32 7l-8 49m-67 44c17 11 36 18 56 17l11-61c-20 1-39-6-56-17l-11 61" horiz-adv-x="1000" />

<glyph glyph-name="dots" unicode="&#xe83d;" d="M607 308c-24 0-43 19-43 42 0 24 19 43 43 43 23 0 42-19 42-43 0-23-19-42-42-42z m-107 106c-23 0-42 19-42 43 0 23 19 42 42 42 24 0 43-19 43-42 0-24-19-43-43-43z m-25-64c0 14 11 25 25 25 14 0 25-11 25-25 0-14-11-25-25-25-14 0-25 11-25 25z m25-149c-23 0-42 19-42 42 0 24 19 43 42 43 24 0 43-19 43-43 0-23-19-42-43-42z m-107 107c-23 0-42 19-42 42 0 24 19 43 42 43 24 0 43-19 43-43 0-23-19-42-43-42" horiz-adv-x="1000" />

<glyph glyph-name="heartpulse" unicode="&#xe83e;" d="M602 290l147 200c25-50 15-111-29-152l-220-202-125 115 54 80 51-53c17-19 41-28 65-25 23 3 44 16 57 37m-307 35l-15 13c-57 52-57 138 0 191 52 47 134 47 185 0l35-32 35 32c35 32 86 42 131 29l-133-180-49 52c-17 18-40 27-64 25-24-2-46-15-60-35l-65-95m-18-125l127 189c10 15 29 17 41 4l74-78c12-13 29-11 39 5l177 235" horiz-adv-x="1000" />

<glyph glyph-name="gradient-down" unicode="&#xe83f;" d="M327 213l0 297c0 16 12 18 23 7l317-316c11-11 7-25-8-25l-298 0c-15 0-34 22-34 37" horiz-adv-x="1000" />

<glyph glyph-name="feed" unicode="&#xe840;" d="M375 350a125 125 0 1 1 250 0 125 125 0 1 1-250 0z m274 275c97-53 164-156 164-275 0-119-67-222-164-275 43 69 70 166 70 275 0 109-27 206-70 275z m-368-275c0-109 27-206 70-275-97 53-163 156-163 275 0 119 66 222 163 275-43-69-70-166-70-275z m-187 0c0-168 53-318 137-422-139 89-231 245-231 422 0 177 92 333 231 422-84-103-137-254-137-422z m675 422c139-89 231-245 231-422 0-177-92-333-231-422 84 104 137 254 137 422 0 168-53 319-137 422z" horiz-adv-x="1000" />

<glyph glyph-name="flashlight" unicode="&#xe841;" d="M856 706c-84 84-189 114-223 81l-134-135c-21-21-39-89-31-158l-408-408c-24-24-4-83 44-132 49-48 108-68 132-44l408 409c69-9 137 9 158 30l135 134c33 34 3 139-81 223z m-449-408c-19 19-12 55 14 81 26 26 62 32 80 13 19-18 13-54-13-80-26-27-62-33-81-14z m338 297c-65 64-82 150-76 156 6 6 88-14 153-79 65-65 85-147 79-153-6-5-92 11-156 76z" horiz-adv-x="1000" />

<glyph glyph-name="folder-open" unicode="&#xe842;" d="M813-88l187 501-812 0-188-501z m-688 563l-125-563 0 813 281 0 125-125 407 0 0-125z" horiz-adv-x="1000" />

<glyph glyph-name="folder-video" unicode="&#xe843;" d="M920 710c-5 22-33 40-60 40h-720c-27 0-55-18-60-40l-10-60h860l-10 60z m51-110h-942c-17 0-30-15-28-32l46-583c2-20 18-35 38-35h830c20 0 36 15 38 35l47 583c1 17-12 32-29 32z m-571-450v250l219-125-219-125z" horiz-adv-x="1000" />

<glyph glyph-name="image" unicode="&#xe844;" d="M813 538h-125l-63 125h-250l-62-125h-125c-38 0-63-25-63-63v-375c0-31 25-62 63-62h625c31 0 62 25 62 62v375c0 38-25 63-62 63z m-313-438c-106 0-187 81-187 188s81 187 187 187 188-81 188-187-82-188-188-188z m0 313c-69 0-125-57-125-125s56-125 125-125 125 56 125 125-56 125-125 125z" horiz-adv-x="1000" />

<glyph glyph-name="circle" unicode="&#xe845;" d="M500 713c97 0 188-37 257-106s106-160 106-257-37-188-106-257-160-106-257-106-188 38-257 106-106 160-106 257 38 188 106 257 160 106 257 106m0 28c-216 0-391-175-391-391s175-391 391-391 391 175 391 391-175 391-391 391l0 0z" horiz-adv-x="1000" />

<glyph glyph-name="kegel-1" unicode="&#xe846;" d="M500 850c276 0 500-224 500-500s-224-500-500-500-500 224-500 500 224 500 500 500z m-48-320c135 0 245-110 245-245s-110-245-245-245-245 110-245 245 109 245 245 245z m40-440c-136 0-245 110-245 245 0 46 13 90 35 126-46-44-75-107-75-176 0-135 109-245 245-245 89 0 167 48 210 119-44-43-104-69-170-69z m186 100c1 13 2 27 2 42 0 69-15 118-47 179-11 19-18 40-22 61-23 19-50 34-79 44 1-36-7-72-26-105-30-54-46-116-46-179 0-62 16-124 46-179h1c1-2 4-3 7-5 74 20 134 73 164 142z m-186-100l-3 0c5-12 11-25 17-37h1c1-2 4-3 7-5l1 0 8 3 6 2 8 2 6 3 7 3 7 3 7 3 6 4 7 3 6 4 6 4c2 2 5 3 7 5l5 4c3 2 5 4 8 6l3 3c4 3 8 7 11 10l2 2c3 3 6 6 8 9l4 3c2 3 4 5 6 8l3 4c2 3 4 5 6 8l3 4c2 3 4 6 5 8l1 2c-44-42-103-68-169-68z m218 142c0 69-15 118-47 179-24 43-32 92-23 140l16 80c0 4 1 6 1 11 0 32-26 58-58 58-31 0-57-26-57-58 0-4 0-7 1-11l16-80c8-47 1-97-23-140-30-54-46-116-46-179 0-62 16-124 46-179h1c6-7 32-13 63-13 33 0 61 7 63 15 33 60 47 109 47 177z m-283 213c0 14-11 25-25 25s-25-11-25-25 11-25 25-25 25 11 25 25z m65 15c-14 0-25-11-25-25s11-25 25-25 25 11 25 25-11 25-25 25z m-50-60c-14 0-25-11-25-25s11-25 25-25 25 11 25 25-11 25-25 25z m125-347h-1c-30 55-46 117-46 179 0 63 16 125 46 179 24 43 31 93 23 140l-16 80c0 4-1 6-1 11 0 27 18 49 42 56-4 1-10 2-15 2-31 0-56-26-56-58 0-6 0-7 0-11l16-80c8-47 1-97-23-140-30-54-46-116-46-179 0-62 16-124 46-179h1c6-7 32-13 63-13 5 0 10 0 15 1-24 1-43 6-48 12z m76 407c-3 13-5 27-6 40h-75c-1-13-3-27-6-40h87z m-86 100l2-9c2-10 3-20 3-31h75c0 10 1 20 3 31l2 9h-85z m2-9c2-10 3-20 3-31h30c0 11-1 21-3 31l-2 9h-30l2-9z m3-51c-1-13-3-27-6-40h30c3 13 5 27 6 40h-30z m-166-35c14 0 25-12 25-25 0-6-2-12-6-16 7 5 12 12 12 21 0 14-11 25-25 25-8 0-15-4-20-9 4 2 9 4 14 4z m46-65c-8 0-15-4-20-9 4 2 9 4 14 4 14 0 25-12 25-25 0-6-2-12-6-16 7 5 12 12 12 21 0 14-11 25-25 25z m50 60c-8 0-15-4-20-9 4 2 9 4 14 4 14 0 25-12 25-25 0-6-2-12-6-16 7 5 12 12 12 21 0 14-11 25-25 25z" horiz-adv-x="1000" />

<glyph glyph-name="kegel" unicode="&#xe847;" d="M447-9c-6-10-9-16-9-16l-125 0c0 0-63 94-63 220 0 81 27 149 45 186l0 0 160 0c7-14 16-34 24-57-62-35-104-101-104-177 0-62 28-118 72-156l0 0 0 0z m-134 422l0 62 125 0 0-62-125 0 0 0 0 0z m-3 93c-8 43-29 71-29 110 0 34 32 78 94 78 63 0 94-44 94-78 0-39-21-67-29-110l-130 0 0 0 0 0z m268-531c95 0 172 77 172 172 0 95-77 172-172 172-95 0-172-77-172-172 0-95 77-172 172-172l0 0z m0 250c9 0 16 7 16 16 0 8-7 15-16 15-8 0-15-7-15-15 0-9 7-16 15-16l0 0z m-31-62c9 0 16 7 16 15 0 9-7 16-16 16-9 0-16-7-16-16 0-8 7-15 16-15l0 0z m62 0c9 0 16 7 16 15 0 9-7 16-16 16-8 0-15-7-15-16 0-8 7-15 15-15l0 0z" horiz-adv-x="1000" />

<glyph glyph-name="8 ball" unicode="&#xe848;" d="M500 850c-276 0-500-224-500-500 0-276 224-500 500-500s500 224 500 500c0 276-224 500-500 500z m69-730c-117-12-222 72-234 188-12 117 73 221 191 233 117 12 222-72 235-188 12-117-74-221-192-233z m31 210c-5 4-10 7-15 11-2 1-12 7-13 6 8 6 17 13 23 22 4 7 6 17 6 24 1 15-7 29-18 38-12 11-32 14-48 13-13-2-25-8-35-15-16-12-24-32-22-51 1-25 22-45 45-54-4-1-10-5-13-7-5-4-10-9-14-14-20-23-12-54 9-73 5-5 11-8 18-10 23-8 53-3 73 11 19 13 28 37 26 59-2 16-11 30-22 40z m-86 48c-4 5-6 10-7 16 0 8 2 16 7 23 6 6 13 10 22 11 9 1 17-2 24-7 6-6 10-15 11-27 1-9 1-16-1-23-1-4-4-9-8-14l-3-4c-15 6-25 10-29 12-7 4-13 9-16 13z m69-133c-6-7-14-10-25-12-10-1-19 2-27 9-8 7-12 18-14 31-1 13 2 24 8 34 5 6 8 10 10 10 1 0 8-2 20-8 13-6 21-12 26-18 5-5 7-12 8-21 1-10-1-18-6-25z" horiz-adv-x="1000" />

<glyph glyph-name="arrow_right" unicode="&#xe849;" d="M643-18l350 350c9 10 9 26 0 36l-350 350c-10 9-26 9-36 0s-9-27 0-36l308-309h-890c-14 0-25-9-25-23s11-23 25-23h890l-308-309c-5-4-7-11-7-18s2-13 7-18c10-9 26-10 36 0z" horiz-adv-x="1000" />

<glyph glyph-name="arrow_right-1" unicode="&#xe84b;" d="M643-18l350 350c9 10 9 26 0 36l-350 350c-10 9-26 9-36 0s-9-27 0-36l308-309h-890c-14 0-25-9-25-23s11-23 25-23h890l-308-309c-5-4-7-11-7-18s2-13 7-18c10-9 26-10 36 0z" horiz-adv-x="1000" />

<glyph glyph-name="wattbike" unicode="&#xe84c;" d="M874 331a239 239 0 0 1-38-3l-50 172a14 14 0 0 1-17 10l-17-4-44 178h114c42 0 62-12 67-23a16 16 0 0 0-4-18c-15-16-62-22-88-23a14 14 0 0 1 0-28h0c8 0 80 1 109 32a44 44 0 0 1 9 48 60 60 0 0 1-31 29c48 18 99 53 171 124a14 14 0 0 1-20 21c-135-133-190-133-282-133h-63a14 14 0 0 1-14-18l48-196-17-4a14 14 0 0 1-9-6c-1-2-111-166-241-166-126 0-174 105-178 114l-21 64a14 14 0 0 1-18 9l-23-8-47 149 44 2a135 135 0 0 1 97 55l8 10a14 14 0 0 1-11 23l-266 20a14 14 0 0 1-15-14c0-65 29-97 86-97h27l50-157-23-7a14 14 0 0 1-10-18c50-153 49-319 49-374v-1c0-1 0-1 0-1s0 0 0 0l0-7a80 80 0 0 1 1-10c0-1 0-3 0-4l-202-183a14 14 0 0 1 9-25h106a14 14 0 0 1 8 3l150 118 6 3a108 108 0 0 1 11-2 324 324 0 0 1 34-10l23-96a14 14 0 0 1 11-11l89-18a15 15 0 0 1 3 0 14 14 0 0 1 12 6 42 42 0 0 1 6 36c-8 30-49 51-54 53a14 14 0 1 1-12-26c11-5 35-21 38-35a12 12 0 0 0 1-3l-69 13-18 76a801 801 0 0 1 120-8 1664 1664 0 0 1 188 12 239 239 0 1 1 207 357z m-761 347c-31 0-53 10-57 53l224-17a106 106 0 0 0-68-33l-61-3z m530-468c-27 3-57 6-87 8 79 65 159 127 176 132 6-3 15-27 17-54 0 0 0 0 0-1a240 240 0 0 1-84-88z m-454 253l46 15 17-51c0 0 0-1 0-1 1-1 57-131 205-131 134 0 242 144 262 173l43 11 46-158c-4-1-7-2-10-3l-22-4c-4 26-16 66-45 65-26-2-144-97-216-158-94 6-190 3-249-32a110 110 0 0 1-32-24c-2 76-12 189-45 298z m140-367a14 14 0 1 1-28-6l19-78c-2 0-3 0-5 0a81 81 0 1 0 33 7z m-214-204h-63l165 150a93 93 0 0 1 16-21 110 110 0 0 1 21-19z m254 105a109 109 0 0 1-5 193 604 604 0 0 0 82 5 1899 1899 0 0 0 194-14c40-4 76-8 103-9v-159a1926 1926 0 0 0-226-22 880 880 0 0 0-148 6z m505-115a210 210 0 0 0-176 96c27 3 49 7 61 9a14 14 0 0 1 12 14v40a115 115 0 1 1 0 102v44a14 14 0 0 1-4 10 14 14 0 0 1-10 4 571 571 0 0 0-60 3 210 210 0 1 0 177-322z m-86 210a86 86 0 1 0 86-86 86 86 0 0 0-86 86z" horiz-adv-x="1113" />

<glyph glyph-name="stages" unicode="&#xe84d;" d="M1067 180a208 208 0 0 1-180 205c-7 34-13 64-18 91l120 51a15 15 0 0 1 9 13l4 68 64 64a15 15 0 0 1-11 26h-53v73h29a15 15 0 0 1 0 31h-213v33a15 15 0 0 1-31 0v-49a15 15 0 0 1 15-15h84c-10-73-94-82-132-82a15 15 0 0 1 0-30c62 0 108 17 136 48v-62c-23-21-45-40-68-58-32-24-65-49-89-66-210-141-398-173-445-179l-97 260h132a15 15 0 1 1 0 30h-43l-23 72 47 2a144 144 0 0 1 104 59l9 11a15 15 0 0 1-12 25l-285 21a15 15 0 0 1-16-15c0-69 31-104 92-104h29l23-71h-215a15 15 0 0 1 0-30h48l101-303c-72-93-127-310-139-361a15 15 0 0 1-7-6l-34-59a15 15 0 0 1 13-23h113a15 15 0 0 1 14 10l20 60a15 15 0 0 1-8 18c14 45 45 89 85 131 8-8 14-14 17-17 22-21 77-70 116-70a336 336 0 0 1 58 10l7-31a15 15 0 0 1 12-12l89-18a16 16 0 0 1 3 0 15 15 0 0 1 13 7 43 43 0 0 1 7 36c-5 19-23 34-37 43 52 15 110 32 163 48a208 208 0 0 1 172-93c4 0 7 0 11 0l11-33a15 15 0 0 1-11-19l19-60a15 15 0 0 1 15-10h112a15 15 0 0 1 14 23l-34 59a15 15 0 0 1-13 8q-7 30-15 63a208 208 0 0 1 99 177z m-871 553c-33 0-56 11-61 57l240-18a114 114 0 0 0-73-35l-66-4z m840-553a177 177 0 0 0-75-145c-25 106-49 221-68 319a177 177 0 0 0 143-174z m-307 301c14 9 41 28 95 68 16-87 74-392 128-609h-39z m-27-17l18-54c-41-19-103-48-173-86-40 9-76 17-105 21a1176 1176 0 0 1 260 119z m28-83l11-31a210 210 0 0 1-57-59l0 0q-49 12-91 22c55 29 103 52 137 68z m21-62l17-48c-17 3-34 8-52 12a179 179 0 0 0 35 36z m164 308a15 15 0 0 1 5 12v132h52v-89a15 15 0 0 1 15-15h31l-42-42a15 15 0 0 1-5-10l-3-64-105-44c-6 30-10 52-12 64 22 17 43 36 64 56z m-798-746h-75l16 28h68z m5 59h-47c16 63 70 267 136 346a15 15 0 0 1 2 14l-99 302h45l104-282a15 15 0 0 1 16-10c2 0 11 1 25 3-57-45-121-119-121-156 0-18 18-44 36-65-50-52-83-103-97-152z m250 73c-44 0-158 118-158 144 0 28 98 140 156 160a59 59 0 0 0 19 2c54 0 187-33 288-58 36-9 71-17 103-25l34-101c-120-37-270-81-361-105l-6 23a118 118 0 1 1-30-7l6-24a304 304 0 0 0-51-9z m45 165a15 15 0 0 1-30-7l23-95c-2 0-4 0-6 0a87 87 0 1 0 36 8z m76-178c11-5 34-20 38-34a14 14 0 0 0 0-2l-66 13-5 23q12 3 26 7a15 15 0 0 1 7-7z m225 74c42 13 79 24 106 32l35-103a177 177 0 0 0-141 71z m197-193l-10 28h69l16-28z" horiz-adv-x="1070" />

<glyph glyph-name="keiser" unicode="&#xe84e;" d="M1100 847c-103 16-132-31-158-73a244 244 0 0 0-26-37c-21-23-62-21-102-19-37 2-73 3-92-17a14 14 0 1 1 20-19c11 11 41 9 71 8a346 346 0 0 1 70 2c-101-136-314-399-405-417-31 11-109 61-155 199q-1 4-3 8c-2 8-4 16-6 23l0 0-42 130 44 3a133 133 0 0 1 96 54l8 11a14 14 0 0 1-11 22l-263 19a14 14 0 0 1-15-14c0-63 29-96 85-96h27l44-137q4-17 9-32c19-60 47-155 46-207a194 194 0 1 1 21-217l22-10a147 147 0 0 1 34-28l29-75h-270a14 14 0 0 1-12-6l-33-50a14 14 0 1 1 24-16l29 44h657l35-45a14 14 0 0 1 22 18l-82 105a14 14 0 1 1-23-17l27-33h-271l-22 59a145 145 0 0 1 64 36l41-37a14 14 0 0 1 7-3l82-16a14 14 0 0 1 3 0 14 14 0 0 1 11 6 40 40 0 0 1 6 33c-7 29-46 47-50 49a14 14 0 1 1-12-25c10-5 32-18 35-31a12 12 0 0 0 1-2l-67 13-39 34a145 145 0 0 1-10 181s356 520 365 534c25 41 45 74 130 60 11-2 37-7 37-21 1-23-50-68-136-88a14 14 0 1 1 6-28c92 22 160 72 158 117-1 14-9 40-61 48z m-884-185c-31 0-53 10-56 53l222-16a106 106 0 0 0-68-34l-61-3z m223-399a146 146 0 0 1-48-31l-25-10-1 3c9 25 5 66-5 114a287 287 0 0 1 79-76z m-245-295a166 166 0 1 0 146 243l-152-64a14 14 0 0 1 0-26l150-69a166 166 0 0 0-144-84z m155 110l-121 55 123 52q2-6 3-12a143 143 0 0 1-1-84c-1-4-3-7-4-11z m171-148l-43-2-22 60a145 145 0 0 1 38-6h0c2 0 5 1 7 1z m70 132l-88 77a14 14 0 1 1-18-21l88-77a117 117 0 1 0 18 21z m-10 182a145 145 0 0 1-50 25c53 32 117 95 178 163z" horiz-adv-x="1161" />

<glyph glyph-name="bodybike" unicode="&#xe84f;" d="M1063-126l-53 69a15 15 0 0 1 3 6c0 3 67 329-132 681a15 15 0 0 1-13 8 417 417 0 0 1-55-3c0 0 0 1 0 1l-26 59a718 718 0 0 1 140 35 209 209 0 0 1 108 99 15 15 0 0 1-27 12 181 181 0 0 0-92-83 686 686 0 0 0-126-32l14 31 116 23a15 15 0 0 1-6 29l-123-24a15 15 0 0 1-11-8l-28-62a15 15 0 0 1-2-7 15 15 0 0 1 2-7l30-71c-82-13-218-49-377-148a36 36 0 0 0-32-5c-35 10-66 69-76 90a15 15 0 0 1-20 8l-10-5-35 104a15 15 0 0 1-15 10h-10l-7 21 45 2a140 140 0 0 1 102 58l8 11a15 15 0 0 1-11 24l-277 20a15 15 0 0 1-16-15c0-67 30-101 89-101h29l6-20h-98a15 15 0 0 1 0-30h130l32-97-38-17a15 15 0 0 1-8-11c-1-6-28-148-12-257 2-11 3-23 5-35 7-52 15-110 35-149a67 67 0 0 1 23-23 654 654 0 0 1-174-104l0 0a15 15 0 0 1-2-2l-65-85a15 15 0 1 1 24-18l60 79c61 3 508 26 889 3l63-82a15 15 0 0 1 24 18z m-923 860c-32 0-55 10-59 55l233-17a111 111 0 0 0-71-35l-64-3z m-13-767c59 42 121 71 159 80a15 15 0 0 1 5 27 102 102 0 0 1-11 6c-10 5-27 13-32 23-18 33-26 89-32 138-2 13-4 25-5 36-14 90 5 208 10 239l55 26c14-26 46-81 89-94a66 66 0 0 1 56 9c221 136 398 150 438 151 167-300 136-578 126-640-335 21-724 5-858-1z m762 488l-156 82a15 15 0 0 1-13 1l-212-83a15 15 0 0 1-9-7l-66-141a98 98 0 0 1-54-20l0 0 0 0a99 99 0 0 1 114-161l416-116a15 15 0 0 1 4-1 15 15 0 0 1 14 10c42 126-27 414-30 426a15 15 0 0 1-8 10z m-355-218a98 98 0 0 1-38 53l80 22z m-149-70a69 69 0 1 0 96-13 69 69 0 0 0-96 13z m518-124l-384 107c1 2 3 4 4 6 0 0 0 1 0 1l1 0c1 2 2 4 3 6l88 158 46-4q1 0 2 0a15 15 0 0 1 1 30l-56 4c0 0 0 0 0 0s-1 0-1 0a15 15 0 0 1-4 0c0 0 0 0 0 0l-134-38 55 117 201 78 144-77c10-42 61-275 34-388z" horiz-adv-x="1066" />

<glyph glyph-name="vimeo" unicode="&#xe850;" d="M500 850c-276 0-500-224-500-500 0-276 224-500 500-500s500 224 500 500c0 276-224 500-500 500z m-261-449c0 0 48 38 64 19 16-19 76-245 96-286 18-37 66-85 120-51 53 35 230 186 262 365 32 178-213 141-239-15 65 39 99-16 66-78-33-62-63-102-79-102-16 0-28 41-46 114-19 75-19 210-97 194-73-14-170-129-170-129l23-31z" horiz-adv-x="1000" />

<glyph glyph-name="facebook" unicode="&#xe851;" d="M500 850c-276 0-500-224-500-500 0-276 224-500 500-500s500 224 500 500c0 276-224 500-500 500z m-72-778h115v278h77l10 96h-87l0 48c0 25 2 38 38 38h48v96h-77c-92 0-124-46-124-124v-58h-58v-96h58v-278z" horiz-adv-x="1000" />

<glyph glyph-name="linked" unicode="&#xe852;" d="M500 850c-276 0-500-224-500-500 0-276 224-500 500-500s500 224 500 500c0 276-224 500-500 500z m259-717v192c0 103-55 150-128 150-59 0-85-32-100-55v48h-111c1-32 0-335 0-335h111v187c0 10 1 20 4 27 8 20 26 41 57 41 40 0 56-31 56-76v-179l111 0 0 0z m-456 380c38 0 63 26 63 58-1 33-25 58-63 58s-62-25-62-58c0-32 24-58 61-58h1z m55-380v335h-111v-335h111z" horiz-adv-x="1000" />

<glyph glyph-name="instagram" unicode="&#xe853;" d="M500 850c-276 0-500-224-500-500 0-276 224-500 500-500s500 224 500 500c0 276-224 500-500 500z m189-248h-378c-36 0-63-27-63-63v-378c0-36 27-63 63-63h378c36 0 63 27 63 63v378c0 36-27 63-63 63z m-189-153c56 0 102-44 102-98 0-54-46-98-102-98-56 0-101 44-101 98 0 54 45 98 101 98z m189-273c0-11-4-15-15-15h-347c-11 0-16 4-16 15v221l39-8c-4-14-6-29-6-44 0-84 70-152 156-152 87 0 157 68 157 152 0 15-2 30-6 44l38 8v-221z m0 284c0-8-7-15-15-15h-64c-8 0-15 7-15 15v63c0 9 7 16 15 16h64c8 0 15-7 15-16v-63z" horiz-adv-x="1000" />

<glyph glyph-name="bluetooth" unicode="&#xe854;" d="M580 350l198-198c17-17 17-45 0-62l-226-226c-28-28-73-11-73 28v357l-156-156c-45-45-97 21-63 56l202 201-202 201c-34 35 18 101 63 56l156-156v357c0 39 45 56 73 28l226-226c17-17 17-45 0-62z m-17-358l128 129-128 128v-257z m0 716v-257l128 128z" horiz-adv-x="1000" />

<glyph glyph-name="bowling ball" unicode="&#xe855;" d="M500-144c-273 0-494 221-494 494 0 272 220 493 492 494h5c270-1 490-221 491-491v-5c-1-272-222-492-494-492m-281 303h272m149 0h135m-117 0c0-49-40-89-90-89-50 0-90 40-90 89 0 50 40 90 90 90 50 0 90-40 90-90z m-439 387h360m149 0h47m-30 0c0-50-40-90-90-90-49 0-90 40-90 90 0 49 41 90 90 90 50 0 90-41 90-90z m-526-193h110m149 0h297m-279 0c0-50-41-90-90-90-50 0-90 40-90 90 0 49 40 89 90 89 49 0 90-40 90-89z" horiz-adv-x="1000" />

<glyph glyph-name="all-senses" unicode="&#xe856;" d="M6 350c0 273 222 494 494 494 273 0 493-220 494-492v-4c-1-271-221-491-493-492h-2c-272 1-493 222-493 494m402 179c0 52 43 94 95 94 52 0 94-42 94-94 0-53-42-95-94-95-52 0-95 42-95 95m-92-341c0 11 0 28 1 38 0 0 12 156 183 156h3 3c171 0 182-156 182-156 1-10 2-27 2-38v-109c0-10-8-19-18-19h-169-170c-9 0-17 9-17 19v109m-84 67c-5-4-10-5-16-5h-2c-9 0-18 5-24 13-34 51-52 111-52 173 0 60 17 119 50 169 9 14 28 18 42 9 14-9 18-27 9-41-27-41-41-89-41-137 0-50 15-98 42-140 9-14 6-32-8-41m91 78c-5-4-11-5-16-5h-2c-9 0-18 5-24 13-19 28-28 61-29 94v1c1 33 10 65 28 92 9 14 28 18 41 9 14-9 18-28 9-41-11-18-18-39-18-61 0-21 7-43 19-61 9-14 5-32-8-41m446-78c-14 9-18 27-8 41 27 42 42 90 42 140 0 48-14 96-41 137-9 14-5 32 9 41 14 9 32 5 42-9 32-50 50-109 50-169v-1c0-61-18-121-53-172-5-8-14-13-24-13h-1c-6 0-11 1-16 5m-91 78c-14 9-17 27-8 41 12 18 18 40 18 61 0 22-6 43-17 61-9 13-6 32 8 41 14 9 33 5 42-9 18-27 27-58 27-91v-3c0-33-10-65-28-93-6-9-15-13-25-13h-1c-5 0-11 1-16 5" horiz-adv-x="1000" />

<glyph glyph-name="film-1" unicode="&#xe857;" d="M500-144c-273 0-494 221-494 494 0 273 221 494 494 494 272 0 493-220 494-491v-6c-1-271-222-491-494-491m257 670h-485v-347h485z m72-244c-24 0-43-19-43-43 0-24 19-43 43-43l0-48-633 0 0 48c24 0 43 19 43 43 0 24-19 43-43 43v35c24 0 43 20 43 43 0 24-19 43-43 43v36c24 0 43 19 43 43 0 23-19 42-43 42v38h633l0-38c-24 0-43-19-43-42 0-24 19-43 43-43v-36c-24 0-43-19-43-43 0-23 19-43 43-43v-35m-329 4l-78-41 15 86-63 62 87 12 39 79 39-79 86-12-62-62 14-86" horiz-adv-x="1000" />

<glyph glyph-name="instructor" unicode="&#xe858;" d="M994 350c0-272-219-493-491-494h-5c-272 1-492 222-492 494 0 273 222 494 494 494 273 0 494-221 494-494m-516 393c4-4 7-9 8-15 3-17-7-32-23-36-49-9-94-33-129-68-34-35-58-78-68-126-3-16-19-26-35-23-17 3-27 19-23 35 12 59 41 113 84 156 43 44 99 73 159 85 10 2 20-1 27-8m9-119c4-5 7-10 8-16 4-16-7-32-23-35-22-4-41-15-57-30-15-15-25-34-30-55-3-17-19-27-35-24-16 4-27 20-23 36 7 32 23 62 46 85 24 24 54 40 87 47 10 2 20-2 27-8m185-105c0-26-21-48-48-48-27 0-48 22-48 48 0 27 21 49 48 49 27 0 48-22 48-49m108-314c0-65-52-117-117-117-65 0-117 52-117 117 0 65 52 117 117 117 65 0 117-52 117-117z m-352 0c0-65-53-117-117-117-65 0-118 52-118 117 0 65 53 117 118 117 64 0 117-52 117-117z m266 202c11 0 21-11 21-22 0-11-10-21-21-21h-93c-13 0-18 5-18 5l-39 51c-5 7-9 2-14-1-5-2-70-53-70-53 0 0 34-19 54-33 20-14 16-26 13-43l-20-112c0 0-6-21-26-18-20 3-19 25-19 25l13 104-55 34c-20 13-48 28-48 53 0 25 15 40 21 46l65 49c23 18 44 32 59 32 15 0 28-5 38-19l53-77h86" horiz-adv-x="1000" />

<glyph glyph-name="hardware" unicode="&#xe859;" d="M500-144c-273 0-494 221-494 494 0 273 221 494 494 494h1c272 0 492-220 493-492v-4c-1-272-222-492-494-492m17 565v-358l-284 130v358z m250 130v-358l-283-130v358z m-381-225v140l235 111m169-51l-290-133-290 133 290 133z" horiz-adv-x="1000" />

<glyph glyph-name="toolbox-2" unicode="&#xe85a;" d="M6 350c0 273 221 494 494 494 272 0 493-220 494-492v-4c-1-271-221-491-493-492h-2c-272 1-493 222-493 494m414-41h160v74h-160z m-26 177h212v97h-212z m385-279v231c0 15-12 28-28 28h-502c-16 0-28-13-28-28v-231c0-15 12-28 28-28h502c16 0 28 13 28 28z m-14 305c31 0 57-26 57-58v-263c0-32-26-58-57-58h-529c-32 0-58 26-58 58v263c0 32 26 58 58 58h529m-568-129h223m158 0h218" horiz-adv-x="1000" />

<glyph glyph-name="workout-log" unicode="&#xe85b;" d="M994 350c0-272-220-493-491-494h-6c-271 1-491 222-491 493v2c0 272 221 493 494 493 273 0 494-221 494-494m-434-27h184m-390-115h390m-390-116h390m-252 322h59l-141-130-142 130h17c15 0 28 8 35 21l13 24 37-104c5-14 17-23 31-26 2 0 4 0 6 0 12 0 24 5 31 15l54 70m-230 79h-57c-10 36 0 75 30 103 41 38 107 38 147 0l28-25 27 25c41 38 107 38 147 0 31-28 41-67 30-103h-141c-12 0-24-6-31-15l-22-29-42 120c-5 14-19 25-34 26-16 1-30-7-38-21l-44-81m145-135c0 0-1 0-1 0-4 1-8 4-9 7l-58 156-45-77c-2-4-6-7-10-7l-119 1c-6 0-11 4-11 11 0 6 5 10 11 10l113 1 53 92c2 4 6 7 11 6 4 0 8-3 9-7l60-160 56 67c2 2 5 2 9 2l165-1h0c6 0 11-3 11-9 0-6-5-10-11-11l-160 0-65-77c-2-3-5-4-9-4" horiz-adv-x="1000" />

<glyph glyph-name="special effects" unicode="&#xe85c;" d="M994 350c0-273-221-494-494-494-272 0-493 220-494 492v4c1 271 220 491 492 492h5c271-1 491-222 491-494m-494-158l-185-97 35 206-150 146 207 30 93 188 93-188 207-30-150-146 35-206" horiz-adv-x="1000" />

<glyph glyph-name="iocner-en-og-en_074" unicode="&#xe85d;" d="M500-144c-273 0-494 221-494 494 0 272 220 493 492 494h5c270-1 490-221 491-491v-5c-1-272-222-492-494-492m-281 303h272m149 0h135m-117 0c0-49-40-89-90-89-50 0-90 40-90 89 0 50 40 90 90 90 50 0 90-40 90-90z m-439 387h360m149 0h47m-30 0c0-50-40-90-90-90-49 0-90 40-90 90 0 49 41 90 90 90 50 0 90-41 90-90z m-526-193h110m149 0h297m-279 0c0-50-41-90-90-90-50 0-90 40-90 90 0 49 40 89 90 89 49 0 90-40 90-89z" horiz-adv-x="1000" />

<glyph glyph-name="class-metrics" unicode="&#xe85e;" d="M500-144c-272 0-494 221-494 494 0 273 221 494 494 494h1c272 0 492-220 493-492v-4c-1-272-221-492-494-492m241 706c34 0 61-27 61-61v-302c0-34-27-61-61-61h-454c-33 0-61 27-61 61v302c0 34 28 61 61 61h454m-251-147l-131-205c-3-5-8-8-14-8-3 0-6 1-9 3-8 5-10 15-5 23l139 219c3 4 6 6 11 7 4 1 9 1 13-2l91-58 84 121c6 8 16 9 24 4 7-5 9-16 4-23l-93-135c-6-7-16-9-23-4z m182-82c7 6 17 5 24-2 6-6 5-17-2-23l-93-84c-3-3-7-5-11-5-4 0-8 1-11 4l-106 82-20 5 19 30 13-3c2-1 4-2 6-4l98-75z m-331 5c-9 2-15 11-12 20 2 9 11 14 20 12l36-9-19-30-25 7" horiz-adv-x="1000" />

<glyph glyph-name="scenery-1" unicode="&#xe85f;" d="M500-144c-273 0-494 221-494 494 0 272 220 493 492 494h5c270-1 490-221 491-491v-5c-1-272-222-492-494-492m146 794c0 36 29 65 65 65 35 0 64-29 64-65 0-35-29-64-64-64-36 0-65 29-65 64m-55-218l-84-189 145 258 190-303c0 0-150-110-324-45-62 22-228 82-391 45l314 495 150-261m-141-117l124 217 161-255c0 0-127-92-276-38-52 19-193 69-332 38l267 417 128-219m-191 8l109 171 98-170-50-44-48 67-49-66m202-84l58 104 60-104-59-57z" horiz-adv-x="1000" />

<glyph glyph-name="layout-1_side-72" unicode="&#xe860;" d="M0-150h1000v1000h-1000z m500 7c-272 0-493 221-493 493 0 272 220 493 493 493h1c271 0 492-220 492-491v-4c0-271-221-491-493-491m241 705c33 0 60-27 60-61v-302c0-34-27-61-60-61h-454c-34 0-61 27-61 61v302c0 34 27 61 61 61h454m-252-147l-130-205c-3-5-8-7-14-7-3 0-6 0-9 2-8 5-10 16-5 23l139 219c2 4 6 6 11 7 4 1 9 0 12-2l92-58 84 121c5 7 15 9 23 4 8-5 10-16 4-23l-93-135c-5-7-15-9-23-4z m182-82c7 6 18 5 24-1 6-7 6-18-1-24l-93-84c-4-3-8-5-12-5-3 0-7 2-10 4l-106 82-20 5 19 30 13-3c2-1 4-2 6-4l97-75z m-330 5c-9 2-15 11-12 20 2 9 11 14 20 12l36-9-19-30-25 7" horiz-adv-x="1000" />

<glyph glyph-name="iocner-en-og-en_072" unicode="&#xe861;" d="M500-143c-272 0-493 221-493 493 0 272 220 493 493 493h1c271 0 492-220 492-491v-4c0-271-221-491-493-491m241 705c33 0 60-27 60-61v-302c0-34-27-61-60-61h-454c-34 0-61 27-61 61v302c0 34 27 61 61 61h454m-252-147l-130-205c-3-5-8-7-14-7-3 0-6 0-9 2-8 5-10 16-5 23l139 219c2 4 6 6 11 7 4 1 9 0 12-2l92-58 84 121c5 7 15 9 23 4 8-5 10-16 4-23l-93-135c-5-7-15-9-23-4z m182-82c7 6 18 5 24-1 6-7 6-18-1-24l-93-84c-4-3-8-5-12-5-3 0-7 2-10 4l-106 82-20 5 19 30 13-3c2-1 4-2 6-4l97-75z m-330 5c-9 2-15 11-12 20 2 9 11 14 20 12l36-9-19-30-25 7" horiz-adv-x="1000" />

<glyph glyph-name="iocner-en-og-en_082" unicode="&#xe862;" d="M994 350c0-273-221-494-494-494-273 0-494 221-494 494 0 273 221 494 494 494 273 0 494-221 494-494m-212-139v264c0 15-13 28-28 28h-503c-15 0-28-13-28-28v-264c0-15 13-28 28-28h503c15 0 28 13 28 28z m-15 338c32 0 58-26 58-58v-296c0-32-26-58-58-58h-529c-32 0-58 26-58 58v296c0 32 26 58 58 58h529m-231-123h162m-162-82h162m-162-82h129m-332 159c0 23 18 41 41 41 22 0 40-18 40-41 0-22-18-40-40-40-23 0-41 18-41 40m-40-146c0 5 0 12 1 16 0 0 5 67 78 67h2 1c73 0 78-67 78-67 1-4 1-11 1-16v-47c0-4-3-8-8-8h-72-73c-4 0-8 4-8 8v47" horiz-adv-x="1000" />

<glyph glyph-name="members" unicode="&#xe863;" d="M994 350c0-271-219-492-490-494h-8c-270 2-489 222-490 493v2c1 272 222 493 494 493 273 0 494-221 494-494m-466 239c0 45 37 82 82 82 46 0 82-37 82-82 0-45-36-82-82-82-45 0-82 37-82 82m-220-31c0 45 36 82 82 82 45 0 82-37 82-82 0-45-37-82-82-82-46 0-82 37-82 82m-81-296c0 9 1 24 1 33 0 0 10 136 159 136h3 2c149 0 159-136 159-136 1-9 1-24 1-33v-95c0-9-7-16-15-16h-147-148c-8 0-15 7-15 16v95m545 64c0-9 1-24 1-33v-95c0-9-7-17-15-17h-148v112c0 9 0 24-1 33 0 0-6 82-80 119 21 10 46 16 79 16l2 0 3 0c149 0 159-135 159-135" horiz-adv-x="1000" />

<glyph glyph-name="real-time-data" unicode="&#xe864;" d="M500-144c-273 0-494 221-494 494 0 272 220 493 492 494h5c271-1 491-222 491-493v-1c0-273-221-494-494-494m-102 598l2 231 47-226 1-3c1-14-9-26-23-27-13-2-26 8-27 22z m53 190c44-11 85-39 114-82 3-6 7-11 10-17 4-8 2-18-6-23 0 0-1 0-1-1-8-4-19-1-24 7-2 5-5 10-8 15-20 29-47 50-76 61z m-117-52c-65-43-79-134-31-205 3-5 6-9 10-13 6-8 5-19-3-25-7-6-18-5-25 3-4 5-7 10-11 15-59 88-41 200 41 254 13 9 28 16 42 21l-3-39c-7-3-13-7-20-11m30-315c15 0 28-12 28-27v-114h-109v114c0 15 7 27 22 27z m163 91c15 0 27-12 27-27v-205h-108v205c0 15 7 27 21 27z m163 176c15 0 27-12 27-27v-381h-108v381c0 15 6 27 21 27h60" horiz-adv-x="1000" />

<glyph glyph-name="wi-fi" unicode="&#xe865;" d="M994 350c0-273-221-494-494-494-273 0-494 221-494 494 0 273 221 494 494 494 273 0 494-221 494-494m-505-241l-11 4c-25 11-39 39-33 67 6 27 29 46 55 45 28-1 50-21 54-50 4-27-12-54-37-63-3-1-5-2-8-3h-20m307 315c-3-8-6-15-11-21-9-10-19-20-28-30-14-14-24-13-35 3-32 48-75 83-130 104-115 44-244 2-315-102-2-3-4-6-6-9-7-7-17-8-24-1-13 12-25 25-37 38-8 10-9 24-1 34 58 79 134 131 231 146 143 22 258-29 347-143 4-5 6-12 9-19m-116-122c-4-7-6-14-11-20-10-11-21-22-31-32-11-11-21-11-30 2-20 26-45 45-78 53-53 12-98-5-134-46-3-3-5-7-8-10-8-9-18-9-26-1l-34 36c-11 11-10 26 0 37 49 57 111 86 186 81 65-4 117-33 158-83 4-4 5-10 8-17" horiz-adv-x="1000" />

<glyph glyph-name="console" unicode="&#xe867;" d="M107 826c-2-6-8-40-11-73-6-67-15-154-25-241-3-30-9-85-13-123-3-38-9-94-12-127-4-31-10-84-13-116-4-32-9-97-13-143l-6-84 30-28c16-16 31-28 34-28 3 0 7 16 9 34 2 19 7 65 10 102 4 38 10 93 13 124 3 30 9 78 13 106 7 56 6 63-13 63-12 0-13 4-11 34l2 34 45 2c79 3 74 11 76-111l2-105 614-2c337-1 620 0 628 2 15 3 15 5 15 111l0 107 53-2 54-2 2-34c2-32 0-34-13-34-13 0-13-2-9-51 3-49 11-130 23-242 4-30 8-73 10-95 2-23 6-41 9-41 3 0 19 13 36 28 29 28 29 28 29 70 0 23-4 59-7 81-3 21-9 67-12 102-12 116-20 196-26 248-10 93-25 230-38 364-3 32-8 64-11 70-4 10-45 11-737 11-691 0-732-1-737-11z m1289-56c5-6 6-86 5-281l-2-272-550-2-550-1 0 278c0 153 2 280 4 282 2 3 248 5 544 5 450 0 542-2 549-9z" horiz-adv-x="1688" />

<glyph glyph-name="heart rate" unicode="&#xe868;" d="M885 776c-77-10-114-21-114-31 0-5-13-16-28-24-34-17-128-106-128-121 0-5-11-20-23-33-23-23-30-24-144-21-66 2-145 1-174-3l-55-6 0-155c0-105 4-157 12-165 9-9 65-13 187-13l174 0 11-30c22-51 146-168 180-168 10 0 21-4 24-10 3-5 18-11 32-11 13 0 28-5 31-10 8-14 169-14 177 0 3 5 18 10 31 10 14 0 28 6 31 11 4 6 16 10 28 10 10 0 19 6 19 11 0 6 7 10 15 10 20 0 128 112 145 148l12 29 172 0c121 0 177 4 185 13 16 15 18 286 3 310-8 13-41 16-172 18-140 1-167 4-189 21-13 10-25 24-25 31 0 31-155 159-193 159-7 0-15 4-17 9-4 13-139 20-207 11z m191-77c47-16 142-79 143-95 0-5 9-21 21-33 11-13 20-29 20-39 0-8 4-15 9-15 28 0 45-196 21-243-25-49-30-59-30-75 0-8-4-16-8-16-5 0-14-10-22-24-7-12-36-39-66-59-31-20-57-38-60-42-27-27-230-44-245-20-3 6-15 10-27 10-10 0-19 3-19 8 0 4-13 14-29 21-36 16-96 69-96 85 0 6-5 11-11 11-5 0-10 7-10 16 0 8-3 15-9 15-4 0-14 16-23 35-19 41-20 229-2 267 86 175 264 252 443 193z m-237-174c-99-57-90-149 28-259 28-26 62-54 75-62 25-13 21-16 133 91 92 86 95 182 6 226-41 21-53 21-92-3-33-20-34-20-66 0-36 23-55 24-84 7z" horiz-adv-x="1896" />
</font>
</defs>
</svg>
